<svg width="468" height="566" viewBox="0 0 468 566" fill="none" xmlns="http://www.w3.org/2000/svg">
<g filter="url(#filter0_b_2124_3430)">
<path d="M267.493 361.9C273.225 352.055 283.757 346 295.148 346L385.852 346C397.243 346 407.775 352.055 413.507 361.9L458.627 439.4C464.42 449.351 464.42 461.649 458.627 471.6L413.507 549.1C407.775 558.945 397.243 565 385.852 565H295.148C283.757 565 273.225 558.945 267.493 549.1L222.373 471.6C216.58 461.649 216.58 449.351 222.373 439.4L267.493 361.9Z" fill="white"/>
<path d="M295.148 345.5C283.579 345.5 272.882 351.65 267.061 361.648L221.941 439.148C216.057 449.255 216.057 461.745 221.941 471.852L267.061 549.352C272.882 559.35 283.579 565.5 295.148 565.5H385.852C397.421 565.5 408.118 559.35 413.939 549.352L459.059 471.852C464.943 461.745 464.943 449.255 459.059 439.148L413.939 361.648C408.118 351.65 397.421 345.5 385.852 345.5L295.148 345.5Z" stroke="#1C9272"/>
</g>
<path fill-rule="evenodd" clip-rule="evenodd" d="M368.168 398.669C368.188 398.744 368.198 398.82 368.198 398.897V410.917C368.198 411.072 368.157 411.223 368.08 411.357C368.002 411.491 367.89 411.602 367.756 411.678L357.669 417.487V428.999C357.669 429.153 357.628 429.304 357.551 429.437C357.474 429.571 357.364 429.682 357.23 429.759L336.172 441.883C336.122 441.91 336.07 441.927 336.019 441.945C335.998 441.952 335.98 441.964 335.959 441.971C335.812 442.01 335.658 442.01 335.51 441.971C335.485 441.964 335.465 441.951 335.441 441.942C335.393 441.925 335.342 441.908 335.296 441.883L314.241 429.759C314.107 429.682 313.996 429.571 313.919 429.438C313.842 429.304 313.801 429.153 313.801 428.999V392.939C313.801 392.86 313.811 392.784 313.831 392.709C313.838 392.684 313.853 392.661 313.862 392.636C313.879 392.59 313.894 392.542 313.918 392.5C313.935 392.471 313.959 392.449 313.978 392.422C314.003 392.388 314.027 392.35 314.056 392.32C314.081 392.294 314.114 392.276 314.142 392.253C314.175 392.228 314.202 392.199 314.239 392.179L324.769 386.117C324.902 386.04 325.053 386 325.206 386C325.36 386 325.511 386.04 325.644 386.117L336.173 392.179C336.209 392.201 336.24 392.228 336.27 392.253C336.299 392.276 336.332 392.294 336.355 392.318C336.388 392.352 336.41 392.386 336.435 392.422C336.454 392.449 336.479 392.471 336.495 392.5C336.52 392.542 336.534 392.59 336.552 392.636C336.561 392.661 336.576 392.684 336.581 392.711C336.602 392.785 336.613 392.862 336.614 392.939V415.462L345.385 410.41V398.897C345.386 398.82 345.397 398.743 345.418 398.669C345.424 398.642 345.438 398.618 345.448 398.594C345.465 398.548 345.48 398.501 345.504 398.458C345.521 398.429 345.545 398.407 345.564 398.38C345.589 398.346 345.611 398.309 345.642 398.278C345.667 398.252 345.7 398.235 345.727 398.213C345.761 398.186 345.79 398.157 345.824 398.137L356.355 392.075C356.488 391.998 356.639 391.958 356.793 391.958C356.946 391.958 357.097 391.998 357.23 392.075L367.76 398.137C367.797 398.159 367.824 398.188 367.858 398.212C367.885 398.234 367.916 398.252 367.943 398.278C367.972 398.309 367.994 398.346 368.021 398.38C368.04 398.407 368.064 398.431 368.079 398.458C368.105 398.501 368.12 398.548 368.137 398.594C368.147 398.62 368.161 398.642 368.168 398.669ZM366.444 410.41V400.415L362.758 402.536L357.669 405.467V415.462L366.444 410.41ZM355.915 428.492V418.49L350.908 421.349L336.612 429.509V439.606L355.915 428.492ZM315.555 394.457V428.492L334.858 439.605V429.511L324.774 423.804L324.77 423.801L324.765 423.799C324.731 423.778 324.704 423.751 324.672 423.726C324.645 423.705 324.612 423.687 324.588 423.663L324.587 423.659C324.558 423.632 324.537 423.598 324.514 423.568C324.492 423.539 324.466 423.513 324.449 423.483L324.447 423.479C324.427 423.445 324.415 423.406 324.401 423.369C324.386 423.336 324.367 423.306 324.359 423.27C324.349 423.228 324.347 423.185 324.342 423.141C324.337 423.107 324.328 423.076 324.328 423.042V399.507L319.241 396.576L315.555 394.457ZM325.207 387.89L316.436 392.939L325.206 397.987L333.977 392.939L325.207 387.89ZM329.77 419.401L334.858 416.472V394.457L331.174 396.576L326.084 399.507V421.523L329.77 419.401ZM356.792 393.848L348.02 398.897L356.792 403.946L365.56 398.897L356.792 393.848ZM355.913 405.467L350.823 402.536L347.14 400.415V410.41L352.227 413.339L355.913 415.462V405.467ZM335.731 427.991L348.596 420.647L355.027 416.975L346.262 411.93L336.172 417.74L326.975 423.036L335.731 427.991Z" fill="#FF2D20"/>
<path d="M299.944 483V466.2H303.52V480.024H311.2V483H299.944ZM317.178 483.288C316.266 483.288 315.49 483.12 314.85 482.784C314.21 482.432 313.722 481.952 313.386 481.344C313.05 480.736 312.882 480.048 312.882 479.28C312.882 478 313.258 477.04 314.01 476.4C314.778 475.76 315.922 475.44 317.442 475.44H321.234V474.84C321.234 474.008 321.042 473.424 320.658 473.088C320.29 472.752 319.698 472.584 318.882 472.584C318.162 472.584 317.642 472.712 317.322 472.968C317.002 473.208 316.818 473.512 316.77 473.88H313.602C313.65 473.144 313.882 472.488 314.298 471.912C314.73 471.32 315.338 470.856 316.122 470.52C316.922 470.168 317.882 469.992 319.002 469.992C320.09 469.992 321.034 470.152 321.834 470.472C322.65 470.792 323.282 471.312 323.73 472.032C324.178 472.736 324.402 473.688 324.402 474.888V479.76C324.402 480.432 324.41 481.024 324.426 481.536C324.458 482.032 324.506 482.52 324.57 483H321.618C321.554 482.648 321.514 482.384 321.498 482.208C321.498 482.016 321.498 481.736 321.498 481.368C321.162 481.88 320.634 482.328 319.914 482.712C319.194 483.096 318.282 483.288 317.178 483.288ZM318.162 480.84C318.674 480.84 319.162 480.752 319.626 480.576C320.106 480.384 320.49 480.096 320.778 479.712C321.082 479.312 321.234 478.808 321.234 478.2V477.6H318.042C317.434 477.6 316.954 477.744 316.602 478.032C316.266 478.304 316.098 478.68 316.098 479.16C316.098 479.672 316.274 480.08 316.626 480.384C316.978 480.688 317.49 480.84 318.162 480.84ZM327.191 483V470.28H330.071V472.176C330.247 471.808 330.487 471.464 330.791 471.144C331.095 470.824 331.471 470.552 331.919 470.328C332.367 470.104 332.863 469.992 333.407 469.992C333.711 469.992 333.967 470.008 334.175 470.04C334.399 470.072 334.543 470.104 334.607 470.136V472.944C334.447 472.88 334.239 472.824 333.983 472.776C333.743 472.712 333.415 472.68 332.999 472.68C332.359 472.68 331.839 472.816 331.439 473.088C331.055 473.36 330.775 473.72 330.599 474.168C330.423 474.6 330.335 475.072 330.335 475.584V483H327.191ZM339.983 483.288C339.071 483.288 338.295 483.12 337.655 482.784C337.015 482.432 336.527 481.952 336.191 481.344C335.855 480.736 335.687 480.048 335.687 479.28C335.687 478 336.063 477.04 336.815 476.4C337.583 475.76 338.727 475.44 340.247 475.44H344.039V474.84C344.039 474.008 343.847 473.424 343.463 473.088C343.095 472.752 342.503 472.584 341.687 472.584C340.967 472.584 340.447 472.712 340.127 472.968C339.807 473.208 339.623 473.512 339.575 473.88H336.407C336.455 473.144 336.687 472.488 337.103 471.912C337.535 471.32 338.143 470.856 338.927 470.52C339.727 470.168 340.687 469.992 341.807 469.992C342.895 469.992 343.839 470.152 344.639 470.472C345.455 470.792 346.087 471.312 346.535 472.032C346.983 472.736 347.207 473.688 347.207 474.888V479.76C347.207 480.432 347.215 481.024 347.231 481.536C347.263 482.032 347.311 482.52 347.375 483H344.423C344.359 482.648 344.319 482.384 344.303 482.208C344.303 482.016 344.303 481.736 344.303 481.368C343.967 481.88 343.439 482.328 342.719 482.712C341.999 483.096 341.087 483.288 339.983 483.288ZM340.967 480.84C341.479 480.84 341.967 480.752 342.431 480.576C342.911 480.384 343.295 480.096 343.583 479.712C343.887 479.312 344.039 478.808 344.039 478.2V477.6H340.847C340.239 477.6 339.759 477.744 339.407 478.032C339.071 478.304 338.903 478.68 338.903 479.16C338.903 479.672 339.079 480.08 339.431 480.384C339.783 480.688 340.295 480.84 340.967 480.84ZM353.913 483L348.537 470.28H352.089L355.545 479.064L358.689 470.28H361.977L357.081 483H353.913ZM368.95 483.288C367.798 483.288 366.734 483.056 365.758 482.592C364.798 482.112 364.03 481.392 363.454 480.432C362.878 479.456 362.59 478.232 362.59 476.76V476.28C362.59 474.872 362.862 473.704 363.406 472.776C363.966 471.848 364.71 471.152 365.638 470.688C366.566 470.224 367.59 469.992 368.71 469.992C370.71 469.992 372.23 470.52 373.27 471.576C374.31 472.632 374.83 474.16 374.83 476.16V477.504H365.83C365.862 478.256 366.022 478.872 366.31 479.352C366.614 479.816 366.998 480.16 367.462 480.384C367.926 480.592 368.422 480.696 368.95 480.696C369.766 480.696 370.382 480.576 370.798 480.336C371.214 480.096 371.51 479.744 371.686 479.28H374.59C374.334 480.608 373.702 481.608 372.694 482.28C371.686 482.952 370.438 483.288 368.95 483.288ZM368.83 472.584C368.334 472.584 367.854 472.664 367.39 472.824C366.926 472.984 366.558 473.272 366.286 473.688C366.014 474.088 365.862 474.624 365.83 475.296H371.758C371.742 474.576 371.598 474.024 371.326 473.64C371.07 473.24 370.726 472.968 370.294 472.824C369.862 472.664 369.374 472.584 368.83 472.584ZM381.432 483.144C380.456 483.144 379.656 483.016 379.032 482.76C378.424 482.488 377.976 482.04 377.688 481.416C377.4 480.776 377.256 479.888 377.256 478.752V466.2H380.4V478.368C380.4 479.184 380.512 479.736 380.736 480.024C380.976 480.312 381.44 480.456 382.128 480.456C382.304 480.456 382.456 480.456 382.584 480.456C382.712 480.44 382.84 480.424 382.968 480.408V483.048C382.888 483.08 382.752 483.104 382.56 483.12C382.368 483.136 382.168 483.144 381.96 483.144C381.752 483.144 381.576 483.144 381.432 483.144Z" fill="#343434"/>
<path d="M301.128 522.48V521.312C300.04 521.312 299.101 521.109 298.312 520.704C297.533 520.288 296.931 519.712 296.504 518.976C296.088 518.24 295.88 517.381 295.88 516.4V516.08C295.88 515.205 296.088 514.421 296.504 513.728C296.931 513.035 297.533 512.491 298.312 512.096C299.101 511.691 300.04 511.488 301.128 511.488V510.32H302.632V511.488C303.731 511.488 304.669 511.691 305.448 512.096C306.227 512.491 306.824 513.035 307.24 513.728C307.667 514.421 307.88 515.205 307.88 516.08V516.4C307.88 517.381 307.667 518.24 307.24 518.976C306.824 519.712 306.227 520.288 305.448 520.704C304.669 521.109 303.731 521.312 302.632 521.312V522.48H301.128ZM306.28 516.4V516.08C306.28 515.461 306.136 514.912 305.848 514.432C305.571 513.941 305.16 513.552 304.616 513.264C304.083 512.976 303.421 512.832 302.632 512.832V519.968C303.421 519.968 304.083 519.824 304.616 519.536C305.16 519.237 305.571 518.821 305.848 518.288C306.136 517.744 306.28 517.115 306.28 516.4ZM297.48 516.08V516.4C297.48 517.115 297.619 517.744 297.896 518.288C298.184 518.821 298.6 519.237 299.144 519.536C299.688 519.824 300.349 519.968 301.128 519.968V512.832C300.349 512.832 299.688 512.976 299.144 513.264C298.6 513.552 298.184 513.941 297.896 514.432C297.619 514.912 297.48 515.461 297.48 516.08ZM310.046 525.2V513.52H311.358V515.12C311.646 514.555 312.046 514.123 312.558 513.824C313.08 513.515 313.683 513.36 314.366 513.36C315.432 513.36 316.286 513.712 316.926 514.416C317.566 515.109 317.886 516.144 317.886 517.52V517.84C317.886 518.8 317.736 519.6 317.438 520.24C317.15 520.88 316.739 521.36 316.206 521.68C315.683 522 315.07 522.16 314.366 522.16C313.64 522.16 313.032 522 312.542 521.68C312.062 521.36 311.699 520.96 311.454 520.48V525.2H310.046ZM314.046 520.912C314.739 520.912 315.315 520.651 315.774 520.128C316.243 519.605 316.478 518.843 316.478 517.84V517.52C316.478 516.592 316.243 515.877 315.774 515.376C315.315 514.864 314.739 514.608 314.046 514.608C313.534 514.608 313.08 514.715 312.686 514.928C312.302 515.141 311.998 515.435 311.774 515.808C311.56 516.171 311.454 516.581 311.454 517.04V518.32C311.454 518.832 311.56 519.285 311.774 519.68C311.998 520.064 312.302 520.368 312.686 520.592C313.08 520.805 313.534 520.912 314.046 520.912ZM323.409 522.16C322.695 522.16 322.023 522.005 321.393 521.696C320.775 521.387 320.273 520.912 319.889 520.272C319.516 519.632 319.329 518.821 319.329 517.84V517.52C319.329 516.581 319.511 515.808 319.873 515.2C320.236 514.581 320.716 514.123 321.313 513.824C321.911 513.515 322.556 513.36 323.249 513.36C324.497 513.36 325.463 513.701 326.145 514.384C326.828 515.067 327.169 516.032 327.169 517.28V518.176H320.737C320.737 518.837 320.871 519.365 321.137 519.76C321.415 520.155 321.756 520.443 322.161 520.624C322.577 520.795 322.993 520.88 323.409 520.88C324.049 520.88 324.54 520.773 324.881 520.56C325.233 520.347 325.484 520.053 325.633 519.68H327.009C326.839 520.491 326.417 521.109 325.745 521.536C325.084 521.952 324.305 522.16 323.409 522.16ZM323.329 514.64C322.892 514.64 322.476 514.725 322.081 514.896C321.687 515.056 321.361 515.312 321.105 515.664C320.86 516.016 320.737 516.469 320.737 517.024H325.841C325.831 516.437 325.708 515.973 325.473 515.632C325.249 515.28 324.951 515.029 324.577 514.88C324.204 514.72 323.788 514.64 323.329 514.64ZM329.171 522V513.52H330.579V519.92L334.963 513.52H336.371V522H334.963V515.6L330.579 522H329.171ZM332.771 512.48C331.939 512.48 331.331 512.304 330.947 511.952C330.563 511.589 330.371 511.072 330.371 510.4H331.747C331.747 510.763 331.832 511.035 332.003 511.216C332.173 511.397 332.429 511.488 332.771 511.488C333.123 511.488 333.384 511.397 333.555 511.216C333.736 511.035 333.827 510.763 333.827 510.4H335.171C335.171 511.072 334.979 511.589 334.595 511.952C334.211 512.304 333.603 512.48 332.771 512.48ZM338.936 522V513.52H340.44L343.464 518.8L346.488 513.52H347.896V522H346.488V515.84L343.976 520.16H342.856L340.344 515.84V522H338.936ZM350.452 522V513.52H354.132C354.836 513.52 355.412 513.621 355.86 513.824C356.308 514.016 356.639 514.288 356.852 514.64C357.065 514.981 357.172 515.381 357.172 515.84C357.172 516.213 357.049 516.571 356.804 516.912C356.569 517.243 356.265 517.472 355.892 517.6C356.415 517.728 356.809 517.973 357.076 518.336C357.353 518.688 357.492 519.104 357.492 519.584C357.492 520.32 357.247 520.907 356.756 521.344C356.265 521.781 355.497 522 354.452 522H350.452ZM351.86 520.752H354.452C355.049 520.752 355.471 520.645 355.716 520.432C355.961 520.219 356.084 519.915 356.084 519.52C356.084 519.115 355.961 518.805 355.716 518.592C355.471 518.368 355.049 518.256 354.452 518.256H351.86V520.752ZM351.86 517.104H354.132C354.74 517.104 355.161 516.997 355.396 516.784C355.641 516.571 355.764 516.277 355.764 515.904C355.764 515.552 355.641 515.275 355.396 515.072C355.161 514.869 354.74 514.768 354.132 514.768H351.86V517.104ZM363.019 522.16C362.304 522.16 361.632 522.005 361.003 521.696C360.384 521.376 359.883 520.896 359.499 520.256C359.125 519.616 358.939 518.811 358.939 517.84V517.52C358.939 516.603 359.125 515.835 359.499 515.216C359.883 514.597 360.384 514.133 361.003 513.824C361.632 513.515 362.304 513.36 363.019 513.36C363.744 513.36 364.416 513.515 365.035 513.824C365.653 514.133 366.149 514.597 366.523 515.216C366.907 515.835 367.099 516.603 367.099 517.52V517.84C367.099 518.811 366.907 519.616 366.523 520.256C366.149 520.896 365.653 521.376 365.035 521.696C364.416 522.005 363.744 522.16 363.019 522.16ZM363.019 520.88C363.456 520.88 363.872 520.784 364.267 520.592C364.672 520.389 365.003 520.064 365.259 519.616C365.525 519.168 365.659 518.576 365.659 517.84V517.52C365.659 516.837 365.525 516.288 365.259 515.872C365.003 515.445 364.672 515.136 364.267 514.944C363.872 514.741 363.456 514.64 363.019 514.64C362.592 514.64 362.176 514.741 361.771 514.944C361.365 515.136 361.029 515.445 360.763 515.872C360.507 516.288 360.379 516.837 360.379 517.52V517.84C360.379 518.576 360.507 519.168 360.763 519.616C361.029 520.064 361.365 520.389 361.771 520.592C362.176 520.784 362.592 520.88 363.019 520.88ZM369.093 525.2V513.52H370.405V515.12C370.693 514.555 371.093 514.123 371.605 513.824C372.127 513.515 372.73 513.36 373.413 513.36C374.479 513.36 375.333 513.712 375.973 514.416C376.613 515.109 376.933 516.144 376.933 517.52V517.84C376.933 518.8 376.783 519.6 376.485 520.24C376.197 520.88 375.786 521.36 375.253 521.68C374.73 522 374.117 522.16 373.413 522.16C372.687 522.16 372.079 522 371.589 521.68C371.109 521.36 370.746 520.96 370.501 520.48V525.2H369.093ZM373.093 520.912C373.786 520.912 374.362 520.651 374.821 520.128C375.29 519.605 375.525 518.843 375.525 517.84V517.52C375.525 516.592 375.29 515.877 374.821 515.376C374.362 514.864 373.786 514.608 373.093 514.608C372.581 514.608 372.127 514.715 371.733 514.928C371.349 515.141 371.045 515.435 370.821 515.808C370.607 516.171 370.501 516.581 370.501 517.04V518.32C370.501 518.832 370.607 519.285 370.821 519.68C371.045 520.064 371.349 520.368 371.733 520.592C372.127 520.805 372.581 520.912 373.093 520.912ZM378.936 522V513.52H380.344V517.072H381.464L384.632 513.52H386.296L382.616 517.584L386.456 522H384.664L381.464 518.288H380.344V522H378.936Z" fill="#7F7F7F"/>
<g filter="url(#filter1_b_2124_3430)">
<path d="M267.504 125.954C273.227 116.079 283.776 110 295.19 110L385.81 110C397.224 110 407.773 116.079 413.496 125.954L458.701 203.954C464.452 213.878 464.452 226.122 458.701 236.046L413.496 314.046C407.773 323.921 397.224 330 385.81 330H295.19C283.776 330 273.227 323.921 267.504 314.046L222.299 236.046C216.548 226.122 216.548 213.878 222.299 203.954L267.504 125.954Z" fill="white"/>
<path d="M295.19 109.5C283.598 109.5 272.884 115.674 267.071 125.704L221.867 203.704C216.025 213.783 216.025 226.217 221.867 236.296L267.071 314.296C272.884 324.326 283.598 330.5 295.19 330.5H385.81C397.402 330.5 408.116 324.326 413.929 314.296L459.133 236.296C464.975 226.217 464.975 213.783 459.133 203.704L413.929 125.704C408.116 115.674 397.402 109.5 385.81 109.5L295.19 109.5Z" stroke="#1C9272"/>
</g>
<path fill-rule="evenodd" clip-rule="evenodd" d="M325.85 205.577C326.486 205.896 327.155 206 328.408 206C329.854 206 330.712 205.839 332.159 205.25C332.827 204.968 333.818 204.468 334.731 203.945C335.093 203.731 335.449 203.51 335.776 203.294C337.035 202.49 338.697 201.204 339.5 200.454L340.92 199.087L340.961 199.124L341.001 199.087C342.679 200.627 343.979 201.702 344.987 202.45C345.415 202.757 345.841 203.048 346.226 203.294C347.305 204.006 348.699 204.777 350.509 205.505C351.585 205.887 352.383 206 353.594 206C355.014 206 355.684 205.866 356.408 205.437C356.853 205.156 357.463 204.731 357.823 204.414C357.875 204.368 357.921 204.325 357.962 204.285C358.266 204.027 358.735 203.38 359.081 202.773C359.131 202.686 359.177 202.6 359.221 202.517C359.502 201.931 359.866 200.955 360.06 200.199C360.088 200.091 360.112 199.988 360.132 199.891C360.293 199.141 360.427 197.56 360.427 196.408C360.427 195.282 360.266 193.326 360.025 192.067C359.81 190.808 359.596 189.495 359.569 189.173C359.569 189.173 359.569 189.173 359.569 189.173C359.494 188.646 359.678 188.471 361.29 187.922C361.398 187.885 361.512 187.847 361.632 187.807C362.664 187.455 364.311 186.755 365.55 186.136C365.727 186.048 365.896 185.961 366.053 185.878C367.132 185.315 368.559 184.362 369.438 183.648C369.563 183.546 369.677 183.449 369.778 183.359C370.505 182.679 371.272 181.732 371.704 180.986C371.766 180.879 371.821 180.777 371.868 180.679C372.243 179.849 372.484 178.831 372.484 178C372.484 177.169 372.243 176.151 371.868 175.321C371.493 174.544 370.608 173.418 369.778 172.641C368.974 171.891 367.286 170.766 366.053 170.122C364.794 169.453 362.811 168.595 361.632 168.193C360.186 167.711 359.703 167.5 359.586 167.187C359.547 167.083 359.549 166.967 359.569 166.827C359.594 166.525 359.784 165.353 359.985 164.17C359.998 164.091 360.011 164.012 360.025 163.933C360.266 162.674 360.427 160.718 360.427 159.566C360.427 159.284 360.418 158.974 360.403 158.656C360.358 157.701 360.252 156.672 360.132 156.109C359.971 155.332 359.542 154.153 359.221 153.483C358.873 152.813 358.31 152.01 357.962 151.715C357.962 151.715 357.962 151.715 357.962 151.715C357.64 151.393 356.917 150.884 356.408 150.563C355.684 150.134 355.014 150 353.594 150C352.193 150 351.344 150.151 349.978 150.696C349.928 150.716 349.876 150.737 349.825 150.758C348.804 151.19 347.05 152.121 345.958 152.867C344.859 153.59 343.278 154.823 341.001 156.94L340.475 156.414C339.257 155.326 338.296 154.516 337.529 153.909C337.435 153.837 337.342 153.767 337.25 153.698C336.499 153.135 335.542 152.506 334.717 152.02C333.892 151.565 332.978 151.115 332.293 150.831C330.685 150.161 329.908 150 328.408 150C326.988 150 326.318 150.134 325.594 150.563M325.85 205.577C324.849 204.947 324.306 204.552 324.04 204.285C323.997 204.248 323.95 204.204 323.9 204.152C323.554 203.792 323.086 203.103 322.781 202.517C322.741 202.433 322.699 202.341 322.656 202.243C322.356 201.558 322.01 200.571 321.87 199.891C321.85 199.797 321.83 199.69 321.811 199.573C321.678 198.752 321.575 197.416 321.575 196.408C321.575 195.423 321.698 193.802 321.89 192.569C321.918 192.393 321.947 192.224 321.977 192.067C322.138 191.122 322.298 190.148 322.38 189.584C322.407 189.396 322.426 189.254 322.432 189.173C322.513 188.611 322.298 188.45 320.369 187.807C320.222 187.756 320.062 187.699 319.892 187.636C318.706 187.193 317.05 186.464 315.948 185.878C315.794 185.797 315.633 185.709 315.467 185.614C314.307 184.953 312.927 183.992 312.224 183.359C312.12 183.262 312.015 183.159 311.911 183.052C311.18 182.306 310.462 181.359 310.134 180.679C310.087 180.576 310.042 180.469 310 180.36C309.702 179.597 309.518 178.727 309.518 178C309.518 177.169 309.759 176.151 310.134 175.321C310.509 174.544 311.393 173.418 312.224 172.641C313.028 171.891 314.716 170.766 315.948 170.122C317.208 169.453 319.19 168.595 320.369 168.193C322.298 167.55 322.513 167.389 322.432 166.827C322.426 166.746 322.407 166.604 322.38 166.416C322.298 165.852 322.138 164.878 321.977 163.933C321.947 163.776 321.918 163.607 321.89 163.431C321.698 162.197 321.575 160.574 321.575 159.566C321.575 158.44 321.709 156.859 321.87 156.109C322.03 155.332 322.459 154.153 322.781 153.483C323.129 152.813 323.692 152.01 324.04 151.715C324.362 151.393 325.085 150.884 325.594 150.563M331.141 153.242C330.283 152.921 329.077 152.679 328.461 152.679C327.818 152.679 326.961 152.894 326.505 153.162C326.076 153.403 325.433 154.18 325.112 154.823C324.656 155.68 324.442 156.699 324.335 158.44C324.228 160.101 324.308 161.602 324.603 163.397C324.844 164.79 325.112 166.103 325.192 166.344C325.299 166.693 325.541 166.693 326.987 166.398C327.898 166.237 329.801 165.943 331.194 165.755L333.74 165.46C335.615 162.915 336.821 161.414 337.625 160.477L339.098 158.735C337.035 156.94 335.588 155.841 334.543 155.118C333.525 154.421 331.971 153.59 331.141 153.242ZM355.443 153.162C354.987 152.867 354.13 152.679 353.433 152.679C352.79 152.679 351.504 152.974 350.62 153.349C349.736 153.698 348.235 154.555 347.271 155.198C346.333 155.868 344.94 156.94 344.189 157.583L342.85 158.735C345.154 161.414 346.36 162.915 347.003 163.826L348.208 165.46C352.174 165.943 354.05 166.237 354.987 166.398C356.434 166.693 356.675 166.693 356.783 166.344C356.863 166.103 357.104 164.79 357.345 163.397C357.667 161.602 357.747 160.101 357.64 158.44C357.506 156.699 357.292 155.68 356.863 154.823C356.515 154.18 355.898 153.403 355.443 153.162ZM342.635 162.674C341.885 161.763 341.135 161.012 340.974 161.012C340.84 161.012 340.09 161.763 339.34 162.674C338.563 163.585 337.866 164.522 337.786 164.79C337.652 165.219 337.919 165.273 340.974 165.273C344.055 165.273 344.323 165.219 344.163 164.79C344.082 164.522 343.386 163.585 342.635 162.674ZM348.128 170.149L346.735 167.952H335.267L333.632 170.551C332.721 171.998 331.435 174.249 330.739 175.589L329.506 178C331.784 182.341 333.07 184.618 333.847 185.824L335.213 188.048H346.735C349.253 183.975 350.54 181.724 351.209 180.411L352.469 178C350.164 173.633 348.878 171.355 348.128 170.149ZM331.462 168.836C331.623 168.595 331.516 168.488 331.114 168.515C330.792 168.515 329.56 168.702 328.381 168.917C327.202 169.158 326.237 169.372 326.237 169.426C326.21 169.506 326.452 170.31 326.746 171.221C327.041 172.159 327.443 173.338 327.63 173.847L328.006 174.785C328.63 173.702 329.149 172.8 329.579 172.054C330.882 169.79 331.361 168.957 331.462 168.836ZM354.318 169.104C353.46 168.917 352.174 168.702 351.477 168.595C350.379 168.434 350.218 168.461 350.459 168.783C350.593 168.997 351.451 170.417 352.335 171.971L353.969 174.785C354.425 173.552 354.853 172.427 355.202 171.516C355.577 170.578 355.845 169.747 355.872 169.64C355.872 169.506 355.175 169.292 354.318 169.104ZM323.745 171.114C323.558 170.551 323.343 170.096 323.236 170.122C323.129 170.122 321.95 170.524 320.61 171.007C319.297 171.489 317.475 172.266 316.591 172.775C315.707 173.284 314.448 174.249 313.751 174.919C313.001 175.669 312.465 176.473 312.331 177.062C312.224 177.571 312.197 178.402 312.277 178.884C312.385 179.42 312.92 180.224 313.724 181.028C314.421 181.751 315.787 182.743 316.725 183.278C317.69 183.814 319.565 184.618 320.878 185.074C322.754 185.717 323.343 185.851 323.504 185.583C323.611 185.395 323.692 185.127 323.692 184.967C323.719 184.833 324.308 183.198 325.058 181.349L326.398 178C324.576 173.445 323.906 171.65 323.745 171.114ZM361.15 170.926C359.864 170.471 358.739 170.096 358.685 170.096C358.605 170.096 358.471 170.364 358.39 170.712C358.283 171.033 357.613 172.802 356.89 174.651L355.55 178C357.399 182.582 358.069 184.35 358.23 184.913C358.39 185.449 358.605 185.904 358.658 185.904C358.739 185.904 359.864 185.529 361.15 185.074C362.436 184.618 364.285 183.814 365.223 183.278C366.187 182.743 367.554 181.751 368.251 181.028C369.028 180.224 369.59 179.42 369.671 178.884C369.778 178.402 369.751 177.571 369.644 177.062C369.51 176.473 368.974 175.669 368.197 174.919C367.527 174.222 366.187 173.257 365.223 172.722C364.285 172.186 362.436 171.382 361.15 170.926ZM329.667 184.056L328.113 181.269L327.764 182.046C327.55 182.475 327.095 183.573 326.746 184.511C326.398 185.422 326.103 186.253 326.103 186.387C326.103 186.494 326.8 186.708 327.657 186.896C328.488 187.083 329.801 187.298 330.524 187.405C331.676 187.566 331.81 187.539 331.569 187.217C331.382 187.003 330.524 185.583 329.667 184.056ZM355.014 183.975C354.559 182.743 354.05 181.644 353.942 181.483C353.782 181.305 353.701 181.305 353.701 181.483C353.701 181.644 352.924 183.091 351.933 184.699L350.191 187.646C352.174 187.324 353.46 187.083 354.318 186.896C355.148 186.735 355.845 186.494 355.845 186.387C355.845 186.279 355.47 185.181 355.014 183.975ZM333.74 190.54C329.801 190.057 327.872 189.763 326.934 189.575C325.407 189.254 325.219 189.254 325.139 189.629C325.085 189.87 324.844 191.21 324.603 192.603C324.308 194.398 324.201 195.872 324.335 197.56C324.442 199.301 324.656 200.32 325.085 201.177C325.433 201.82 326.05 202.57 326.505 202.838C326.934 203.106 327.818 203.321 328.434 203.321C329.077 203.321 330.283 203.053 331.114 202.731C331.971 202.41 333.498 201.579 334.543 200.882C335.562 200.159 337.008 199.06 337.759 198.417L339.098 197.238C336.821 194.559 335.615 193.058 334.945 192.174L333.74 190.54ZM357.319 192.603C357.077 191.076 356.783 189.682 356.675 189.522C356.568 189.343 356.023 189.352 355.041 189.548C354.237 189.736 352.362 190.004 350.888 190.191L348.208 190.54C346.333 193.058 345.127 194.559 344.323 195.523L342.85 197.238C344.913 199.06 346.36 200.159 347.405 200.882C348.423 201.579 349.977 202.41 350.808 202.731C351.665 203.053 352.871 203.321 353.487 203.321C354.13 203.321 354.987 203.106 355.443 202.838C355.872 202.57 356.515 201.82 356.836 201.177C357.265 200.346 357.506 199.275 357.613 197.694C357.747 196.086 357.667 194.612 357.319 192.603ZM344.163 191.21C344.297 190.781 344.029 190.727 340.92 190.727C337.812 190.727 337.544 190.781 337.732 191.21C337.839 191.451 338.563 192.415 339.313 193.326C340.09 194.237 340.813 194.988 340.974 194.988C341.108 194.988 341.858 194.237 342.635 193.326C343.386 192.415 344.082 191.451 344.163 191.21Z" fill="#61DAFB"/>
<path d="M337.169 173.954C337.491 173.633 338.134 173.177 338.589 172.963C339.045 172.722 340.063 172.534 340.92 172.507C341.938 172.507 342.823 172.695 343.466 173.016C344.028 173.284 344.752 173.82 345.047 174.168C345.368 174.49 345.824 175.187 346.065 175.642C346.306 176.151 346.493 177.169 346.493 178C346.493 178.831 346.306 179.849 346.065 180.331C345.824 180.813 345.368 181.51 345.047 181.832C344.752 182.18 344.028 182.716 343.493 182.984C342.849 183.305 341.912 183.493 341.001 183.493C340.09 183.493 339.152 183.305 338.509 182.984C337.973 182.716 337.249 182.18 336.955 181.832C336.633 181.51 336.178 180.813 335.937 180.331C335.695 179.849 335.508 178.831 335.508 178C335.508 177.089 335.695 176.151 336.017 175.508C336.285 174.972 336.821 174.249 337.169 173.954Z" fill="#61DAFB"/>
<path d="M268.944 247V230.2H275.736C277.144 230.2 278.312 230.424 279.24 230.872C280.184 231.32 280.896 231.952 281.376 232.768C281.856 233.568 282.096 234.512 282.096 235.6C282.096 236.752 281.8 237.76 281.208 238.624C280.616 239.472 279.712 240.088 278.496 240.472L282.576 247H278.424L274.896 240.856H272.52V247H268.944ZM272.52 238.024H275.04C276.368 238.024 277.28 237.824 277.776 237.424C278.272 237.008 278.52 236.4 278.52 235.6C278.52 234.8 278.272 234.2 277.776 233.8C277.28 233.384 276.368 233.176 275.04 233.176H272.52V238.024ZM290.419 247.288C289.267 247.288 288.203 247.056 287.227 246.592C286.267 246.112 285.499 245.392 284.923 244.432C284.347 243.456 284.059 242.232 284.059 240.76V240.28C284.059 238.872 284.331 237.704 284.875 236.776C285.435 235.848 286.179 235.152 287.107 234.688C288.035 234.224 289.059 233.992 290.179 233.992C292.179 233.992 293.699 234.52 294.739 235.576C295.779 236.632 296.299 238.16 296.299 240.16V241.504H287.299C287.331 242.256 287.491 242.872 287.779 243.352C288.083 243.816 288.467 244.16 288.931 244.384C289.395 244.592 289.891 244.696 290.419 244.696C291.235 244.696 291.851 244.576 292.267 244.336C292.683 244.096 292.979 243.744 293.155 243.28H296.059C295.803 244.608 295.171 245.608 294.163 246.28C293.155 246.952 291.907 247.288 290.419 247.288ZM290.299 236.584C289.803 236.584 289.323 236.664 288.859 236.824C288.395 236.984 288.027 237.272 287.755 237.688C287.483 238.088 287.331 238.624 287.299 239.296H293.227C293.211 238.576 293.067 238.024 292.795 237.64C292.539 237.24 292.195 236.968 291.763 236.824C291.331 236.664 290.843 236.584 290.299 236.584ZM302.397 247.288C301.485 247.288 300.709 247.12 300.069 246.784C299.429 246.432 298.941 245.952 298.605 245.344C298.269 244.736 298.101 244.048 298.101 243.28C298.101 242 298.477 241.04 299.229 240.4C299.997 239.76 301.141 239.44 302.661 239.44H306.453V238.84C306.453 238.008 306.261 237.424 305.877 237.088C305.509 236.752 304.917 236.584 304.101 236.584C303.381 236.584 302.861 236.712 302.541 236.968C302.221 237.208 302.037 237.512 301.989 237.88H298.821C298.869 237.144 299.101 236.488 299.517 235.912C299.949 235.32 300.557 234.856 301.341 234.52C302.141 234.168 303.101 233.992 304.221 233.992C305.309 233.992 306.253 234.152 307.053 234.472C307.869 234.792 308.501 235.312 308.949 236.032C309.397 236.736 309.621 237.688 309.621 238.888V243.76C309.621 244.432 309.629 245.024 309.645 245.536C309.677 246.032 309.725 246.52 309.789 247H306.837C306.773 246.648 306.733 246.384 306.717 246.208C306.717 246.016 306.717 245.736 306.717 245.368C306.381 245.88 305.853 246.328 305.133 246.712C304.413 247.096 303.501 247.288 302.397 247.288ZM303.381 244.84C303.893 244.84 304.381 244.752 304.845 244.576C305.325 244.384 305.709 244.096 305.997 243.712C306.301 243.312 306.453 242.808 306.453 242.2V241.6H303.261C302.653 241.6 302.173 241.744 301.821 242.032C301.485 242.304 301.317 242.68 301.317 243.16C301.317 243.672 301.493 244.08 301.845 244.384C302.197 244.688 302.709 244.84 303.381 244.84ZM318.025 247.288C316.857 247.288 315.801 247.048 314.857 246.568C313.913 246.072 313.161 245.344 312.601 244.384C312.057 243.408 311.785 242.2 311.785 240.76V240.28C311.785 238.904 312.073 237.752 312.649 236.824C313.225 235.896 313.985 235.192 314.929 234.712C315.873 234.232 316.905 233.992 318.025 233.992C319.225 233.992 320.241 234.192 321.073 234.592C321.905 234.992 322.545 235.544 322.993 236.248C323.457 236.952 323.721 237.728 323.785 238.576H320.569C320.441 238 320.177 237.544 319.777 237.208C319.393 236.856 318.809 236.68 318.025 236.68C317.481 236.68 316.977 236.808 316.513 237.064C316.065 237.32 315.697 237.712 315.409 238.24C315.137 238.768 315.001 239.448 315.001 240.28V240.76C315.001 241.656 315.129 242.392 315.385 242.968C315.657 243.528 316.017 243.944 316.465 244.216C316.929 244.472 317.449 244.6 318.025 244.6C318.649 244.6 319.185 244.44 319.633 244.12C320.097 243.784 320.409 243.312 320.569 242.704H323.785C323.689 243.616 323.385 244.424 322.873 245.128C322.361 245.832 321.681 246.368 320.833 246.736C320.001 247.104 319.065 247.288 318.025 247.288ZM331.092 247.144C330.1 247.144 329.284 247.008 328.644 246.736C328.004 246.448 327.532 245.992 327.228 245.368C326.94 244.744 326.796 243.936 326.796 242.944V236.92H325.092V234.28H326.796V231.4H329.94V234.28H333.012V236.92H329.94V242.44C329.94 243.16 330.068 243.68 330.324 244C330.596 244.304 331.092 244.456 331.812 244.456C332.292 244.456 332.772 244.432 333.252 244.384V247.024C332.948 247.056 332.628 247.08 332.292 247.096C331.972 247.128 331.572 247.144 331.092 247.144ZM338.478 247.288C338.11 247.288 337.766 247.192 337.446 247C337.142 246.824 336.894 246.576 336.702 246.256C336.526 245.936 336.438 245.6 336.438 245.248C336.438 244.656 336.638 244.168 337.038 243.784C337.438 243.4 337.918 243.208 338.478 243.208C339.038 243.208 339.518 243.4 339.918 243.784C340.318 244.168 340.518 244.656 340.518 245.248C340.518 245.6 340.422 245.936 340.23 246.256C340.054 246.576 339.814 246.824 339.51 247C339.206 247.192 338.862 247.288 338.478 247.288ZM343.652 247V234.28H346.532V236.152C346.852 235.576 347.348 235.072 348.02 234.64C348.692 234.208 349.612 233.992 350.78 233.992C352.332 233.992 353.484 234.408 354.236 235.24C355.004 236.072 355.388 237.272 355.388 238.84V247H352.22V239.56C352.22 238.616 352.02 237.904 351.62 237.424C351.236 236.928 350.572 236.68 349.628 236.68C348.956 236.68 348.412 236.816 347.996 237.088C347.58 237.36 347.276 237.712 347.084 238.144C346.892 238.576 346.796 239.048 346.796 239.56V247H343.652ZM361.975 247.288C361.063 247.288 360.287 247.12 359.647 246.784C359.007 246.432 358.519 245.952 358.183 245.344C357.847 244.736 357.679 244.048 357.679 243.28C357.679 242 358.055 241.04 358.807 240.4C359.575 239.76 360.719 239.44 362.239 239.44H366.031V238.84C366.031 238.008 365.839 237.424 365.455 237.088C365.087 236.752 364.495 236.584 363.679 236.584C362.959 236.584 362.439 236.712 362.119 236.968C361.799 237.208 361.615 237.512 361.567 237.88H358.399C358.447 237.144 358.679 236.488 359.095 235.912C359.527 235.32 360.135 234.856 360.919 234.52C361.719 234.168 362.679 233.992 363.799 233.992C364.887 233.992 365.831 234.152 366.631 234.472C367.447 234.792 368.079 235.312 368.527 236.032C368.975 236.736 369.199 237.688 369.199 238.888V243.76C369.199 244.432 369.207 245.024 369.223 245.536C369.255 246.032 369.303 246.52 369.367 247H366.415C366.351 246.648 366.311 246.384 366.295 246.208C366.295 246.016 366.295 245.736 366.295 245.368C365.959 245.88 365.431 246.328 364.711 246.712C363.991 247.096 363.079 247.288 361.975 247.288ZM362.959 244.84C363.471 244.84 363.959 244.752 364.423 244.576C364.903 244.384 365.287 244.096 365.575 243.712C365.879 243.312 366.031 242.808 366.031 242.2V241.6H362.839C362.231 241.6 361.751 241.744 361.399 242.032C361.063 242.304 360.895 242.68 360.895 243.16C360.895 243.672 361.071 244.08 361.423 244.384C361.775 244.688 362.287 244.84 362.959 244.84ZM377.123 247.144C376.131 247.144 375.315 247.008 374.675 246.736C374.035 246.448 373.563 245.992 373.259 245.368C372.971 244.744 372.827 243.936 372.827 242.944V236.92H371.123V234.28H372.827V231.4H375.971V234.28H379.043V236.92H375.971V242.44C375.971 243.16 376.099 243.68 376.355 244C376.627 244.304 377.123 244.456 377.843 244.456C378.323 244.456 378.803 244.432 379.283 244.384V247.024C378.979 247.056 378.659 247.08 378.323 247.096C378.003 247.128 377.603 247.144 377.123 247.144ZM381.837 247V234.28H384.981V247H381.837ZM383.397 233.056C382.837 233.056 382.373 232.88 382.005 232.528C381.653 232.176 381.477 231.72 381.477 231.16C381.477 230.6 381.653 230.144 382.005 229.792C382.373 229.44 382.829 229.264 383.373 229.264C383.949 229.264 384.413 229.44 384.765 229.792C385.133 230.144 385.317 230.6 385.317 231.16C385.317 231.72 385.133 232.176 384.765 232.528C384.413 232.88 383.957 233.056 383.397 233.056ZM392.264 247L386.888 234.28H390.44L393.896 243.064L397.04 234.28H400.328L395.432 247H392.264ZM407.302 247.288C406.15 247.288 405.086 247.056 404.11 246.592C403.15 246.112 402.382 245.392 401.806 244.432C401.23 243.456 400.942 242.232 400.942 240.76V240.28C400.942 238.872 401.214 237.704 401.758 236.776C402.318 235.848 403.062 235.152 403.99 234.688C404.918 234.224 405.942 233.992 407.062 233.992C409.062 233.992 410.582 234.52 411.622 235.576C412.662 236.632 413.182 238.16 413.182 240.16V241.504H404.182C404.214 242.256 404.374 242.872 404.662 243.352C404.966 243.816 405.35 244.16 405.814 244.384C406.278 244.592 406.774 244.696 407.302 244.696C408.118 244.696 408.734 244.576 409.15 244.336C409.566 244.096 409.862 243.744 410.038 243.28H412.942C412.686 244.608 412.054 245.608 411.046 246.28C410.038 246.952 408.79 247.288 407.302 247.288ZM407.182 236.584C406.686 236.584 406.206 236.664 405.742 236.824C405.278 236.984 404.91 237.272 404.638 237.688C404.366 238.088 404.214 238.624 404.182 239.296H410.11C410.094 238.576 409.95 238.024 409.678 237.64C409.422 237.24 409.078 236.968 408.646 236.824C408.214 236.664 407.726 236.584 407.182 236.584Z" fill="#343434"/>
<path d="M301.128 286.48V285.312C300.04 285.312 299.101 285.109 298.312 284.704C297.533 284.288 296.931 283.712 296.504 282.976C296.088 282.24 295.88 281.381 295.88 280.4V280.08C295.88 279.205 296.088 278.421 296.504 277.728C296.931 277.035 297.533 276.491 298.312 276.096C299.101 275.691 300.04 275.488 301.128 275.488V274.32H302.632V275.488C303.731 275.488 304.669 275.691 305.448 276.096C306.227 276.491 306.824 277.035 307.24 277.728C307.667 278.421 307.88 279.205 307.88 280.08V280.4C307.88 281.381 307.667 282.24 307.24 282.976C306.824 283.712 306.227 284.288 305.448 284.704C304.669 285.109 303.731 285.312 302.632 285.312V286.48H301.128ZM306.28 280.4V280.08C306.28 279.461 306.136 278.912 305.848 278.432C305.571 277.941 305.16 277.552 304.616 277.264C304.083 276.976 303.421 276.832 302.632 276.832V283.968C303.421 283.968 304.083 283.824 304.616 283.536C305.16 283.237 305.571 282.821 305.848 282.288C306.136 281.744 306.28 281.115 306.28 280.4ZM297.48 280.08V280.4C297.48 281.115 297.619 281.744 297.896 282.288C298.184 282.821 298.6 283.237 299.144 283.536C299.688 283.824 300.349 283.968 301.128 283.968V276.832C300.349 276.832 299.688 276.976 299.144 277.264C298.6 277.552 298.184 277.941 297.896 278.432C297.619 278.912 297.48 279.461 297.48 280.08ZM310.046 289.2V277.52H311.358V279.12C311.646 278.555 312.046 278.123 312.558 277.824C313.08 277.515 313.683 277.36 314.366 277.36C315.432 277.36 316.286 277.712 316.926 278.416C317.566 279.109 317.886 280.144 317.886 281.52V281.84C317.886 282.8 317.736 283.6 317.438 284.24C317.15 284.88 316.739 285.36 316.206 285.68C315.683 286 315.07 286.16 314.366 286.16C313.64 286.16 313.032 286 312.542 285.68C312.062 285.36 311.699 284.96 311.454 284.48V289.2H310.046ZM314.046 284.912C314.739 284.912 315.315 284.651 315.774 284.128C316.243 283.605 316.478 282.843 316.478 281.84V281.52C316.478 280.592 316.243 279.877 315.774 279.376C315.315 278.864 314.739 278.608 314.046 278.608C313.534 278.608 313.08 278.715 312.686 278.928C312.302 279.141 311.998 279.435 311.774 279.808C311.56 280.171 311.454 280.581 311.454 281.04V282.32C311.454 282.832 311.56 283.285 311.774 283.68C311.998 284.064 312.302 284.368 312.686 284.592C313.08 284.805 313.534 284.912 314.046 284.912ZM323.409 286.16C322.695 286.16 322.023 286.005 321.393 285.696C320.775 285.387 320.273 284.912 319.889 284.272C319.516 283.632 319.329 282.821 319.329 281.84V281.52C319.329 280.581 319.511 279.808 319.873 279.2C320.236 278.581 320.716 278.123 321.313 277.824C321.911 277.515 322.556 277.36 323.249 277.36C324.497 277.36 325.463 277.701 326.145 278.384C326.828 279.067 327.169 280.032 327.169 281.28V282.176H320.737C320.737 282.837 320.871 283.365 321.137 283.76C321.415 284.155 321.756 284.443 322.161 284.624C322.577 284.795 322.993 284.88 323.409 284.88C324.049 284.88 324.54 284.773 324.881 284.56C325.233 284.347 325.484 284.053 325.633 283.68H327.009C326.839 284.491 326.417 285.109 325.745 285.536C325.084 285.952 324.305 286.16 323.409 286.16ZM323.329 278.64C322.892 278.64 322.476 278.725 322.081 278.896C321.687 279.056 321.361 279.312 321.105 279.664C320.86 280.016 320.737 280.469 320.737 281.024H325.841C325.831 280.437 325.708 279.973 325.473 279.632C325.249 279.28 324.951 279.029 324.577 278.88C324.204 278.72 323.788 278.64 323.329 278.64ZM329.171 286V277.52H330.579V283.92L334.963 277.52H336.371V286H334.963V279.6L330.579 286H329.171ZM332.771 276.48C331.939 276.48 331.331 276.304 330.947 275.952C330.563 275.589 330.371 275.072 330.371 274.4H331.747C331.747 274.763 331.832 275.035 332.003 275.216C332.173 275.397 332.429 275.488 332.771 275.488C333.123 275.488 333.384 275.397 333.555 275.216C333.736 275.035 333.827 274.763 333.827 274.4H335.171C335.171 275.072 334.979 275.589 334.595 275.952C334.211 276.304 333.603 276.48 332.771 276.48ZM338.936 286V277.52H340.44L343.464 282.8L346.488 277.52H347.896V286H346.488V279.84L343.976 284.16H342.856L340.344 279.84V286H338.936ZM350.452 286V277.52H354.132C354.836 277.52 355.412 277.621 355.86 277.824C356.308 278.016 356.639 278.288 356.852 278.64C357.065 278.981 357.172 279.381 357.172 279.84C357.172 280.213 357.049 280.571 356.804 280.912C356.569 281.243 356.265 281.472 355.892 281.6C356.415 281.728 356.809 281.973 357.076 282.336C357.353 282.688 357.492 283.104 357.492 283.584C357.492 284.32 357.247 284.907 356.756 285.344C356.265 285.781 355.497 286 354.452 286H350.452ZM351.86 284.752H354.452C355.049 284.752 355.471 284.645 355.716 284.432C355.961 284.219 356.084 283.915 356.084 283.52C356.084 283.115 355.961 282.805 355.716 282.592C355.471 282.368 355.049 282.256 354.452 282.256H351.86V284.752ZM351.86 281.104H354.132C354.74 281.104 355.161 280.997 355.396 280.784C355.641 280.571 355.764 280.277 355.764 279.904C355.764 279.552 355.641 279.275 355.396 279.072C355.161 278.869 354.74 278.768 354.132 278.768H351.86V281.104ZM363.019 286.16C362.304 286.16 361.632 286.005 361.003 285.696C360.384 285.376 359.883 284.896 359.499 284.256C359.125 283.616 358.939 282.811 358.939 281.84V281.52C358.939 280.603 359.125 279.835 359.499 279.216C359.883 278.597 360.384 278.133 361.003 277.824C361.632 277.515 362.304 277.36 363.019 277.36C363.744 277.36 364.416 277.515 365.035 277.824C365.653 278.133 366.149 278.597 366.523 279.216C366.907 279.835 367.099 280.603 367.099 281.52V281.84C367.099 282.811 366.907 283.616 366.523 284.256C366.149 284.896 365.653 285.376 365.035 285.696C364.416 286.005 363.744 286.16 363.019 286.16ZM363.019 284.88C363.456 284.88 363.872 284.784 364.267 284.592C364.672 284.389 365.003 284.064 365.259 283.616C365.525 283.168 365.659 282.576 365.659 281.84V281.52C365.659 280.837 365.525 280.288 365.259 279.872C365.003 279.445 364.672 279.136 364.267 278.944C363.872 278.741 363.456 278.64 363.019 278.64C362.592 278.64 362.176 278.741 361.771 278.944C361.365 279.136 361.029 279.445 360.763 279.872C360.507 280.288 360.379 280.837 360.379 281.52V281.84C360.379 282.576 360.507 283.168 360.763 283.616C361.029 284.064 361.365 284.389 361.771 284.592C362.176 284.784 362.592 284.88 363.019 284.88ZM369.093 289.2V277.52H370.405V279.12C370.693 278.555 371.093 278.123 371.605 277.824C372.127 277.515 372.73 277.36 373.413 277.36C374.479 277.36 375.333 277.712 375.973 278.416C376.613 279.109 376.933 280.144 376.933 281.52V281.84C376.933 282.8 376.783 283.6 376.485 284.24C376.197 284.88 375.786 285.36 375.253 285.68C374.73 286 374.117 286.16 373.413 286.16C372.687 286.16 372.079 286 371.589 285.68C371.109 285.36 370.746 284.96 370.501 284.48V289.2H369.093ZM373.093 284.912C373.786 284.912 374.362 284.651 374.821 284.128C375.29 283.605 375.525 282.843 375.525 281.84V281.52C375.525 280.592 375.29 279.877 374.821 279.376C374.362 278.864 373.786 278.608 373.093 278.608C372.581 278.608 372.127 278.715 371.733 278.928C371.349 279.141 371.045 279.435 370.821 279.808C370.607 280.171 370.501 280.581 370.501 281.04V282.32C370.501 282.832 370.607 283.285 370.821 283.68C371.045 284.064 371.349 284.368 371.733 284.592C372.127 284.805 372.581 284.912 373.093 284.912ZM378.936 286V277.52H380.344V281.072H381.464L384.632 277.52H386.296L382.616 281.584L386.456 286H384.664L381.464 282.288H380.344V286H378.936Z" fill="#7F7F7F"/>
<g filter="url(#filter2_b_2124_3430)">
<path d="M54.5037 251.954C60.2268 242.079 70.7764 236 82.1901 236L172.81 236C184.224 236 194.773 242.079 200.496 251.954L245.701 329.954C251.452 339.878 251.452 352.122 245.701 362.046L200.496 440.046C194.773 449.921 184.224 456 172.81 456H82.1901C70.7764 456 60.2268 449.921 54.5037 440.046L9.29913 362.046C3.54775 352.122 3.54774 339.878 9.29913 329.954L54.5037 251.954Z" fill="white"/>
<path d="M82.1901 235.5C70.5981 235.5 59.8836 241.674 54.0711 251.704L8.86653 329.704C3.02528 339.783 3.02528 352.217 8.86653 362.296L54.0711 440.296C59.8836 450.326 70.5981 456.5 82.1901 456.5H172.81C184.402 456.5 195.116 450.326 200.929 440.296L246.133 362.296C251.975 352.217 251.975 339.783 246.133 329.704L200.929 251.704C195.116 241.674 184.402 235.5 172.81 235.5L82.1901 235.5Z" stroke="#1C9272"/>
</g>
<path fill-rule="evenodd" clip-rule="evenodd" d="M127.279 331.323C141.234 331.323 152.545 320.139 152.545 306.341C152.545 301.498 151.152 296.981 148.741 293.153C148.751 293.385 148.757 293.615 148.757 293.848C148.757 304.197 140.271 312.585 129.805 312.585C123.36 312.585 117.667 309.404 114.245 304.543C112.773 302.453 111.612 300.072 111.21 297.462C110.524 293.002 108.462 289.001 105.275 286.086C105.619 287.284 105.803 288.545 105.803 289.85C105.803 291.569 105.613 293.269 104.9 294.732C103.183 298.263 102.014 302.15 102.014 306.339C102.014 320.137 113.326 331.321 127.279 331.321V331.323Z" fill="url(#paint0_linear_2124_3430)"/>
<path fill-rule="evenodd" clip-rule="evenodd" d="M131.932 305.927C139.386 305.927 145.426 299.938 145.426 292.549C145.426 291.408 145.28 290.271 144.991 289.166C144.883 289.501 144.77 289.818 144.652 290.12C144.582 290.143 144.513 290.166 144.444 290.187L144.374 290.21L144.326 290.225C143.833 289.094 143.184 288.035 142.398 287.079C142.529 286.327 142.733 285.598 143 284.898C141.755 283.122 140.091 281.672 138.15 280.674C136.21 279.676 134.053 279.16 131.865 279.171C129.677 279.182 127.525 279.718 125.595 280.735C123.664 281.751 122.014 283.217 120.787 285.005C121.049 285.71 121.246 286.442 121.37 287.197C120.62 288.131 119.999 289.159 119.525 290.255L119.374 290.208L119.303 290.187C119.234 290.165 119.166 290.143 119.098 290.12C118.999 289.871 118.907 289.619 118.822 289.365C118.566 290.407 118.437 291.476 118.438 292.548C118.438 299.937 124.479 305.926 131.931 305.926L131.932 305.927Z" fill="#FEFEFE"/>
<path fill-rule="evenodd" clip-rule="evenodd" d="M127.909 322.366C140.816 322.366 151.281 313.417 151.281 302.377C151.281 299.142 150.381 296.087 148.786 293.383C148.789 293.539 148.793 293.694 148.793 293.85C148.793 304.202 140.309 312.594 129.843 312.594C123.398 312.594 117.705 309.412 114.28 304.549C112.81 302.458 111.647 300.077 111.245 297.465C110.56 293.004 108.499 289.003 105.311 286.086C109.099 297.488 104.539 295.332 104.539 304.876C104.539 315.915 115.002 322.366 127.909 322.366Z" fill="url(#paint1_linear_2124_3430)"/>
<path fill-rule="evenodd" clip-rule="evenodd" d="M110.511 294.589C109.529 291.291 107.756 288.359 105.311 286.086C105.655 287.311 105.83 288.577 105.829 289.849C105.829 291.566 105.64 293.266 104.94 294.727C104.59 295.458 104.263 296.203 103.965 296.964C104.438 298.551 104.806 300.511 104.65 302.525C106.41 298.113 108.642 295.8 110.512 294.589H110.511Z" fill="#E7EAEF" stroke="#EBECEC" stroke-width="0.2" stroke-miterlimit="22.926"/>
<path fill-rule="evenodd" clip-rule="evenodd" d="M146.846 276.677C147.133 282.435 146.553 287.421 145.305 290.624C145.234 290.136 145.135 289.653 145.009 289.177C145.762 286.853 146.211 283.779 146.301 280.254C144.839 281.527 143.712 283.131 143.017 284.929C142.43 284.102 141.75 283.343 140.991 282.667C142.247 280.106 144.298 278.008 146.846 276.678V276.677ZM116.9 276.677C116.611 282.49 117.203 287.516 118.476 290.714L118.539 290.736C118.604 290.274 118.692 289.818 118.802 289.373C118.011 287.027 117.537 283.88 117.446 280.254C118.937 281.553 120.079 283.196 120.771 285.036C121.354 284.196 122.031 283.425 122.791 282.739C121.538 280.145 119.473 278.02 116.9 276.677Z" fill="url(#paint2_linear_2124_3430)"/>
<path fill-rule="evenodd" clip-rule="evenodd" d="M148.787 293.457V293.521L148.788 293.529V293.586L148.79 293.594V293.922C148.79 304.225 140.298 312.578 129.822 312.578C129.725 312.578 129.627 312.578 129.528 312.575H129.517C129.422 312.575 129.326 312.572 129.23 312.569H129.213L128.927 312.556H128.913L128.63 312.541H128.611L128.327 312.52H128.324L128.043 312.497L128.02 312.494C127.93 312.486 127.84 312.477 127.75 312.467L127.724 312.464C127.634 312.455 127.545 312.444 127.456 312.433L127.424 312.43C127.336 312.419 127.249 312.408 127.161 312.396L127.133 312.391C127.047 312.379 126.961 312.367 126.876 312.354L126.849 312.349C126.763 312.337 126.676 312.323 126.591 312.307L126.557 312.303L126.305 312.257L126.264 312.25L126.015 312.203L125.976 312.194C125.892 312.178 125.809 312.159 125.725 312.141L125.694 312.135L125.454 312.08L125.413 312.071L125.177 312.013L125.13 312.002C125.053 311.983 124.976 311.963 124.9 311.943L124.838 311.928C124.765 311.907 124.691 311.887 124.618 311.865L124.559 311.85C124.486 311.83 124.413 311.809 124.34 311.788L124.287 311.771L124.077 311.705L124.011 311.685C123.942 311.663 123.873 311.641 123.805 311.618L123.742 311.598L123.532 311.526L123.466 311.503C123.396 311.479 123.327 311.455 123.258 311.43V311.435C123.258 316.91 127.771 321.347 133.336 321.347C134.246 321.347 135.65 321.074 137.361 320.605C145.561 317.511 151.281 310.528 151.281 302.408C151.281 299.188 150.38 296.148 148.784 293.457H148.787Z" fill="#F45424"/>
<path fill-rule="evenodd" clip-rule="evenodd" d="M134.398 330.303C144.885 327.279 152.545 317.714 152.545 306.381C152.545 301.562 151.158 297.064 148.76 293.252V293.901C148.76 293.753 148.758 293.604 148.754 293.456L148.755 293.243L148.746 293.228L148.754 293.456C150.347 296.15 151.245 299.196 151.245 302.422C151.245 309.239 147.239 315.254 141.128 318.849C141.383 321.216 140.869 323.602 139.659 325.661C138.449 327.72 136.608 329.345 134.4 330.303H134.398Z" fill="url(#paint3_linear_2124_3430)"/>
<path fill-rule="evenodd" clip-rule="evenodd" d="M131.932 305.927C139.386 305.927 145.426 299.938 145.426 292.549C145.426 291.408 145.28 290.271 144.991 289.166C144.883 289.501 144.77 289.818 144.652 290.12C144.582 290.143 144.513 290.166 144.444 290.187L144.374 290.21L144.326 290.225C143.833 289.094 143.184 288.035 142.398 287.079C142.529 286.327 142.733 285.598 143 284.898C141.755 283.122 140.091 281.672 138.15 280.674C136.21 279.676 134.053 279.16 131.865 279.171C129.677 279.182 127.525 279.718 125.595 280.735C123.664 281.751 122.014 283.217 120.787 285.005C121.049 285.71 121.246 286.442 121.37 287.197C120.62 288.131 119.999 289.159 119.525 290.255L119.374 290.208L119.303 290.187C119.234 290.165 119.166 290.143 119.098 290.12C118.999 289.871 118.907 289.619 118.822 289.365C118.566 290.407 118.437 291.476 118.438 292.548C118.438 299.937 124.479 305.926 131.931 305.926L131.932 305.927Z" fill="url(#paint4_radial_2124_3430)"/>
<path fill-rule="evenodd" clip-rule="evenodd" d="M141.516 290.819C141.349 290.555 141.172 290.297 140.985 290.045C141.1 289.325 141.275 288.625 141.508 287.953C139.392 284.634 135.878 282.459 131.898 282.459C127.88 282.459 124.333 284.677 122.223 288.056C122.451 288.733 122.621 289.436 122.728 290.159C122.598 290.339 122.473 290.522 122.352 290.708L129.931 300.486H134.101L141.516 290.819Z" fill="url(#paint5_linear_2124_3430)"/>
<path fill-rule="evenodd" clip-rule="evenodd" d="M142.441 287.002C137.755 287.365 133.786 290.17 131.922 294.09C130.042 290.137 126.022 287.317 121.285 286.993L121.325 287.222C120.572 288.151 119.95 289.175 119.473 290.268C119.423 290.252 119.372 290.237 119.322 290.221L119.251 290.199L119.125 290.159C119.85 296.48 125.302 301.393 131.922 301.393C138.597 301.393 144.085 296.396 144.736 290L144.684 290.132C144.616 290.156 144.547 290.179 144.477 290.199L144.406 290.222L144.356 290.238C143.861 289.111 143.21 288.056 142.423 287.105L142.441 287.002Z" fill="url(#paint6_radial_2124_3430)"/>
<path fill-rule="evenodd" clip-rule="evenodd" d="M144.277 291.356C143.888 291.321 143.497 291.302 143.105 291.302C138.141 291.302 133.865 294.127 131.93 298.19C129.995 294.127 125.718 291.302 120.753 291.302C120.359 291.302 119.967 291.321 119.581 291.356C119.507 291.902 119.469 292.452 119.469 293.002C119.469 299.766 125.047 305.248 131.93 305.248C138.811 305.248 144.391 299.764 144.391 293.002C144.39 292.452 144.352 291.902 144.277 291.356Z" fill="#FEFEFE"/>
<path d="M77.74 373L83.98 356.2H87.556L93.82 373H90.028L88.732 369.568H82.516L81.244 373H77.74ZM83.62 366.592H87.652L85.636 360.76L83.62 366.592ZM95.5109 377.8V360.28H98.4389V362.152C98.7589 361.576 99.2629 361.072 99.9509 360.64C100.639 360.208 101.511 359.992 102.567 359.992C104.263 359.992 105.583 360.52 106.527 361.576C107.487 362.616 107.967 364.184 107.967 366.28V366.76C107.967 368.216 107.743 369.432 107.295 370.408C106.863 371.368 106.247 372.088 105.447 372.568C104.647 373.048 103.687 373.288 102.567 373.288C101.703 373.288 100.935 373.104 100.263 372.736C99.6069 372.352 99.0709 371.856 98.6549 371.248V377.8H95.5109ZM101.823 370.6C102.655 370.6 103.351 370.288 103.911 369.664C104.471 369.024 104.751 368.056 104.751 366.76V366.28C104.751 365.08 104.479 364.184 103.935 363.592C103.407 362.984 102.703 362.68 101.823 362.68C101.215 362.68 100.671 362.8 100.191 363.04C99.7109 363.264 99.3349 363.608 99.0629 364.072C98.7909 364.52 98.6549 365.096 98.6549 365.8V367.24C98.6549 367.992 98.7829 368.624 99.0389 369.136C99.3109 369.632 99.6869 370 100.167 370.24C100.647 370.48 101.199 370.6 101.823 370.6ZM110.277 377.8V360.28H113.205V362.152C113.525 361.576 114.029 361.072 114.717 360.64C115.405 360.208 116.277 359.992 117.333 359.992C119.029 359.992 120.349 360.52 121.293 361.576C122.253 362.616 122.733 364.184 122.733 366.28V366.76C122.733 368.216 122.509 369.432 122.061 370.408C121.629 371.368 121.013 372.088 120.213 372.568C119.413 373.048 118.453 373.288 117.333 373.288C116.469 373.288 115.701 373.104 115.029 372.736C114.373 372.352 113.837 371.856 113.421 371.248V377.8H110.277ZM116.589 370.6C117.421 370.6 118.117 370.288 118.677 369.664C119.237 369.024 119.517 368.056 119.517 366.76V366.28C119.517 365.08 119.245 364.184 118.701 363.592C118.173 362.984 117.469 362.68 116.589 362.68C115.981 362.68 115.437 362.8 114.957 363.04C114.477 363.264 114.101 363.608 113.829 364.072C113.557 364.52 113.421 365.096 113.421 365.8V367.24C113.421 367.992 113.549 368.624 113.805 369.136C114.077 369.632 114.453 370 114.933 370.24C115.413 370.48 115.965 370.6 116.589 370.6ZM129.458 373V359.176H124.058V356.2H138.434V359.176H133.034V373H129.458ZM142.24 373.288C141.328 373.288 140.552 373.12 139.912 372.784C139.272 372.432 138.784 371.952 138.448 371.344C138.112 370.736 137.944 370.048 137.944 369.28C137.944 368 138.32 367.04 139.072 366.4C139.84 365.76 140.984 365.44 142.504 365.44H146.296V364.84C146.296 364.008 146.104 363.424 145.72 363.088C145.352 362.752 144.76 362.584 143.944 362.584C143.224 362.584 142.704 362.712 142.384 362.968C142.064 363.208 141.88 363.512 141.832 363.88H138.664C138.712 363.144 138.944 362.488 139.36 361.912C139.792 361.32 140.4 360.856 141.184 360.52C141.984 360.168 142.944 359.992 144.064 359.992C145.152 359.992 146.096 360.152 146.896 360.472C147.712 360.792 148.344 361.312 148.792 362.032C149.24 362.736 149.464 363.688 149.464 364.888V369.76C149.464 370.432 149.472 371.024 149.488 371.536C149.52 372.032 149.568 372.52 149.632 373H146.68C146.616 372.648 146.576 372.384 146.56 372.208C146.56 372.016 146.56 371.736 146.56 371.368C146.224 371.88 145.696 372.328 144.976 372.712C144.256 373.096 143.344 373.288 142.24 373.288ZM143.224 370.84C143.736 370.84 144.224 370.752 144.688 370.576C145.168 370.384 145.552 370.096 145.84 369.712C146.144 369.312 146.296 368.808 146.296 368.2V367.6H143.104C142.496 367.6 142.016 367.744 141.664 368.032C141.328 368.304 141.16 368.68 141.16 369.16C141.16 369.672 141.336 370.08 141.688 370.384C142.04 370.688 142.552 370.84 143.224 370.84ZM157.389 373.288C156.349 373.288 155.477 373.184 154.773 372.976C154.069 372.752 153.485 372.456 153.021 372.088C152.573 371.704 152.237 371.272 152.013 370.792C151.805 370.312 151.677 369.808 151.629 369.28H154.797C154.877 369.696 155.125 370.04 155.541 370.312C155.957 370.568 156.573 370.696 157.389 370.696C158.317 370.696 158.981 370.568 159.381 370.312C159.781 370.056 159.981 369.728 159.981 369.328C159.981 369.04 159.893 368.808 159.717 368.632C159.541 368.44 159.229 368.28 158.781 368.152C158.333 368.008 157.701 367.864 156.885 367.72C156.181 367.624 155.533 367.496 154.941 367.336C154.365 367.16 153.853 366.92 153.405 366.616C152.957 366.312 152.605 365.936 152.349 365.488C152.109 365.024 151.989 364.464 151.989 363.808C151.989 363.104 152.197 362.464 152.613 361.888C153.045 361.312 153.661 360.856 154.461 360.52C155.277 360.168 156.253 359.992 157.389 359.992C158.621 359.992 159.605 360.184 160.341 360.568C161.077 360.952 161.629 361.448 161.997 362.056C162.365 362.664 162.589 363.312 162.669 364H159.501C159.373 363.536 159.125 363.184 158.757 362.944C158.389 362.704 157.933 362.584 157.389 362.584C156.589 362.584 156.013 362.712 155.661 362.968C155.325 363.208 155.157 363.512 155.157 363.88C155.157 364.264 155.341 364.56 155.709 364.768C156.093 364.976 156.869 365.16 158.037 365.32C158.757 365.416 159.421 365.56 160.029 365.752C160.653 365.928 161.197 366.168 161.661 366.472C162.125 366.776 162.485 367.16 162.741 367.624C163.013 368.072 163.149 368.624 163.149 369.28C163.149 370.064 162.933 370.76 162.501 371.368C162.085 371.96 161.445 372.432 160.581 372.784C159.733 373.12 158.669 373.288 157.389 373.288ZM165.425 373V356.2H168.569V365.512L173.273 360.28H176.897L172.025 365.728L177.377 373H173.729L169.985 367.816L168.569 369.328V373H165.425Z" fill="#343434"/>
<path d="M83.208 412V402.112H79.32V400.8H88.6V402.112H84.712V412H83.208ZM91.1804 412.16C90.5617 412.16 90.0337 412.048 89.5964 411.824C89.1697 411.589 88.8444 411.275 88.6204 410.88C88.3964 410.475 88.2844 410.021 88.2844 409.52C88.2844 408.677 88.5297 408.069 89.0204 407.696C89.5217 407.323 90.2364 407.136 91.1644 407.136H93.9164V406.56C93.9164 405.835 93.751 405.333 93.4204 405.056C93.1004 404.779 92.615 404.64 91.9644 404.64C91.3564 404.64 90.9137 404.757 90.6364 404.992C90.359 405.216 90.2044 405.472 90.1724 405.76H88.7644C88.7964 405.301 88.951 404.896 89.2284 404.544C89.5057 404.181 89.8844 403.893 90.3644 403.68C90.8444 403.467 91.4044 403.36 92.0444 403.36C92.7164 403.36 93.2977 403.467 93.7884 403.68C94.279 403.883 94.6577 404.208 94.9244 404.656C95.191 405.093 95.3244 405.675 95.3244 406.4V409.84C95.3244 410.288 95.3244 410.683 95.3244 411.024C95.335 411.355 95.3617 411.68 95.4044 412H94.1724C94.1404 411.755 94.119 411.525 94.1084 411.312C94.0977 411.088 94.0924 410.837 94.0924 410.56C93.8684 411.008 93.5057 411.387 93.0044 411.696C92.503 412.005 91.895 412.16 91.1804 412.16ZM91.4844 410.88C91.9324 410.88 92.3377 410.8 92.7004 410.64C93.0737 410.48 93.367 410.245 93.5804 409.936C93.8044 409.627 93.9164 409.248 93.9164 408.8V408.224H91.4044C90.8817 408.224 90.471 408.331 90.1724 408.544C89.8737 408.747 89.7244 409.072 89.7244 409.52C89.7244 409.915 89.863 410.24 90.1404 410.496C90.4284 410.752 90.8764 410.88 91.4844 410.88ZM97.8113 412V403.52H99.2193V409.92L103.603 403.52H105.011V412H103.603V405.6L99.2193 412H97.8113ZM101.411 402.48C100.579 402.48 99.9713 402.304 99.5873 401.952C99.2033 401.589 99.0113 401.072 99.0113 400.4H100.387C100.387 400.763 100.473 401.035 100.643 401.216C100.814 401.397 101.07 401.488 101.411 401.488C101.763 401.488 102.025 401.397 102.195 401.216C102.377 401.035 102.467 400.763 102.467 400.4H103.811C103.811 401.072 103.619 401.589 103.235 401.952C102.851 402.304 102.243 402.48 101.411 402.48ZM107.577 412V403.52H109.081L112.105 408.8L115.129 403.52H116.537V412H115.129V405.84L112.617 410.16H111.497L108.985 405.84V412H107.577ZM125.029 412V404.768H122.133V403.52H129.333V404.768H126.437V412H125.029ZM130.936 415.2V403.52H132.248V405.12C132.536 404.555 132.936 404.123 133.448 403.824C133.971 403.515 134.574 403.36 135.256 403.36C136.323 403.36 137.176 403.712 137.816 404.416C138.456 405.109 138.776 406.144 138.776 407.52V407.84C138.776 408.8 138.627 409.6 138.328 410.24C138.04 410.88 137.63 411.36 137.096 411.68C136.574 412 135.96 412.16 135.256 412.16C134.531 412.16 133.923 412 133.432 411.68C132.952 411.36 132.59 410.96 132.344 410.48V415.2H130.936ZM134.936 410.912C135.63 410.912 136.206 410.651 136.664 410.128C137.134 409.605 137.368 408.843 137.368 407.84V407.52C137.368 406.592 137.134 405.877 136.664 405.376C136.206 404.864 135.63 404.608 134.936 404.608C134.424 404.608 133.971 404.715 133.576 404.928C133.192 405.141 132.888 405.435 132.664 405.808C132.451 406.171 132.344 406.581 132.344 407.04V408.32C132.344 408.832 132.451 409.285 132.664 409.68C132.888 410.064 133.192 410.368 133.576 410.592C133.971 410.805 134.424 410.912 134.936 410.912ZM144.3 412.16C143.585 412.16 142.913 412.005 142.284 411.696C141.665 411.387 141.164 410.912 140.78 410.272C140.407 409.632 140.22 408.821 140.22 407.84V407.52C140.22 406.581 140.401 405.808 140.764 405.2C141.127 404.581 141.607 404.123 142.204 403.824C142.801 403.515 143.447 403.36 144.14 403.36C145.388 403.36 146.353 403.701 147.036 404.384C147.719 405.067 148.06 406.032 148.06 407.28V408.176H141.628C141.628 408.837 141.761 409.365 142.028 409.76C142.305 410.155 142.647 410.443 143.052 410.624C143.468 410.795 143.884 410.88 144.3 410.88C144.94 410.88 145.431 410.773 145.772 410.56C146.124 410.347 146.375 410.053 146.524 409.68H147.9C147.729 410.491 147.308 411.109 146.636 411.536C145.975 411.952 145.196 412.16 144.3 412.16ZM144.22 404.64C143.783 404.64 143.367 404.725 142.972 404.896C142.577 405.056 142.252 405.312 141.996 405.664C141.751 406.016 141.628 406.469 141.628 407.024H146.732C146.721 406.437 146.599 405.973 146.364 405.632C146.14 405.28 145.841 405.029 145.468 404.88C145.095 404.72 144.679 404.64 144.22 404.64ZM150.061 412V403.52H151.469V407.072H152.589L155.757 403.52H157.421L153.741 407.584L157.581 412H155.789L152.589 408.288H151.469V412H150.061ZM162.472 412.16C161.757 412.16 161.085 412.005 160.456 411.696C159.837 411.387 159.336 410.912 158.952 410.272C158.579 409.632 158.392 408.821 158.392 407.84V407.52C158.392 406.581 158.573 405.808 158.936 405.2C159.299 404.581 159.779 404.123 160.376 403.824C160.973 403.515 161.619 403.36 162.312 403.36C163.56 403.36 164.525 403.701 165.208 404.384C165.891 405.067 166.232 406.032 166.232 407.28V408.176H159.8C159.8 408.837 159.933 409.365 160.2 409.76C160.477 410.155 160.819 410.443 161.224 410.624C161.64 410.795 162.056 410.88 162.472 410.88C163.112 410.88 163.603 410.773 163.944 410.56C164.296 410.347 164.547 410.053 164.696 409.68H166.072C165.901 410.491 165.48 411.109 164.808 411.536C164.147 411.952 163.368 412.16 162.472 412.16ZM162.392 404.64C161.955 404.64 161.539 404.725 161.144 404.896C160.749 405.056 160.424 405.312 160.168 405.664C159.923 406.016 159.8 406.469 159.8 407.024H164.904C164.893 406.437 164.771 405.973 164.536 405.632C164.312 405.28 164.013 405.029 163.64 404.88C163.267 404.72 162.851 404.64 162.392 404.64ZM168.233 415.2V403.52H169.545V405.12C169.833 404.555 170.233 404.123 170.745 403.824C171.268 403.515 171.87 403.36 172.553 403.36C173.62 403.36 174.473 403.712 175.113 404.416C175.753 405.109 176.073 406.144 176.073 407.52V407.84C176.073 408.8 175.924 409.6 175.625 410.24C175.337 410.88 174.926 411.36 174.393 411.68C173.87 412 173.257 412.16 172.553 412.16C171.828 412.16 171.22 412 170.729 411.68C170.249 411.36 169.886 410.96 169.641 410.48V415.2H168.233ZM172.233 410.912C172.926 410.912 173.502 410.651 173.961 410.128C174.43 409.605 174.665 408.843 174.665 407.84V407.52C174.665 406.592 174.43 405.877 173.961 405.376C173.502 404.864 172.926 404.608 172.233 404.608C171.721 404.608 171.268 404.715 170.873 404.928C170.489 405.141 170.185 405.435 169.961 405.808C169.748 406.171 169.641 406.581 169.641 407.04V408.32C169.641 408.832 169.748 409.285 169.961 409.68C170.185 410.064 170.489 410.368 170.873 410.592C171.268 410.805 171.721 410.912 172.233 410.912Z" fill="#7F7F7F"/>
<g filter="url(#filter3_b_2124_3430)">
<path d="M54.4933 16.8997C60.2246 7.05543 70.7569 1 82.148 1L172.852 1C184.243 1 194.775 7.05543 200.507 16.8997L245.627 94.3997C251.42 104.351 251.42 116.649 245.627 126.6L200.507 204.1C194.775 213.945 184.243 220 172.852 220H82.148C70.7569 220 60.2246 213.945 54.4933 204.1L9.37347 126.6C3.57968 116.649 3.57968 104.351 9.37347 94.3997L54.4933 16.8997Z" fill="white"/>
<path d="M82.148 0.500002C70.5789 0.500002 59.882 6.65005 54.0612 16.6481L8.94137 94.1481C3.05704 104.255 3.05705 116.745 8.94137 126.852L54.0612 204.352C59.882 214.35 70.5789 220.5 82.148 220.5H172.852C184.421 220.5 195.118 214.35 200.939 204.352L246.059 126.852C251.943 116.745 251.943 104.255 246.059 94.1481L200.939 16.6481C195.118 6.65004 184.421 0.5 172.852 0.5L82.148 0.500002Z" stroke="#1C9272"/>
</g>
<g clip-path="url(#clip0_2124_3430)">
<path d="M118.664 96C123.818 96 128.001 91.8187 128.001 86.6667V77.3334H118.664C113.509 77.3334 109.326 81.5147 109.326 86.6667C109.326 91.8187 113.509 96 118.664 96Z" fill="#0ACF83"/>
<path d="M109.326 68C109.326 62.848 113.509 58.6666 118.664 58.6666H128.001V77.3333H118.664C113.509 77.3333 109.326 73.152 109.326 68Z" fill="#A259FF"/>
<path d="M109.326 49.3333C109.326 44.1813 113.509 40 118.664 40H128.001V58.6667H118.664C113.509 58.6667 109.326 54.4853 109.326 49.3333Z" fill="#F24E1E"/>
<path d="M128 40H137.337C142.492 40 146.675 44.1813 146.675 49.3333C146.675 54.4853 142.492 58.6667 137.337 58.6667H128V40Z" fill="#FF7262"/>
<path d="M146.675 68.0001C146.675 73.1521 142.492 77.3334 137.337 77.3334C132.183 77.3334 128 73.1521 128 68.0001C128 62.8481 132.183 58.6667 137.337 58.6667C142.492 58.6667 146.675 62.8481 146.675 68.0001Z" fill="#1ABCFE"/>
</g>
<path d="M94.444 137V120.2H105.94V123.176H98.02V127.4H105.22V130.28H98.02V137H94.444ZM108.477 137V124.28H111.621V137H108.477ZM110.037 123.056C109.477 123.056 109.013 122.88 108.645 122.528C108.293 122.176 108.117 121.72 108.117 121.16C108.117 120.6 108.293 120.144 108.645 119.792C109.013 119.44 109.469 119.264 110.013 119.264C110.589 119.264 111.053 119.44 111.405 119.792C111.773 120.144 111.957 120.6 111.957 121.16C111.957 121.72 111.773 122.176 111.405 122.528C111.053 122.88 110.597 123.056 110.037 123.056ZM120.249 142.088C118.905 142.088 117.833 141.92 117.033 141.584C116.233 141.264 115.641 140.816 115.257 140.24C114.889 139.664 114.673 138.984 114.609 138.2H117.825C117.921 138.536 118.137 138.848 118.473 139.136C118.809 139.44 119.401 139.592 120.249 139.592C121.321 139.592 122.121 139.336 122.649 138.824C123.177 138.312 123.441 137.544 123.441 136.52V134.984C123.041 135.608 122.505 136.112 121.833 136.496C121.161 136.864 120.393 137.048 119.529 137.048C118.425 137.048 117.465 136.808 116.649 136.328C115.849 135.848 115.225 135.136 114.777 134.192C114.345 133.232 114.129 132.048 114.129 130.64V130.16C114.129 128.832 114.345 127.712 114.777 126.8C115.225 125.888 115.857 125.192 116.673 124.712C117.489 124.232 118.441 123.992 119.529 123.992C120.585 123.992 121.457 124.208 122.145 124.64C122.833 125.072 123.337 125.576 123.657 126.152V124.28H126.585V136.28C126.585 138.168 126.065 139.608 125.025 140.6C123.985 141.592 122.393 142.088 120.249 142.088ZM120.273 134.36C120.913 134.36 121.465 134.248 121.929 134.024C122.409 133.784 122.777 133.416 123.033 132.92C123.305 132.424 123.441 131.824 123.441 131.12V129.68C123.441 129.008 123.305 128.456 123.033 128.024C122.761 127.592 122.385 127.264 121.905 127.04C121.425 126.8 120.881 126.68 120.273 126.68C119.409 126.68 118.705 126.976 118.161 127.568C117.617 128.144 117.345 129.008 117.345 130.16V130.64C117.345 131.872 117.625 132.8 118.185 133.424C118.745 134.048 119.441 134.36 120.273 134.36ZM129.519 137V124.28H132.399V126.176C132.687 125.616 133.151 125.112 133.791 124.664C134.447 124.216 135.199 123.992 136.047 123.992C137.071 123.992 137.871 124.2 138.447 124.616C139.039 125.032 139.455 125.584 139.695 126.272C140.047 125.6 140.551 125.056 141.207 124.64C141.879 124.208 142.671 123.992 143.583 123.992C144.927 123.992 145.951 124.384 146.655 125.168C147.375 125.952 147.735 127.136 147.735 128.72V137H144.567V129.44C144.567 128.432 144.399 127.72 144.063 127.304C143.743 126.888 143.223 126.68 142.503 126.68C142.087 126.68 141.703 126.792 141.351 127.016C140.999 127.224 140.711 127.536 140.487 127.952C140.279 128.368 140.175 128.864 140.175 129.44V137H137.031V129.44C137.031 128.432 136.863 127.72 136.527 127.304C136.207 126.888 135.687 126.68 134.967 126.68C134.551 126.68 134.159 126.792 133.791 127.016C133.439 127.224 133.159 127.536 132.951 127.952C132.759 128.368 132.663 128.864 132.663 129.44V137H129.519ZM154.311 137.288C153.399 137.288 152.623 137.12 151.983 136.784C151.343 136.432 150.855 135.952 150.519 135.344C150.183 134.736 150.015 134.048 150.015 133.28C150.015 132 150.391 131.04 151.143 130.4C151.911 129.76 153.055 129.44 154.575 129.44H158.367V128.84C158.367 128.008 158.175 127.424 157.791 127.088C157.423 126.752 156.831 126.584 156.015 126.584C155.295 126.584 154.775 126.712 154.455 126.968C154.135 127.208 153.951 127.512 153.903 127.88H150.735C150.783 127.144 151.015 126.488 151.431 125.912C151.863 125.32 152.471 124.856 153.255 124.52C154.055 124.168 155.015 123.992 156.135 123.992C157.223 123.992 158.167 124.152 158.967 124.472C159.783 124.792 160.415 125.312 160.863 126.032C161.311 126.736 161.535 127.688 161.535 128.888V133.76C161.535 134.432 161.543 135.024 161.559 135.536C161.591 136.032 161.639 136.52 161.703 137H158.751C158.687 136.648 158.647 136.384 158.631 136.208C158.631 136.016 158.631 135.736 158.631 135.368C158.295 135.88 157.767 136.328 157.047 136.712C156.327 137.096 155.415 137.288 154.311 137.288ZM155.295 134.84C155.807 134.84 156.295 134.752 156.759 134.576C157.239 134.384 157.623 134.096 157.911 133.712C158.215 133.312 158.367 132.808 158.367 132.2V131.6H155.175C154.567 131.6 154.087 131.744 153.735 132.032C153.399 132.304 153.231 132.68 153.231 133.16C153.231 133.672 153.407 134.08 153.759 134.384C154.111 134.688 154.623 134.84 155.295 134.84Z" fill="#343434"/>
<path d="M69.1 176V164.8H76.14V166.112H70.604V176H69.1ZM75.9675 179.2V167.52H77.2795V169.12C77.5675 168.555 77.9675 168.123 78.4795 167.824C79.0022 167.515 79.6048 167.36 80.2875 167.36C81.3542 167.36 82.2075 167.712 82.8475 168.416C83.4875 169.109 83.8075 170.144 83.8075 171.52V171.84C83.8075 172.8 83.6582 173.6 83.3595 174.24C83.0715 174.88 82.6608 175.36 82.1275 175.68C81.6048 176 80.9915 176.16 80.2875 176.16C79.5622 176.16 78.9542 176 78.4635 175.68C77.9835 175.36 77.6208 174.96 77.3755 174.48V179.2H75.9675ZM79.9675 174.912C80.6608 174.912 81.2368 174.651 81.6955 174.128C82.1648 173.605 82.3995 172.843 82.3995 171.84V171.52C82.3995 170.592 82.1648 169.877 81.6955 169.376C81.2368 168.864 80.6608 168.608 79.9675 168.608C79.4555 168.608 79.0022 168.715 78.6075 168.928C78.2235 169.141 77.9195 169.435 77.6955 169.808C77.4822 170.171 77.3755 170.581 77.3755 171.04V172.32C77.3755 172.832 77.4822 173.285 77.6955 173.68C77.9195 174.064 78.2235 174.368 78.6075 174.592C79.0022 174.805 79.4555 174.912 79.9675 174.912ZM88.2273 176.16C87.6086 176.16 87.0806 176.048 86.6432 175.824C86.2166 175.589 85.8913 175.275 85.6673 174.88C85.4433 174.475 85.3313 174.021 85.3313 173.52C85.3313 172.677 85.5766 172.069 86.0673 171.696C86.5686 171.323 87.2833 171.136 88.2113 171.136H90.9633V170.56C90.9633 169.835 90.7979 169.333 90.4673 169.056C90.1473 168.779 89.6619 168.64 89.0113 168.64C88.4033 168.64 87.9606 168.757 87.6833 168.992C87.4059 169.216 87.2513 169.472 87.2193 169.76H85.8113C85.8433 169.301 85.9979 168.896 86.2753 168.544C86.5526 168.181 86.9313 167.893 87.4113 167.68C87.8913 167.467 88.4513 167.36 89.0913 167.36C89.7633 167.36 90.3446 167.467 90.8353 167.68C91.3259 167.883 91.7046 168.208 91.9713 168.656C92.2379 169.093 92.3713 169.675 92.3713 170.4V173.84C92.3713 174.288 92.3713 174.683 92.3713 175.024C92.3819 175.355 92.4086 175.68 92.4513 176H91.2193C91.1873 175.755 91.1659 175.525 91.1553 175.312C91.1446 175.088 91.1393 174.837 91.1393 174.56C90.9153 175.008 90.5526 175.387 90.0513 175.696C89.5499 176.005 88.9419 176.16 88.2273 176.16ZM88.5312 174.88C88.9793 174.88 89.3846 174.8 89.7473 174.64C90.1206 174.48 90.4139 174.245 90.6273 173.936C90.8513 173.627 90.9633 173.248 90.9633 172.8V172.224H88.4513C87.9286 172.224 87.5179 172.331 87.2193 172.544C86.9206 172.747 86.7713 173.072 86.7713 173.52C86.7713 173.915 86.9099 174.24 87.1873 174.496C87.4753 174.752 87.9233 174.88 88.5312 174.88ZM98.7941 179.2V176.16C97.3221 176.16 96.2021 175.787 95.4341 175.04C94.6768 174.293 94.2981 173.232 94.2981 171.856V171.536C94.2981 170.224 94.6768 169.2 95.4341 168.464C96.2021 167.728 97.3221 167.36 98.7941 167.36V164.8H100.202V167.36C101.674 167.36 102.789 167.728 103.546 168.464C104.314 169.2 104.698 170.224 104.698 171.536V171.856C104.698 173.232 104.314 174.293 103.546 175.04C102.789 175.787 101.674 176.16 100.202 176.16V179.2H98.7941ZM103.258 171.856V171.536C103.258 170.565 103.007 169.84 102.506 169.36C102.015 168.88 101.242 168.64 100.186 168.64V174.88C101.242 174.88 102.015 174.635 102.506 174.144C103.007 173.653 103.258 172.891 103.258 171.856ZM95.7381 171.536V171.856C95.7381 172.891 95.9835 173.653 96.4741 174.144C96.9755 174.635 97.7541 174.88 98.8101 174.88V168.64C97.7541 168.64 96.9755 168.88 96.4741 169.36C95.9835 169.84 95.7381 170.565 95.7381 171.536ZM107.509 176.16C107.307 176.16 107.12 176.107 106.949 176C106.779 175.904 106.64 175.771 106.533 175.6C106.437 175.429 106.389 175.243 106.389 175.04C106.389 174.72 106.496 174.453 106.709 174.24C106.933 174.027 107.2 173.92 107.509 173.92C107.819 173.92 108.08 174.027 108.293 174.24C108.517 174.453 108.629 174.72 108.629 175.04C108.629 175.243 108.576 175.429 108.469 175.6C108.373 175.771 108.24 175.904 108.069 176C107.909 176.107 107.723 176.16 107.509 176.16ZM115.186 179.2V167.52H116.498V169.12C116.786 168.555 117.186 168.123 117.698 167.824C118.221 167.515 118.824 167.36 119.506 167.36C120.573 167.36 121.426 167.712 122.066 168.416C122.706 169.109 123.026 170.144 123.026 171.52V171.84C123.026 172.8 122.877 173.6 122.578 174.24C122.29 174.88 121.88 175.36 121.346 175.68C120.824 176 120.21 176.16 119.506 176.16C118.781 176.16 118.173 176 117.682 175.68C117.202 175.36 116.84 174.96 116.594 174.48V179.2H115.186ZM119.186 174.912C119.88 174.912 120.456 174.651 120.914 174.128C121.384 173.605 121.618 172.843 121.618 171.84V171.52C121.618 170.592 121.384 169.877 120.914 169.376C120.456 168.864 119.88 168.608 119.186 168.608C118.674 168.608 118.221 168.715 117.826 168.928C117.442 169.141 117.138 169.435 116.914 169.808C116.701 170.171 116.594 170.581 116.594 171.04V172.32C116.594 172.832 116.701 173.285 116.914 173.68C117.138 174.064 117.442 174.368 117.826 174.592C118.221 174.805 118.674 174.912 119.186 174.912ZM128.55 176.16C127.835 176.16 127.163 176.005 126.534 175.696C125.915 175.387 125.414 174.912 125.03 174.272C124.657 173.632 124.47 172.821 124.47 171.84V171.52C124.47 170.581 124.651 169.808 125.014 169.2C125.377 168.581 125.857 168.123 126.454 167.824C127.051 167.515 127.697 167.36 128.39 167.36C129.638 167.36 130.603 167.701 131.286 168.384C131.969 169.067 132.31 170.032 132.31 171.28V172.176H125.878C125.878 172.837 126.011 173.365 126.278 173.76C126.555 174.155 126.897 174.443 127.302 174.624C127.718 174.795 128.134 174.88 128.55 174.88C129.19 174.88 129.681 174.773 130.022 174.56C130.374 174.347 130.625 174.053 130.774 173.68H132.15C131.979 174.491 131.558 175.109 130.886 175.536C130.225 175.952 129.446 176.16 128.55 176.16ZM128.47 168.64C128.033 168.64 127.617 168.725 127.222 168.896C126.827 169.056 126.502 169.312 126.246 169.664C126.001 170.016 125.878 170.469 125.878 171.024H130.982C130.971 170.437 130.849 169.973 130.614 169.632C130.39 169.28 130.091 169.029 129.718 168.88C129.345 168.72 128.929 168.64 128.47 168.64ZM133.195 178V174.752H134.235C134.395 174.539 134.534 174.181 134.651 173.68C134.768 173.168 134.859 172.571 134.923 171.888C134.998 171.205 135.035 170.496 135.035 169.76V167.52H140.955V174.752H142.155V178H140.811V176H134.539V178H133.195ZM135.675 174.752H139.547V168.768H136.411V170.08C136.411 170.976 136.347 171.845 136.219 172.688C136.102 173.52 135.92 174.208 135.675 174.752ZM146.415 176.16C145.796 176.16 145.268 176.048 144.831 175.824C144.404 175.589 144.079 175.275 143.855 174.88C143.631 174.475 143.519 174.021 143.519 173.52C143.519 172.677 143.764 172.069 144.255 171.696C144.756 171.323 145.471 171.136 146.399 171.136H149.151V170.56C149.151 169.835 148.985 169.333 148.655 169.056C148.335 168.779 147.849 168.64 147.199 168.64C146.591 168.64 146.148 168.757 145.871 168.992C145.593 169.216 145.439 169.472 145.407 169.76H143.999C144.031 169.301 144.185 168.896 144.463 168.544C144.74 168.181 145.119 167.893 145.599 167.68C146.079 167.467 146.639 167.36 147.279 167.36C147.951 167.36 148.532 167.467 149.023 167.68C149.513 167.883 149.892 168.208 150.159 168.656C150.425 169.093 150.559 169.675 150.559 170.4V173.84C150.559 174.288 150.559 174.683 150.559 175.024C150.569 175.355 150.596 175.68 150.639 176H149.407C149.375 175.755 149.353 175.525 149.343 175.312C149.332 175.088 149.327 174.837 149.327 174.56C149.103 175.008 148.74 175.387 148.239 175.696C147.737 176.005 147.129 176.16 146.415 176.16ZM146.719 174.88C147.167 174.88 147.572 174.8 147.935 174.64C148.308 174.48 148.601 174.245 148.815 173.936C149.039 173.627 149.151 173.248 149.151 172.8V172.224H146.639C146.116 172.224 145.705 172.331 145.407 172.544C145.108 172.747 144.959 173.072 144.959 173.52C144.959 173.915 145.097 174.24 145.375 174.496C145.663 174.752 146.111 174.88 146.719 174.88ZM153.046 176V167.52H154.454V171.072H155.574L158.742 167.52H160.406L156.726 171.584L160.566 176H158.774L155.574 172.288H154.454V176H153.046ZM164.185 176V168.768H161.289V167.52H168.489V168.768H165.593V176H164.185ZM173.456 176.16C172.742 176.16 172.07 176.005 171.44 175.696C170.822 175.376 170.32 174.896 169.936 174.256C169.563 173.616 169.376 172.811 169.376 171.84V171.52C169.376 170.603 169.563 169.835 169.936 169.216C170.32 168.597 170.822 168.133 171.44 167.824C172.07 167.515 172.742 167.36 173.456 167.36C174.182 167.36 174.854 167.515 175.472 167.824C176.091 168.133 176.587 168.597 176.96 169.216C177.344 169.835 177.536 170.603 177.536 171.52V171.84C177.536 172.811 177.344 173.616 176.96 174.256C176.587 174.896 176.091 175.376 175.472 175.696C174.854 176.005 174.182 176.16 173.456 176.16ZM173.456 174.88C173.894 174.88 174.31 174.784 174.704 174.592C175.11 174.389 175.44 174.064 175.696 173.616C175.963 173.168 176.096 172.576 176.096 171.84V171.52C176.096 170.837 175.963 170.288 175.696 169.872C175.44 169.445 175.11 169.136 174.704 168.944C174.31 168.741 173.894 168.64 173.456 168.64C173.03 168.64 172.614 168.741 172.208 168.944C171.803 169.136 171.467 169.445 171.2 169.872C170.944 170.288 170.816 170.837 170.816 171.52V171.84C170.816 172.576 170.944 173.168 171.2 173.616C171.467 174.064 171.803 174.389 172.208 174.592C172.614 174.784 173.03 174.88 173.456 174.88ZM179.53 179.2V167.52H180.842V169.12C181.13 168.555 181.53 168.123 182.042 167.824C182.565 167.515 183.167 167.36 183.85 167.36C184.917 167.36 185.77 167.712 186.41 168.416C187.05 169.109 187.37 170.144 187.37 171.52V171.84C187.37 172.8 187.221 173.6 186.922 174.24C186.634 174.88 186.223 175.36 185.69 175.68C185.167 176 184.554 176.16 183.85 176.16C183.125 176.16 182.517 176 182.026 175.68C181.546 175.36 181.183 174.96 180.938 174.48V179.2H179.53ZM183.53 174.912C184.223 174.912 184.799 174.651 185.258 174.128C185.727 173.605 185.962 172.843 185.962 171.84V171.52C185.962 170.592 185.727 169.877 185.258 169.376C184.799 168.864 184.223 168.608 183.53 168.608C183.018 168.608 182.565 168.715 182.17 168.928C181.786 169.141 181.482 169.435 181.258 169.808C181.045 170.171 180.938 170.581 180.938 171.04V172.32C180.938 172.832 181.045 173.285 181.258 173.68C181.482 174.064 181.786 174.368 182.17 174.592C182.565 174.805 183.018 174.912 183.53 174.912Z" fill="#7F7F7F"/>
<defs>
<filter id="filter0_b_2124_3430" x="185.027" y="313" width="310.945" height="285" filterUnits="userSpaceOnUse" color-interpolation-filters="sRGB">
<feFlood flood-opacity="0" result="BackgroundImageFix"/>
<feGaussianBlur in="BackgroundImageFix" stdDeviation="16"/>
<feComposite in2="SourceAlpha" operator="in" result="effect1_backgroundBlur_2124_3430"/>
<feBlend mode="normal" in="SourceGraphic" in2="effect1_backgroundBlur_2124_3430" result="shape"/>
</filter>
<filter id="filter1_b_2124_3430" x="184.986" y="77" width="311.027" height="286" filterUnits="userSpaceOnUse" color-interpolation-filters="sRGB">
<feFlood flood-opacity="0" result="BackgroundImageFix"/>
<feGaussianBlur in="BackgroundImageFix" stdDeviation="16"/>
<feComposite in2="SourceAlpha" operator="in" result="effect1_backgroundBlur_2124_3430"/>
<feBlend mode="normal" in="SourceGraphic" in2="effect1_backgroundBlur_2124_3430" result="shape"/>
</filter>
<filter id="filter2_b_2124_3430" x="-28.0137" y="203" width="311.027" height="286" filterUnits="userSpaceOnUse" color-interpolation-filters="sRGB">
<feFlood flood-opacity="0" result="BackgroundImageFix"/>
<feGaussianBlur in="BackgroundImageFix" stdDeviation="16"/>
<feComposite in2="SourceAlpha" operator="in" result="effect1_backgroundBlur_2124_3430"/>
<feBlend mode="normal" in="SourceGraphic" in2="effect1_backgroundBlur_2124_3430" result="shape"/>
</filter>
<filter id="filter3_b_2124_3430" x="-27.9727" y="-32" width="310.945" height="285" filterUnits="userSpaceOnUse" color-interpolation-filters="sRGB">
<feFlood flood-opacity="0" result="BackgroundImageFix"/>
<feGaussianBlur in="BackgroundImageFix" stdDeviation="16"/>
<feComposite in2="SourceAlpha" operator="in" result="effect1_backgroundBlur_2124_3430"/>
<feBlend mode="normal" in="SourceGraphic" in2="effect1_backgroundBlur_2124_3430" result="shape"/>
</filter>
<linearGradient id="paint0_linear_2124_3430" x1="92.9405" y1="293.507" x2="153.26" y2="351.193" gradientUnits="userSpaceOnUse">
<stop stop-color="#FB9006"/>
<stop offset="1" stop-color="#FB9006"/>
</linearGradient>
<linearGradient id="paint1_linear_2124_3430" x1="105.919" y1="302.978" x2="132.114" y2="323.994" gradientUnits="userSpaceOnUse">
<stop stop-color="#FF6E00"/>
<stop offset="1" stop-color="#F87A0A"/>
</linearGradient>
<linearGradient id="paint2_linear_2124_3430" x1="132.072" y1="292.539" x2="132.072" y2="279.312" gradientUnits="userSpaceOnUse">
<stop stop-color="#FD6D47"/>
<stop offset="1" stop-color="#E04922"/>
</linearGradient>
<linearGradient id="paint3_linear_2124_3430" x1="149.57" y1="295.2" x2="134.714" y2="330.435" gradientUnits="userSpaceOnUse">
<stop stop-color="#EF4206"/>
<stop offset="0.329" stop-color="#F57C17"/>
<stop offset="1" stop-color="#FCB729"/>
</linearGradient>
<radialGradient id="paint4_radial_2124_3430" cx="0" cy="0" r="1" gradientUnits="userSpaceOnUse" gradientTransform="translate(131.932 292.549) scale(13.4942 13.3783)">
<stop stop-color="#F3BC57"/>
<stop offset="0.2" stop-color="#F49451"/>
<stop offset="1" stop-color="#F46D4B"/>
</radialGradient>
<linearGradient id="paint5_linear_2124_3430" x1="131.869" y1="291.472" x2="131.869" y2="274.179" gradientUnits="userSpaceOnUse">
<stop stop-color="#FB9006"/>
<stop offset="1" stop-color="#FEFEFE"/>
</linearGradient>
<radialGradient id="paint6_radial_2124_3430" cx="0" cy="0" r="1" gradientUnits="userSpaceOnUse" gradientTransform="translate(132.188 297.51) scale(9.53855 10.5965)">
<stop stop-color="#FED337"/>
<stop offset="1" stop-color="#FC2D27"/>
</radialGradient>
<clipPath id="clip0_2124_3430">
<rect width="37.3572" height="56" fill="white" transform="translate(109.322 40)"/>
</clipPath>
</defs>
</svg>
