<svg width="262" height="912" viewBox="0 0 262 912" fill="none" xmlns="http://www.w3.org/2000/svg">
<g filter="url(#filter0_b_2195_64)">
<path d="M51.5037 16.9544C57.2268 7.07929 67.7764 1 79.1901 1L169.81 1C181.224 1 191.773 7.07929 197.496 16.9544L242.701 94.9544C248.452 104.878 248.452 117.122 242.701 127.046L197.496 205.046C191.773 214.921 181.224 221 169.81 221H79.1901C67.7764 221 57.2268 214.921 51.5037 205.046L6.29913 127.046C0.547746 117.122 0.547742 104.878 6.29913 94.9544L51.5037 16.9544Z" fill="white"/>
<path d="M79.1901 0.500002C67.5981 0.500002 56.8836 6.67428 51.0711 16.7037L5.86653 94.7037C0.0252759 104.783 0.0252793 117.217 5.86653 127.296L51.0711 205.296C56.8836 215.326 67.5981 221.5 79.1901 221.5H169.81C181.402 221.5 192.116 215.326 197.929 205.296L243.133 127.296C248.975 117.217 248.975 104.783 243.133 94.7037L197.929 16.7037C192.116 6.67428 181.402 0.5 169.81 0.5L79.1901 0.500002Z" stroke="#1C9272"/>
</g>
<path d="M122 96C126.968 96 131 91.968 131 87V78H122C117.032 78 113 82.032 113 87C113 91.968 117.032 96 122 96Z" fill="#0ACF83"/>
<path d="M113 69C113 64.032 117.032 60 122 60H131V78H122C117.032 78 113 73.968 113 69Z" fill="#A259FF"/>
<path d="M113 50.5C113 45.256 117.032 41 122 41H131V60H122C117.032 60 113 55.744 113 50.5Z" fill="#F24E1E"/>
<path d="M131 41H140C144.968 41 149 45.256 149 50.5C149 55.744 144.968 60 140 60H131V41Z" fill="#FF7262"/>
<path d="M149 69C149 73.968 144.968 78 140 78C135.032 78 131 73.968 131 69C131 64.032 135.032 60 140 60C144.968 60 149 64.032 149 69Z" fill="#1ABCFE"/>
<path d="M97.444 138V121.2H108.94V124.176H101.02V128.4H108.22V131.28H101.02V138H97.444ZM111.477 138V125.28H114.621V138H111.477ZM113.037 124.056C112.477 124.056 112.013 123.88 111.645 123.528C111.293 123.176 111.117 122.72 111.117 122.16C111.117 121.6 111.293 121.144 111.645 120.792C112.013 120.44 112.469 120.264 113.013 120.264C113.589 120.264 114.053 120.44 114.405 120.792C114.773 121.144 114.957 121.6 114.957 122.16C114.957 122.72 114.773 123.176 114.405 123.528C114.053 123.88 113.597 124.056 113.037 124.056ZM123.249 143.088C121.905 143.088 120.833 142.92 120.033 142.584C119.233 142.264 118.641 141.816 118.257 141.24C117.889 140.664 117.673 139.984 117.609 139.2H120.825C120.921 139.536 121.137 139.848 121.473 140.136C121.809 140.44 122.401 140.592 123.249 140.592C124.321 140.592 125.121 140.336 125.649 139.824C126.177 139.312 126.441 138.544 126.441 137.52V135.984C126.041 136.608 125.505 137.112 124.833 137.496C124.161 137.864 123.393 138.048 122.529 138.048C121.425 138.048 120.465 137.808 119.649 137.328C118.849 136.848 118.225 136.136 117.777 135.192C117.345 134.232 117.129 133.048 117.129 131.64V131.16C117.129 129.832 117.345 128.712 117.777 127.8C118.225 126.888 118.857 126.192 119.673 125.712C120.489 125.232 121.441 124.992 122.529 124.992C123.585 124.992 124.457 125.208 125.145 125.64C125.833 126.072 126.337 126.576 126.657 127.152V125.28H129.585V137.28C129.585 139.168 129.065 140.608 128.025 141.6C126.985 142.592 125.393 143.088 123.249 143.088ZM123.273 135.36C123.913 135.36 124.465 135.248 124.929 135.024C125.409 134.784 125.777 134.416 126.033 133.92C126.305 133.424 126.441 132.824 126.441 132.12V130.68C126.441 130.008 126.305 129.456 126.033 129.024C125.761 128.592 125.385 128.264 124.905 128.04C124.425 127.8 123.881 127.68 123.273 127.68C122.409 127.68 121.705 127.976 121.161 128.568C120.617 129.144 120.345 130.008 120.345 131.16V131.64C120.345 132.872 120.625 133.8 121.185 134.424C121.745 135.048 122.441 135.36 123.273 135.36ZM132.519 138V125.28H135.399V127.176C135.687 126.616 136.151 126.112 136.791 125.664C137.447 125.216 138.199 124.992 139.047 124.992C140.071 124.992 140.871 125.2 141.447 125.616C142.039 126.032 142.455 126.584 142.695 127.272C143.047 126.6 143.551 126.056 144.207 125.64C144.879 125.208 145.671 124.992 146.583 124.992C147.927 124.992 148.951 125.384 149.655 126.168C150.375 126.952 150.735 128.136 150.735 129.72V138H147.567V130.44C147.567 129.432 147.399 128.72 147.063 128.304C146.743 127.888 146.223 127.68 145.503 127.68C145.087 127.68 144.703 127.792 144.351 128.016C143.999 128.224 143.711 128.536 143.487 128.952C143.279 129.368 143.175 129.864 143.175 130.44V138H140.031V130.44C140.031 129.432 139.863 128.72 139.527 128.304C139.207 127.888 138.687 127.68 137.967 127.68C137.551 127.68 137.159 127.792 136.791 128.016C136.439 128.224 136.159 128.536 135.951 128.952C135.759 129.368 135.663 129.864 135.663 130.44V138H132.519ZM157.311 138.288C156.399 138.288 155.623 138.12 154.983 137.784C154.343 137.432 153.855 136.952 153.519 136.344C153.183 135.736 153.015 135.048 153.015 134.28C153.015 133 153.391 132.04 154.143 131.4C154.911 130.76 156.055 130.44 157.575 130.44H161.367V129.84C161.367 129.008 161.175 128.424 160.791 128.088C160.423 127.752 159.831 127.584 159.015 127.584C158.295 127.584 157.775 127.712 157.455 127.968C157.135 128.208 156.951 128.512 156.903 128.88H153.735C153.783 128.144 154.015 127.488 154.431 126.912C154.863 126.32 155.471 125.856 156.255 125.52C157.055 125.168 158.015 124.992 159.135 124.992C160.223 124.992 161.167 125.152 161.967 125.472C162.783 125.792 163.415 126.312 163.863 127.032C164.311 127.736 164.535 128.688 164.535 129.888V134.76C164.535 135.432 164.543 136.024 164.559 136.536C164.591 137.032 164.639 137.52 164.703 138H161.751C161.687 137.648 161.647 137.384 161.631 137.208C161.631 137.016 161.631 136.736 161.631 136.368C161.295 136.88 160.767 137.328 160.047 137.712C159.327 138.096 158.415 138.288 157.311 138.288ZM158.295 135.84C158.807 135.84 159.295 135.752 159.759 135.576C160.239 135.384 160.623 135.096 160.911 134.712C161.215 134.312 161.367 133.808 161.367 133.2V132.6H158.175C157.567 132.6 157.087 132.744 156.735 133.032C156.399 133.304 156.231 133.68 156.231 134.16C156.231 134.672 156.407 135.08 156.759 135.384C157.111 135.688 157.623 135.84 158.295 135.84Z" fill="#343434"/>
<path d="M72.1 177V165.8H79.14V167.112H73.604V177H72.1ZM78.9675 180.2V168.52H80.2795V170.12C80.5675 169.555 80.9675 169.123 81.4795 168.824C82.0022 168.515 82.6048 168.36 83.2875 168.36C84.3542 168.36 85.2075 168.712 85.8475 169.416C86.4875 170.109 86.8075 171.144 86.8075 172.52V172.84C86.8075 173.8 86.6582 174.6 86.3595 175.24C86.0715 175.88 85.6608 176.36 85.1275 176.68C84.6048 177 83.9915 177.16 83.2875 177.16C82.5622 177.16 81.9542 177 81.4635 176.68C80.9835 176.36 80.6208 175.96 80.3755 175.48V180.2H78.9675ZM82.9675 175.912C83.6608 175.912 84.2368 175.651 84.6955 175.128C85.1648 174.605 85.3995 173.843 85.3995 172.84V172.52C85.3995 171.592 85.1648 170.877 84.6955 170.376C84.2368 169.864 83.6608 169.608 82.9675 169.608C82.4555 169.608 82.0022 169.715 81.6075 169.928C81.2235 170.141 80.9195 170.435 80.6955 170.808C80.4822 171.171 80.3755 171.581 80.3755 172.04V173.32C80.3755 173.832 80.4822 174.285 80.6955 174.68C80.9195 175.064 81.2235 175.368 81.6075 175.592C82.0022 175.805 82.4555 175.912 82.9675 175.912ZM91.2273 177.16C90.6086 177.16 90.0806 177.048 89.6432 176.824C89.2166 176.589 88.8913 176.275 88.6673 175.88C88.4433 175.475 88.3313 175.021 88.3313 174.52C88.3313 173.677 88.5766 173.069 89.0673 172.696C89.5686 172.323 90.2833 172.136 91.2113 172.136H93.9633V171.56C93.9633 170.835 93.7979 170.333 93.4673 170.056C93.1473 169.779 92.6619 169.64 92.0113 169.64C91.4033 169.64 90.9606 169.757 90.6833 169.992C90.4059 170.216 90.2513 170.472 90.2193 170.76H88.8113C88.8433 170.301 88.9979 169.896 89.2753 169.544C89.5526 169.181 89.9313 168.893 90.4113 168.68C90.8913 168.467 91.4513 168.36 92.0913 168.36C92.7633 168.36 93.3446 168.467 93.8353 168.68C94.3259 168.883 94.7046 169.208 94.9713 169.656C95.2379 170.093 95.3713 170.675 95.3713 171.4V174.84C95.3713 175.288 95.3713 175.683 95.3713 176.024C95.3819 176.355 95.4086 176.68 95.4513 177H94.2193C94.1873 176.755 94.1659 176.525 94.1553 176.312C94.1446 176.088 94.1393 175.837 94.1393 175.56C93.9153 176.008 93.5526 176.387 93.0513 176.696C92.5499 177.005 91.9419 177.16 91.2273 177.16ZM91.5312 175.88C91.9793 175.88 92.3846 175.8 92.7473 175.64C93.1206 175.48 93.4139 175.245 93.6273 174.936C93.8513 174.627 93.9633 174.248 93.9633 173.8V173.224H91.4513C90.9286 173.224 90.5179 173.331 90.2193 173.544C89.9206 173.747 89.7713 174.072 89.7713 174.52C89.7713 174.915 89.9099 175.24 90.1873 175.496C90.4753 175.752 90.9233 175.88 91.5312 175.88ZM101.794 180.2V177.16C100.322 177.16 99.2021 176.787 98.4341 176.04C97.6768 175.293 97.2981 174.232 97.2981 172.856V172.536C97.2981 171.224 97.6768 170.2 98.4341 169.464C99.2021 168.728 100.322 168.36 101.794 168.36V165.8H103.202V168.36C104.674 168.36 105.789 168.728 106.546 169.464C107.314 170.2 107.698 171.224 107.698 172.536V172.856C107.698 174.232 107.314 175.293 106.546 176.04C105.789 176.787 104.674 177.16 103.202 177.16V180.2H101.794ZM106.258 172.856V172.536C106.258 171.565 106.007 170.84 105.506 170.36C105.015 169.88 104.242 169.64 103.186 169.64V175.88C104.242 175.88 105.015 175.635 105.506 175.144C106.007 174.653 106.258 173.891 106.258 172.856ZM98.7381 172.536V172.856C98.7381 173.891 98.9835 174.653 99.4741 175.144C99.9755 175.635 100.754 175.88 101.81 175.88V169.64C100.754 169.64 99.9755 169.88 99.4741 170.36C98.9835 170.84 98.7381 171.565 98.7381 172.536ZM110.509 177.16C110.307 177.16 110.12 177.107 109.949 177C109.779 176.904 109.64 176.771 109.533 176.6C109.437 176.429 109.389 176.243 109.389 176.04C109.389 175.72 109.496 175.453 109.709 175.24C109.933 175.027 110.2 174.92 110.509 174.92C110.819 174.92 111.08 175.027 111.293 175.24C111.517 175.453 111.629 175.72 111.629 176.04C111.629 176.243 111.576 176.429 111.469 176.6C111.373 176.771 111.24 176.904 111.069 177C110.909 177.107 110.723 177.16 110.509 177.16ZM118.186 180.2V168.52H119.498V170.12C119.786 169.555 120.186 169.123 120.698 168.824C121.221 168.515 121.824 168.36 122.506 168.36C123.573 168.36 124.426 168.712 125.066 169.416C125.706 170.109 126.026 171.144 126.026 172.52V172.84C126.026 173.8 125.877 174.6 125.578 175.24C125.29 175.88 124.88 176.36 124.346 176.68C123.824 177 123.21 177.16 122.506 177.16C121.781 177.16 121.173 177 120.682 176.68C120.202 176.36 119.84 175.96 119.594 175.48V180.2H118.186ZM122.186 175.912C122.88 175.912 123.456 175.651 123.914 175.128C124.384 174.605 124.618 173.843 124.618 172.84V172.52C124.618 171.592 124.384 170.877 123.914 170.376C123.456 169.864 122.88 169.608 122.186 169.608C121.674 169.608 121.221 169.715 120.826 169.928C120.442 170.141 120.138 170.435 119.914 170.808C119.701 171.171 119.594 171.581 119.594 172.04V173.32C119.594 173.832 119.701 174.285 119.914 174.68C120.138 175.064 120.442 175.368 120.826 175.592C121.221 175.805 121.674 175.912 122.186 175.912ZM131.55 177.16C130.835 177.16 130.163 177.005 129.534 176.696C128.915 176.387 128.414 175.912 128.03 175.272C127.657 174.632 127.47 173.821 127.47 172.84V172.52C127.47 171.581 127.651 170.808 128.014 170.2C128.377 169.581 128.857 169.123 129.454 168.824C130.051 168.515 130.697 168.36 131.39 168.36C132.638 168.36 133.603 168.701 134.286 169.384C134.969 170.067 135.31 171.032 135.31 172.28V173.176H128.878C128.878 173.837 129.011 174.365 129.278 174.76C129.555 175.155 129.897 175.443 130.302 175.624C130.718 175.795 131.134 175.88 131.55 175.88C132.19 175.88 132.681 175.773 133.022 175.56C133.374 175.347 133.625 175.053 133.774 174.68H135.15C134.979 175.491 134.558 176.109 133.886 176.536C133.225 176.952 132.446 177.16 131.55 177.16ZM131.47 169.64C131.033 169.64 130.617 169.725 130.222 169.896C129.827 170.056 129.502 170.312 129.246 170.664C129.001 171.016 128.878 171.469 128.878 172.024H133.982C133.971 171.437 133.849 170.973 133.614 170.632C133.39 170.28 133.091 170.029 132.718 169.88C132.345 169.72 131.929 169.64 131.47 169.64ZM136.195 179V175.752H137.235C137.395 175.539 137.534 175.181 137.651 174.68C137.768 174.168 137.859 173.571 137.923 172.888C137.998 172.205 138.035 171.496 138.035 170.76V168.52H143.955V175.752H145.155V179H143.811V177H137.539V179H136.195ZM138.675 175.752H142.547V169.768H139.411V171.08C139.411 171.976 139.347 172.845 139.219 173.688C139.102 174.52 138.92 175.208 138.675 175.752ZM149.415 177.16C148.796 177.16 148.268 177.048 147.831 176.824C147.404 176.589 147.079 176.275 146.855 175.88C146.631 175.475 146.519 175.021 146.519 174.52C146.519 173.677 146.764 173.069 147.255 172.696C147.756 172.323 148.471 172.136 149.399 172.136H152.151V171.56C152.151 170.835 151.985 170.333 151.655 170.056C151.335 169.779 150.849 169.64 150.199 169.64C149.591 169.64 149.148 169.757 148.871 169.992C148.593 170.216 148.439 170.472 148.407 170.76H146.999C147.031 170.301 147.185 169.896 147.463 169.544C147.74 169.181 148.119 168.893 148.599 168.68C149.079 168.467 149.639 168.36 150.279 168.36C150.951 168.36 151.532 168.467 152.023 168.68C152.513 168.883 152.892 169.208 153.159 169.656C153.425 170.093 153.559 170.675 153.559 171.4V174.84C153.559 175.288 153.559 175.683 153.559 176.024C153.569 176.355 153.596 176.68 153.639 177H152.407C152.375 176.755 152.353 176.525 152.343 176.312C152.332 176.088 152.327 175.837 152.327 175.56C152.103 176.008 151.74 176.387 151.239 176.696C150.737 177.005 150.129 177.16 149.415 177.16ZM149.719 175.88C150.167 175.88 150.572 175.8 150.935 175.64C151.308 175.48 151.601 175.245 151.815 174.936C152.039 174.627 152.151 174.248 152.151 173.8V173.224H149.639C149.116 173.224 148.705 173.331 148.407 173.544C148.108 173.747 147.959 174.072 147.959 174.52C147.959 174.915 148.097 175.24 148.375 175.496C148.663 175.752 149.111 175.88 149.719 175.88ZM156.046 177V168.52H157.454V172.072H158.574L161.742 168.52H163.406L159.726 172.584L163.566 177H161.774L158.574 173.288H157.454V177H156.046ZM167.185 177V169.768H164.289V168.52H171.489V169.768H168.593V177H167.185ZM176.456 177.16C175.742 177.16 175.07 177.005 174.44 176.696C173.822 176.376 173.32 175.896 172.936 175.256C172.563 174.616 172.376 173.811 172.376 172.84V172.52C172.376 171.603 172.563 170.835 172.936 170.216C173.32 169.597 173.822 169.133 174.44 168.824C175.07 168.515 175.742 168.36 176.456 168.36C177.182 168.36 177.854 168.515 178.472 168.824C179.091 169.133 179.587 169.597 179.96 170.216C180.344 170.835 180.536 171.603 180.536 172.52V172.84C180.536 173.811 180.344 174.616 179.96 175.256C179.587 175.896 179.091 176.376 178.472 176.696C177.854 177.005 177.182 177.16 176.456 177.16ZM176.456 175.88C176.894 175.88 177.31 175.784 177.704 175.592C178.11 175.389 178.44 175.064 178.696 174.616C178.963 174.168 179.096 173.576 179.096 172.84V172.52C179.096 171.837 178.963 171.288 178.696 170.872C178.44 170.445 178.11 170.136 177.704 169.944C177.31 169.741 176.894 169.64 176.456 169.64C176.03 169.64 175.614 169.741 175.208 169.944C174.803 170.136 174.467 170.445 174.2 170.872C173.944 171.288 173.816 171.837 173.816 172.52V172.84C173.816 173.576 173.944 174.168 174.2 174.616C174.467 175.064 174.803 175.389 175.208 175.592C175.614 175.784 176.03 175.88 176.456 175.88ZM182.53 180.2V168.52H183.842V170.12C184.13 169.555 184.53 169.123 185.042 168.824C185.565 168.515 186.167 168.36 186.85 168.36C187.917 168.36 188.77 168.712 189.41 169.416C190.05 170.109 190.37 171.144 190.37 172.52V172.84C190.37 173.8 190.221 174.6 189.922 175.24C189.634 175.88 189.223 176.36 188.69 176.68C188.167 177 187.554 177.16 186.85 177.16C186.125 177.16 185.517 177 185.026 176.68C184.546 176.36 184.183 175.96 183.938 175.48V180.2H182.53ZM186.53 175.912C187.223 175.912 187.799 175.651 188.258 175.128C188.727 174.605 188.962 173.843 188.962 172.84V172.52C188.962 171.592 188.727 170.877 188.258 170.376C187.799 169.864 187.223 169.608 186.53 169.608C186.018 169.608 185.565 169.715 185.17 169.928C184.786 170.141 184.482 170.435 184.258 170.808C184.045 171.171 183.938 171.581 183.938 172.04V173.32C183.938 173.832 184.045 174.285 184.258 174.68C184.482 175.064 184.786 175.368 185.17 175.592C185.565 175.805 186.018 175.912 186.53 175.912Z" fill="#7F7F7F"/>
<g filter="url(#filter1_b_2195_64)">
<path d="M57.5037 246.954C63.2268 237.079 73.7764 231 85.1901 231L175.81 231C187.224 231 197.773 237.079 203.496 246.954L248.701 324.954C254.452 334.878 254.452 347.122 248.701 357.046L203.496 435.046C197.773 444.921 187.224 451 175.81 451H85.1901C73.7764 451 63.2268 444.921 57.5037 435.046L12.2991 357.046C6.54775 347.122 6.54774 334.878 12.2991 324.954L57.5037 246.954Z" fill="white"/>
<path d="M85.1901 230.5C73.5981 230.5 62.8836 236.674 57.0711 246.704L11.8665 324.704C6.02528 334.783 6.02528 347.217 11.8665 357.296L57.0711 435.296C62.8836 445.326 73.5981 451.5 85.1901 451.5H175.81C187.402 451.5 198.116 445.326 203.929 435.296L249.133 357.296C254.975 347.217 254.975 334.783 249.133 324.704L203.929 246.704C198.116 236.674 187.402 230.5 175.81 230.5L85.1901 230.5Z" stroke="#1C9272"/>
</g>
<path fill-rule="evenodd" clip-rule="evenodd" d="M130.279 326.323C144.234 326.323 155.545 315.139 155.545 301.341C155.545 296.498 154.152 291.981 151.741 288.153C151.751 288.385 151.757 288.615 151.757 288.848C151.757 299.197 143.271 307.585 132.805 307.585C126.36 307.585 120.667 304.404 117.245 299.543C115.773 297.453 114.612 295.072 114.21 292.462C113.524 288.002 111.462 284.001 108.275 281.086C108.619 282.284 108.803 283.545 108.803 284.85C108.803 286.569 108.613 288.269 107.9 289.732C106.183 293.263 105.014 297.15 105.014 301.339C105.014 315.137 116.326 326.321 130.279 326.321V326.323Z" fill="url(#paint0_linear_2195_64)"/>
<path fill-rule="evenodd" clip-rule="evenodd" d="M134.932 300.927C142.386 300.927 148.426 294.938 148.426 287.549C148.426 286.408 148.28 285.271 147.991 284.166C147.883 284.501 147.77 284.818 147.652 285.12C147.582 285.143 147.513 285.166 147.444 285.187L147.374 285.21L147.326 285.225C146.833 284.094 146.184 283.035 145.398 282.079C145.529 281.327 145.733 280.598 146 279.898C144.755 278.122 143.091 276.672 141.15 275.674C139.21 274.676 137.053 274.16 134.865 274.171C132.677 274.182 130.525 274.718 128.595 275.735C126.664 276.751 125.014 278.217 123.787 280.005C124.049 280.71 124.246 281.442 124.37 282.197C123.62 283.131 122.999 284.159 122.525 285.255L122.374 285.208L122.303 285.187C122.234 285.165 122.166 285.143 122.098 285.12C121.999 284.871 121.907 284.619 121.822 284.365C121.566 285.407 121.437 286.476 121.438 287.548C121.438 294.937 127.479 300.926 134.931 300.926L134.932 300.927Z" fill="#FEFEFE"/>
<path fill-rule="evenodd" clip-rule="evenodd" d="M130.909 317.366C143.816 317.366 154.281 308.417 154.281 297.378C154.281 294.142 153.381 291.087 151.786 288.383C151.789 288.539 151.793 288.694 151.793 288.85C151.793 299.202 143.309 307.594 132.843 307.594C126.398 307.594 120.705 304.412 117.28 299.549C115.81 297.458 114.647 295.077 114.245 292.465C113.56 288.004 111.499 284.003 108.311 281.086C112.099 292.488 107.539 290.332 107.539 299.876C107.539 310.916 118.002 317.366 130.909 317.366Z" fill="url(#paint1_linear_2195_64)"/>
<path fill-rule="evenodd" clip-rule="evenodd" d="M113.511 289.589C112.529 286.291 110.756 283.359 108.311 281.086C108.655 282.311 108.83 283.577 108.829 284.849C108.829 286.566 108.64 288.266 107.94 289.727C107.59 290.458 107.263 291.203 106.965 291.964C107.438 293.551 107.806 295.511 107.65 297.525C109.41 293.113 111.642 290.8 113.512 289.589H113.511Z" fill="#E7EAEF" stroke="#EBECEC" stroke-width="0.2" stroke-miterlimit="22.926"/>
<path fill-rule="evenodd" clip-rule="evenodd" d="M149.846 271.677C150.133 277.435 149.553 282.421 148.305 285.624C148.234 285.137 148.135 284.654 148.009 284.177C148.762 281.853 149.211 278.779 149.301 275.255C147.839 276.527 146.712 278.131 146.017 279.929C145.43 279.102 144.75 278.343 143.991 277.667C145.247 275.106 147.298 273.008 149.846 271.678V271.677ZM119.9 271.677C119.611 277.49 120.203 282.516 121.476 285.714L121.539 285.736C121.604 285.274 121.692 284.818 121.802 284.373C121.011 282.027 120.537 278.881 120.446 275.255C121.937 276.553 123.079 278.196 123.771 280.036C124.354 279.196 125.031 278.425 125.791 277.739C124.538 275.146 122.473 273.02 119.9 271.677Z" fill="url(#paint2_linear_2195_64)"/>
<path fill-rule="evenodd" clip-rule="evenodd" d="M151.787 288.457V288.521L151.788 288.529V288.586L151.79 288.594V288.922C151.79 299.225 143.298 307.578 132.822 307.578C132.725 307.578 132.627 307.578 132.528 307.575H132.517C132.422 307.575 132.326 307.572 132.23 307.569H132.213L131.927 307.556H131.913L131.63 307.541H131.611L131.327 307.52H131.324L131.043 307.497L131.02 307.494C130.93 307.486 130.84 307.477 130.75 307.467L130.724 307.464C130.634 307.455 130.545 307.444 130.456 307.433L130.424 307.43C130.336 307.419 130.249 307.408 130.161 307.396L130.133 307.391C130.047 307.379 129.961 307.367 129.876 307.354L129.849 307.349C129.763 307.337 129.676 307.323 129.591 307.307L129.557 307.303L129.305 307.257L129.264 307.25L129.015 307.203L128.976 307.194C128.892 307.178 128.809 307.159 128.725 307.141L128.694 307.135L128.454 307.08L128.413 307.071L128.177 307.013L128.13 307.002C128.053 306.983 127.976 306.963 127.9 306.943L127.838 306.928C127.765 306.907 127.691 306.887 127.618 306.865L127.559 306.85C127.486 306.83 127.413 306.809 127.34 306.788L127.287 306.771L127.077 306.705L127.011 306.685C126.942 306.663 126.873 306.641 126.805 306.618L126.742 306.598L126.532 306.526L126.466 306.503C126.396 306.479 126.327 306.455 126.258 306.43V306.435C126.258 311.91 130.771 316.347 136.336 316.347C137.246 316.347 138.65 316.074 140.361 315.605C148.561 312.511 154.281 305.528 154.281 297.408C154.281 294.188 153.38 291.148 151.784 288.457H151.787Z" fill="#F45424"/>
<path fill-rule="evenodd" clip-rule="evenodd" d="M137.398 325.303C147.885 322.279 155.545 312.714 155.545 301.381C155.545 296.562 154.158 292.064 151.76 288.252V288.901C151.76 288.753 151.758 288.604 151.754 288.456L151.755 288.243L151.746 288.228L151.754 288.456C153.347 291.15 154.245 294.196 154.245 297.422C154.245 304.239 150.239 310.254 144.128 313.849C144.383 316.216 143.869 318.602 142.659 320.661C141.449 322.72 139.608 324.345 137.4 325.303H137.398Z" fill="url(#paint3_linear_2195_64)"/>
<path fill-rule="evenodd" clip-rule="evenodd" d="M134.932 300.927C142.386 300.927 148.426 294.938 148.426 287.549C148.426 286.408 148.28 285.271 147.991 284.166C147.883 284.501 147.77 284.818 147.652 285.12C147.582 285.143 147.513 285.166 147.444 285.187L147.374 285.21L147.326 285.225C146.833 284.094 146.184 283.035 145.398 282.079C145.529 281.327 145.733 280.598 146 279.898C144.755 278.122 143.091 276.672 141.15 275.674C139.21 274.676 137.053 274.16 134.865 274.171C132.677 274.182 130.525 274.718 128.595 275.735C126.664 276.751 125.014 278.217 123.787 280.005C124.049 280.71 124.246 281.442 124.37 282.197C123.62 283.131 122.999 284.159 122.525 285.255L122.374 285.208L122.303 285.187C122.234 285.165 122.166 285.143 122.098 285.12C121.999 284.871 121.907 284.619 121.822 284.365C121.566 285.407 121.437 286.476 121.438 287.548C121.438 294.937 127.479 300.926 134.931 300.926L134.932 300.927Z" fill="url(#paint4_radial_2195_64)"/>
<path fill-rule="evenodd" clip-rule="evenodd" d="M144.516 285.819C144.349 285.555 144.172 285.297 143.985 285.045C144.1 284.325 144.275 283.625 144.508 282.953C142.392 279.634 138.878 277.459 134.898 277.459C130.88 277.459 127.333 279.677 125.223 283.056C125.451 283.733 125.621 284.436 125.728 285.159C125.598 285.339 125.473 285.522 125.352 285.708L132.931 295.486H137.101L144.516 285.819Z" fill="url(#paint5_linear_2195_64)"/>
<path fill-rule="evenodd" clip-rule="evenodd" d="M145.441 282.002C140.755 282.365 136.786 285.17 134.922 289.09C133.042 285.137 129.022 282.317 124.285 281.993L124.325 282.222C123.572 283.151 122.95 284.175 122.473 285.268C122.423 285.252 122.372 285.237 122.322 285.221L122.251 285.199L122.125 285.159C122.85 291.48 128.302 296.393 134.922 296.393C141.597 296.393 147.085 291.396 147.736 285L147.684 285.132C147.616 285.156 147.547 285.179 147.477 285.199L147.406 285.222L147.356 285.238C146.861 284.111 146.21 283.056 145.423 282.105L145.441 282.002Z" fill="url(#paint6_radial_2195_64)"/>
<path fill-rule="evenodd" clip-rule="evenodd" d="M147.277 286.356C146.888 286.321 146.497 286.302 146.105 286.302C141.141 286.302 136.865 289.127 134.93 293.19C132.995 289.127 128.718 286.302 123.753 286.302C123.359 286.302 122.967 286.321 122.581 286.356C122.507 286.902 122.469 287.452 122.469 288.002C122.469 294.766 128.047 300.248 134.93 300.248C141.811 300.248 147.391 294.764 147.391 288.002C147.39 287.452 147.352 286.902 147.277 286.356Z" fill="#FEFEFE"/>
<path d="M80.74 368L86.98 351.2H90.556L96.82 368H93.028L91.732 364.568H85.516L84.244 368H80.74ZM86.62 361.592H90.652L88.636 355.76L86.62 361.592ZM98.5109 372.8V355.28H101.439V357.152C101.759 356.576 102.263 356.072 102.951 355.64C103.639 355.208 104.511 354.992 105.567 354.992C107.263 354.992 108.583 355.52 109.527 356.576C110.487 357.616 110.967 359.184 110.967 361.28V361.76C110.967 363.216 110.743 364.432 110.295 365.408C109.863 366.368 109.247 367.088 108.447 367.568C107.647 368.048 106.687 368.288 105.567 368.288C104.703 368.288 103.935 368.104 103.263 367.736C102.607 367.352 102.071 366.856 101.655 366.248V372.8H98.5109ZM104.823 365.6C105.655 365.6 106.351 365.288 106.911 364.664C107.471 364.024 107.751 363.056 107.751 361.76V361.28C107.751 360.08 107.479 359.184 106.935 358.592C106.407 357.984 105.703 357.68 104.823 357.68C104.215 357.68 103.671 357.8 103.191 358.04C102.711 358.264 102.335 358.608 102.063 359.072C101.791 359.52 101.655 360.096 101.655 360.8V362.24C101.655 362.992 101.783 363.624 102.039 364.136C102.311 364.632 102.687 365 103.167 365.24C103.647 365.48 104.199 365.6 104.823 365.6ZM113.277 372.8V355.28H116.205V357.152C116.525 356.576 117.029 356.072 117.717 355.64C118.405 355.208 119.277 354.992 120.333 354.992C122.029 354.992 123.349 355.52 124.293 356.576C125.253 357.616 125.733 359.184 125.733 361.28V361.76C125.733 363.216 125.509 364.432 125.061 365.408C124.629 366.368 124.013 367.088 123.213 367.568C122.413 368.048 121.453 368.288 120.333 368.288C119.469 368.288 118.701 368.104 118.029 367.736C117.373 367.352 116.837 366.856 116.421 366.248V372.8H113.277ZM119.589 365.6C120.421 365.6 121.117 365.288 121.677 364.664C122.237 364.024 122.517 363.056 122.517 361.76V361.28C122.517 360.08 122.245 359.184 121.701 358.592C121.173 357.984 120.469 357.68 119.589 357.68C118.981 357.68 118.437 357.8 117.957 358.04C117.477 358.264 117.101 358.608 116.829 359.072C116.557 359.52 116.421 360.096 116.421 360.8V362.24C116.421 362.992 116.549 363.624 116.805 364.136C117.077 364.632 117.453 365 117.933 365.24C118.413 365.48 118.965 365.6 119.589 365.6ZM132.458 368V354.176H127.058V351.2H141.434V354.176H136.034V368H132.458ZM145.24 368.288C144.328 368.288 143.552 368.12 142.912 367.784C142.272 367.432 141.784 366.952 141.448 366.344C141.112 365.736 140.944 365.048 140.944 364.28C140.944 363 141.32 362.04 142.072 361.4C142.84 360.76 143.984 360.44 145.504 360.44H149.296V359.84C149.296 359.008 149.104 358.424 148.72 358.088C148.352 357.752 147.76 357.584 146.944 357.584C146.224 357.584 145.704 357.712 145.384 357.968C145.064 358.208 144.88 358.512 144.832 358.88H141.664C141.712 358.144 141.944 357.488 142.36 356.912C142.792 356.32 143.4 355.856 144.184 355.52C144.984 355.168 145.944 354.992 147.064 354.992C148.152 354.992 149.096 355.152 149.896 355.472C150.712 355.792 151.344 356.312 151.792 357.032C152.24 357.736 152.464 358.688 152.464 359.888V364.76C152.464 365.432 152.472 366.024 152.488 366.536C152.52 367.032 152.568 367.52 152.632 368H149.68C149.616 367.648 149.576 367.384 149.56 367.208C149.56 367.016 149.56 366.736 149.56 366.368C149.224 366.88 148.696 367.328 147.976 367.712C147.256 368.096 146.344 368.288 145.24 368.288ZM146.224 365.84C146.736 365.84 147.224 365.752 147.688 365.576C148.168 365.384 148.552 365.096 148.84 364.712C149.144 364.312 149.296 363.808 149.296 363.2V362.6H146.104C145.496 362.6 145.016 362.744 144.664 363.032C144.328 363.304 144.16 363.68 144.16 364.16C144.16 364.672 144.336 365.08 144.688 365.384C145.04 365.688 145.552 365.84 146.224 365.84ZM160.389 368.288C159.349 368.288 158.477 368.184 157.773 367.976C157.069 367.752 156.485 367.456 156.021 367.088C155.573 366.704 155.237 366.272 155.013 365.792C154.805 365.312 154.677 364.808 154.629 364.28H157.797C157.877 364.696 158.125 365.04 158.541 365.312C158.957 365.568 159.573 365.696 160.389 365.696C161.317 365.696 161.981 365.568 162.381 365.312C162.781 365.056 162.981 364.728 162.981 364.328C162.981 364.04 162.893 363.808 162.717 363.632C162.541 363.44 162.229 363.28 161.781 363.152C161.333 363.008 160.701 362.864 159.885 362.72C159.181 362.624 158.533 362.496 157.941 362.336C157.365 362.16 156.853 361.92 156.405 361.616C155.957 361.312 155.605 360.936 155.349 360.488C155.109 360.024 154.989 359.464 154.989 358.808C154.989 358.104 155.197 357.464 155.613 356.888C156.045 356.312 156.661 355.856 157.461 355.52C158.277 355.168 159.253 354.992 160.389 354.992C161.621 354.992 162.605 355.184 163.341 355.568C164.077 355.952 164.629 356.448 164.997 357.056C165.365 357.664 165.589 358.312 165.669 359H162.501C162.373 358.536 162.125 358.184 161.757 357.944C161.389 357.704 160.933 357.584 160.389 357.584C159.589 357.584 159.013 357.712 158.661 357.968C158.325 358.208 158.157 358.512 158.157 358.88C158.157 359.264 158.341 359.56 158.709 359.768C159.093 359.976 159.869 360.16 161.037 360.32C161.757 360.416 162.421 360.56 163.029 360.752C163.653 360.928 164.197 361.168 164.661 361.472C165.125 361.776 165.485 362.16 165.741 362.624C166.013 363.072 166.149 363.624 166.149 364.28C166.149 365.064 165.933 365.76 165.501 366.368C165.085 366.96 164.445 367.432 163.581 367.784C162.733 368.12 161.669 368.288 160.389 368.288ZM168.425 368V351.2H171.569V360.512L176.273 355.28H179.897L175.025 360.728L180.377 368H176.729L172.985 362.816L171.569 364.328V368H168.425Z" fill="#343434"/>
<path d="M86.208 407V397.112H82.32V395.8H91.6V397.112H87.712V407H86.208ZM94.1804 407.16C93.5617 407.16 93.0337 407.048 92.5964 406.824C92.1697 406.589 91.8444 406.275 91.6204 405.88C91.3964 405.475 91.2844 405.021 91.2844 404.52C91.2844 403.677 91.5297 403.069 92.0204 402.696C92.5217 402.323 93.2364 402.136 94.1644 402.136H96.9164V401.56C96.9164 400.835 96.751 400.333 96.4204 400.056C96.1004 399.779 95.615 399.64 94.9644 399.64C94.3564 399.64 93.9137 399.757 93.6364 399.992C93.359 400.216 93.2044 400.472 93.1724 400.76H91.7644C91.7964 400.301 91.951 399.896 92.2284 399.544C92.5057 399.181 92.8844 398.893 93.3644 398.68C93.8444 398.467 94.4044 398.36 95.0444 398.36C95.7164 398.36 96.2977 398.467 96.7884 398.68C97.279 398.883 97.6577 399.208 97.9244 399.656C98.191 400.093 98.3244 400.675 98.3244 401.4V404.84C98.3244 405.288 98.3244 405.683 98.3244 406.024C98.335 406.355 98.3617 406.68 98.4044 407H97.1724C97.1404 406.755 97.119 406.525 97.1084 406.312C97.0977 406.088 97.0924 405.837 97.0924 405.56C96.8684 406.008 96.5057 406.387 96.0044 406.696C95.503 407.005 94.895 407.16 94.1804 407.16ZM94.4844 405.88C94.9324 405.88 95.3377 405.8 95.7004 405.64C96.0737 405.48 96.367 405.245 96.5804 404.936C96.8044 404.627 96.9164 404.248 96.9164 403.8V403.224H94.4044C93.8817 403.224 93.471 403.331 93.1724 403.544C92.8737 403.747 92.7244 404.072 92.7244 404.52C92.7244 404.915 92.863 405.24 93.1404 405.496C93.4284 405.752 93.8764 405.88 94.4844 405.88ZM100.811 407V398.52H102.219V404.92L106.603 398.52H108.011V407H106.603V400.6L102.219 407H100.811ZM104.411 397.48C103.579 397.48 102.971 397.304 102.587 396.952C102.203 396.589 102.011 396.072 102.011 395.4H103.387C103.387 395.763 103.473 396.035 103.643 396.216C103.814 396.397 104.07 396.488 104.411 396.488C104.763 396.488 105.025 396.397 105.195 396.216C105.377 396.035 105.467 395.763 105.467 395.4H106.811C106.811 396.072 106.619 396.589 106.235 396.952C105.851 397.304 105.243 397.48 104.411 397.48ZM110.577 407V398.52H112.081L115.105 403.8L118.129 398.52H119.537V407H118.129V400.84L115.617 405.16H114.497L111.985 400.84V407H110.577ZM128.029 407V399.768H125.133V398.52H132.333V399.768H129.437V407H128.029ZM133.936 410.2V398.52H135.248V400.12C135.536 399.555 135.936 399.123 136.448 398.824C136.971 398.515 137.574 398.36 138.256 398.36C139.323 398.36 140.176 398.712 140.816 399.416C141.456 400.109 141.776 401.144 141.776 402.52V402.84C141.776 403.8 141.627 404.6 141.328 405.24C141.04 405.88 140.63 406.36 140.096 406.68C139.574 407 138.96 407.16 138.256 407.16C137.531 407.16 136.923 407 136.432 406.68C135.952 406.36 135.59 405.96 135.344 405.48V410.2H133.936ZM137.936 405.912C138.63 405.912 139.206 405.651 139.664 405.128C140.134 404.605 140.368 403.843 140.368 402.84V402.52C140.368 401.592 140.134 400.877 139.664 400.376C139.206 399.864 138.63 399.608 137.936 399.608C137.424 399.608 136.971 399.715 136.576 399.928C136.192 400.141 135.888 400.435 135.664 400.808C135.451 401.171 135.344 401.581 135.344 402.04V403.32C135.344 403.832 135.451 404.285 135.664 404.68C135.888 405.064 136.192 405.368 136.576 405.592C136.971 405.805 137.424 405.912 137.936 405.912ZM147.3 407.16C146.585 407.16 145.913 407.005 145.284 406.696C144.665 406.387 144.164 405.912 143.78 405.272C143.407 404.632 143.22 403.821 143.22 402.84V402.52C143.22 401.581 143.401 400.808 143.764 400.2C144.127 399.581 144.607 399.123 145.204 398.824C145.801 398.515 146.447 398.36 147.14 398.36C148.388 398.36 149.353 398.701 150.036 399.384C150.719 400.067 151.06 401.032 151.06 402.28V403.176H144.628C144.628 403.837 144.761 404.365 145.028 404.76C145.305 405.155 145.647 405.443 146.052 405.624C146.468 405.795 146.884 405.88 147.3 405.88C147.94 405.88 148.431 405.773 148.772 405.56C149.124 405.347 149.375 405.053 149.524 404.68H150.9C150.729 405.491 150.308 406.109 149.636 406.536C148.975 406.952 148.196 407.16 147.3 407.16ZM147.22 399.64C146.783 399.64 146.367 399.725 145.972 399.896C145.577 400.056 145.252 400.312 144.996 400.664C144.751 401.016 144.628 401.469 144.628 402.024H149.732C149.721 401.437 149.599 400.973 149.364 400.632C149.14 400.28 148.841 400.029 148.468 399.88C148.095 399.72 147.679 399.64 147.22 399.64ZM153.061 407V398.52H154.469V402.072H155.589L158.757 398.52H160.421L156.741 402.584L160.581 407H158.789L155.589 403.288H154.469V407H153.061ZM165.472 407.16C164.757 407.16 164.085 407.005 163.456 406.696C162.837 406.387 162.336 405.912 161.952 405.272C161.579 404.632 161.392 403.821 161.392 402.84V402.52C161.392 401.581 161.573 400.808 161.936 400.2C162.299 399.581 162.779 399.123 163.376 398.824C163.973 398.515 164.619 398.36 165.312 398.36C166.56 398.36 167.525 398.701 168.208 399.384C168.891 400.067 169.232 401.032 169.232 402.28V403.176H162.8C162.8 403.837 162.933 404.365 163.2 404.76C163.477 405.155 163.819 405.443 164.224 405.624C164.64 405.795 165.056 405.88 165.472 405.88C166.112 405.88 166.603 405.773 166.944 405.56C167.296 405.347 167.547 405.053 167.696 404.68H169.072C168.901 405.491 168.48 406.109 167.808 406.536C167.147 406.952 166.368 407.16 165.472 407.16ZM165.392 399.64C164.955 399.64 164.539 399.725 164.144 399.896C163.749 400.056 163.424 400.312 163.168 400.664C162.923 401.016 162.8 401.469 162.8 402.024H167.904C167.893 401.437 167.771 400.973 167.536 400.632C167.312 400.28 167.013 400.029 166.64 399.88C166.267 399.72 165.851 399.64 165.392 399.64ZM171.233 410.2V398.52H172.545V400.12C172.833 399.555 173.233 399.123 173.745 398.824C174.268 398.515 174.87 398.36 175.553 398.36C176.62 398.36 177.473 398.712 178.113 399.416C178.753 400.109 179.073 401.144 179.073 402.52V402.84C179.073 403.8 178.924 404.6 178.625 405.24C178.337 405.88 177.926 406.36 177.393 406.68C176.87 407 176.257 407.16 175.553 407.16C174.828 407.16 174.22 407 173.729 406.68C173.249 406.36 172.886 405.96 172.641 405.48V410.2H171.233ZM175.233 405.912C175.926 405.912 176.502 405.651 176.961 405.128C177.43 404.605 177.665 403.843 177.665 402.84V402.52C177.665 401.592 177.43 400.877 176.961 400.376C176.502 399.864 175.926 399.608 175.233 399.608C174.721 399.608 174.268 399.715 173.873 399.928C173.489 400.141 173.185 400.435 172.961 400.808C172.748 401.171 172.641 401.581 172.641 402.04V403.32C172.641 403.832 172.748 404.285 172.961 404.68C173.185 405.064 173.489 405.368 173.873 405.592C174.268 405.805 174.721 405.912 175.233 405.912Z" fill="#7F7F7F"/>
<g filter="url(#filter2_b_2195_64)">
<path d="M64.5037 476.954C70.2268 467.079 80.7764 461 92.1901 461L182.81 461C194.224 461 204.773 467.079 210.496 476.954L255.701 554.954C261.452 564.878 261.452 577.122 255.701 587.046L210.496 665.046C204.773 674.921 194.224 681 182.81 681H92.1901C80.7764 681 70.2268 674.921 64.5037 665.046L19.2991 587.046C13.5477 577.122 13.5477 564.878 19.2991 554.954L64.5037 476.954Z" fill="white"/>
<path d="M92.1901 460.5C80.5981 460.5 69.8836 466.674 64.0711 476.704L18.8665 554.704C13.0253 564.783 13.0253 577.217 18.8665 587.296L64.0711 665.296C69.8836 675.326 80.5981 681.5 92.1901 681.5H182.81C194.402 681.5 205.116 675.326 210.929 665.296L256.133 587.296C261.975 577.217 261.975 564.783 256.133 554.704L210.929 476.704C205.116 466.674 194.402 460.5 182.81 460.5L92.1901 460.5Z" stroke="#1C9272"/>
</g>
<path fill-rule="evenodd" clip-rule="evenodd" d="M121.85 556.577C122.486 556.896 123.155 557 124.408 557C125.854 557 126.712 556.839 128.159 556.25C128.827 555.968 129.818 555.468 130.731 554.945C131.093 554.731 131.449 554.51 131.776 554.294C133.035 553.49 134.697 552.204 135.5 551.454L136.92 550.087L136.961 550.124L137.001 550.087C138.679 551.627 139.979 552.702 140.987 553.45C141.415 553.757 141.841 554.048 142.226 554.294C143.305 555.006 144.699 555.777 146.509 556.505C147.585 556.887 148.383 557 149.594 557C151.014 557 151.684 556.866 152.408 556.437C152.853 556.156 153.463 555.731 153.823 555.414C153.875 555.368 153.921 555.325 153.962 555.285C154.266 555.027 154.735 554.38 155.081 553.773C155.131 553.686 155.177 553.6 155.221 553.517C155.502 552.931 155.866 551.955 156.06 551.199C156.088 551.091 156.112 550.988 156.132 550.891C156.293 550.141 156.427 548.56 156.427 547.408C156.427 546.282 156.266 544.326 156.025 543.067C155.81 541.808 155.596 540.495 155.569 540.173C155.569 540.173 155.569 540.173 155.569 540.173C155.494 539.646 155.678 539.471 157.29 538.922C157.398 538.885 157.512 538.847 157.632 538.807C158.664 538.455 160.311 537.755 161.55 537.136C161.727 537.048 161.896 536.961 162.053 536.878C163.132 536.315 164.559 535.362 165.438 534.648C165.563 534.546 165.677 534.449 165.778 534.359C166.505 533.679 167.272 532.732 167.704 531.986C167.766 531.879 167.821 531.777 167.868 531.679C168.243 530.849 168.484 529.831 168.484 529C168.484 528.169 168.243 527.151 167.868 526.321C167.493 525.544 166.608 524.418 165.778 523.641C164.974 522.891 163.286 521.766 162.053 521.122C160.794 520.453 158.811 519.595 157.632 519.193C156.186 518.711 155.703 518.5 155.586 518.187C155.547 518.083 155.549 517.967 155.569 517.827C155.594 517.525 155.784 516.353 155.985 515.17C155.998 515.091 156.011 515.012 156.025 514.933C156.266 513.674 156.427 511.718 156.427 510.566C156.427 510.284 156.418 509.974 156.403 509.656C156.358 508.701 156.252 507.672 156.132 507.109C155.971 506.332 155.542 505.153 155.221 504.483C154.873 503.813 154.31 503.01 153.962 502.715C153.962 502.715 153.962 502.715 153.962 502.715C153.64 502.393 152.917 501.884 152.408 501.563C151.684 501.134 151.014 501 149.594 501C148.193 501 147.344 501.151 145.978 501.696C145.928 501.716 145.876 501.737 145.825 501.758C144.804 502.19 143.05 503.121 141.958 503.867C140.859 504.59 139.278 505.823 137.001 507.94L136.475 507.414C135.257 506.326 134.296 505.516 133.529 504.909C133.435 504.837 133.342 504.767 133.25 504.698C132.499 504.135 131.542 503.506 130.717 503.02C129.892 502.565 128.978 502.115 128.293 501.831C126.685 501.161 125.908 501 124.408 501C122.988 501 122.318 501.134 121.594 501.563M121.85 556.577C120.849 555.947 120.306 555.552 120.04 555.285C119.997 555.248 119.95 555.204 119.9 555.152C119.554 554.792 119.086 554.103 118.781 553.517C118.741 553.433 118.699 553.341 118.656 553.243C118.356 552.558 118.01 551.571 117.87 550.891C117.85 550.797 117.83 550.69 117.811 550.573C117.678 549.752 117.575 548.416 117.575 547.408C117.575 546.423 117.698 544.802 117.89 543.569C117.918 543.393 117.947 543.224 117.977 543.067C118.138 542.122 118.298 541.148 118.38 540.584C118.407 540.396 118.426 540.254 118.432 540.173C118.513 539.611 118.298 539.45 116.369 538.807C116.222 538.756 116.062 538.699 115.892 538.636C114.706 538.193 113.05 537.464 111.948 536.878C111.794 536.797 111.633 536.709 111.467 536.614C110.307 535.953 108.927 534.992 108.224 534.359C108.12 534.262 108.015 534.159 107.911 534.052C107.18 533.306 106.462 532.359 106.134 531.679C106.087 531.576 106.042 531.469 106 531.36C105.702 530.597 105.518 529.727 105.518 529C105.518 528.169 105.759 527.151 106.134 526.321C106.509 525.544 107.393 524.418 108.224 523.641C109.028 522.891 110.716 521.766 111.948 521.122C113.208 520.453 115.19 519.595 116.369 519.193C118.298 518.55 118.513 518.389 118.432 517.827C118.426 517.746 118.407 517.604 118.38 517.416C118.298 516.852 118.138 515.878 117.977 514.933C117.947 514.776 117.918 514.607 117.89 514.431C117.698 513.197 117.575 511.574 117.575 510.566C117.575 509.44 117.709 507.859 117.87 507.109C118.03 506.332 118.459 505.153 118.781 504.483C119.129 503.813 119.692 503.01 120.04 502.715C120.362 502.393 121.085 501.884 121.594 501.563M127.141 504.242C126.283 503.921 125.077 503.679 124.461 503.679C123.818 503.679 122.961 503.894 122.505 504.162C122.076 504.403 121.433 505.18 121.112 505.823C120.656 506.68 120.442 507.699 120.335 509.44C120.228 511.101 120.308 512.602 120.603 514.397C120.844 515.79 121.112 517.103 121.192 517.344C121.299 517.693 121.541 517.693 122.987 517.398C123.898 517.237 125.801 516.943 127.194 516.755L129.74 516.46C131.615 513.915 132.821 512.414 133.625 511.477L135.098 509.735C133.035 507.94 131.588 506.841 130.543 506.118C129.525 505.421 127.971 504.59 127.141 504.242ZM151.443 504.162C150.987 503.867 150.13 503.679 149.433 503.679C148.79 503.679 147.504 503.974 146.62 504.349C145.736 504.698 144.235 505.555 143.271 506.198C142.333 506.868 140.94 507.94 140.189 508.583L138.85 509.735C141.154 512.414 142.36 513.915 143.003 514.826L144.208 516.46C148.174 516.943 150.05 517.237 150.987 517.398C152.434 517.693 152.675 517.693 152.783 517.344C152.863 517.103 153.104 515.79 153.345 514.397C153.667 512.602 153.747 511.101 153.64 509.44C153.506 507.699 153.292 506.68 152.863 505.823C152.515 505.18 151.898 504.403 151.443 504.162ZM138.635 513.674C137.885 512.763 137.135 512.012 136.974 512.012C136.84 512.012 136.09 512.763 135.34 513.674C134.563 514.585 133.866 515.522 133.786 515.79C133.652 516.219 133.919 516.273 136.974 516.273C140.055 516.273 140.323 516.219 140.163 515.79C140.082 515.522 139.386 514.585 138.635 513.674ZM144.128 521.149L142.735 518.952H131.267L129.632 521.551C128.721 522.998 127.435 525.249 126.739 526.589L125.506 529C127.784 533.341 129.07 535.618 129.847 536.824L131.213 539.048H142.735C145.253 534.975 146.54 532.724 147.209 531.411L148.469 529C146.164 524.633 144.878 522.355 144.128 521.149ZM127.462 519.836C127.623 519.595 127.516 519.488 127.114 519.515C126.792 519.515 125.56 519.702 124.381 519.917C123.202 520.158 122.237 520.372 122.237 520.426C122.21 520.506 122.452 521.31 122.746 522.221C123.041 523.159 123.443 524.338 123.63 524.847L124.006 525.785C124.63 524.702 125.149 523.8 125.579 523.054C126.882 520.79 127.361 519.957 127.462 519.836ZM150.318 520.104C149.46 519.917 148.174 519.702 147.477 519.595C146.379 519.434 146.218 519.461 146.459 519.783C146.593 519.997 147.451 521.417 148.335 522.971L149.969 525.785C150.425 524.552 150.853 523.427 151.202 522.516C151.577 521.578 151.845 520.747 151.872 520.64C151.872 520.506 151.175 520.292 150.318 520.104ZM119.745 522.114C119.558 521.551 119.343 521.096 119.236 521.122C119.129 521.122 117.95 521.524 116.61 522.007C115.297 522.489 113.475 523.266 112.591 523.775C111.707 524.284 110.448 525.249 109.751 525.919C109.001 526.669 108.465 527.473 108.331 528.062C108.224 528.571 108.197 529.402 108.277 529.884C108.385 530.42 108.92 531.224 109.724 532.028C110.421 532.751 111.787 533.743 112.725 534.278C113.69 534.814 115.565 535.618 116.878 536.074C118.754 536.717 119.343 536.851 119.504 536.583C119.611 536.395 119.692 536.127 119.692 535.967C119.719 535.833 120.308 534.198 121.058 532.349L122.398 529C120.576 524.445 119.906 522.65 119.745 522.114ZM157.15 521.926C155.864 521.471 154.739 521.096 154.685 521.096C154.605 521.096 154.471 521.364 154.39 521.712C154.283 522.033 153.613 523.802 152.89 525.651L151.55 529C153.399 533.582 154.069 535.35 154.23 535.913C154.39 536.449 154.605 536.904 154.658 536.904C154.739 536.904 155.864 536.529 157.15 536.074C158.436 535.618 160.285 534.814 161.223 534.278C162.187 533.743 163.554 532.751 164.251 532.028C165.028 531.224 165.59 530.42 165.671 529.884C165.778 529.402 165.751 528.571 165.644 528.062C165.51 527.473 164.974 526.669 164.197 525.919C163.527 525.222 162.187 524.257 161.223 523.722C160.285 523.186 158.436 522.382 157.15 521.926ZM125.667 535.056L124.113 532.269L123.764 533.046C123.55 533.475 123.095 534.573 122.746 535.511C122.398 536.422 122.103 537.253 122.103 537.387C122.103 537.494 122.8 537.708 123.657 537.896C124.488 538.083 125.801 538.298 126.524 538.405C127.676 538.566 127.81 538.539 127.569 538.217C127.382 538.003 126.524 536.583 125.667 535.056ZM151.014 534.975C150.559 533.743 150.05 532.644 149.942 532.483C149.782 532.305 149.701 532.305 149.701 532.483C149.701 532.644 148.924 534.091 147.933 535.699L146.191 538.646C148.174 538.324 149.46 538.083 150.318 537.896C151.148 537.735 151.845 537.494 151.845 537.387C151.845 537.279 151.47 536.181 151.014 534.975ZM129.74 541.54C125.801 541.057 123.872 540.763 122.934 540.575C121.407 540.254 121.219 540.254 121.139 540.629C121.085 540.87 120.844 542.21 120.603 543.603C120.308 545.398 120.201 546.872 120.335 548.56C120.442 550.301 120.656 551.32 121.085 552.177C121.433 552.82 122.05 553.57 122.505 553.838C122.934 554.106 123.818 554.321 124.434 554.321C125.077 554.321 126.283 554.053 127.114 553.731C127.971 553.41 129.498 552.579 130.543 551.882C131.562 551.159 133.008 550.06 133.759 549.417L135.098 548.238C132.821 545.559 131.615 544.058 130.945 543.174L129.74 541.54ZM153.319 543.603C153.077 542.076 152.783 540.682 152.675 540.522C152.568 540.343 152.023 540.352 151.041 540.548C150.237 540.736 148.362 541.004 146.888 541.191L144.208 541.54C142.333 544.058 141.127 545.559 140.323 546.523L138.85 548.238C140.913 550.06 142.36 551.159 143.405 551.882C144.423 552.579 145.977 553.41 146.808 553.731C147.665 554.053 148.871 554.321 149.487 554.321C150.13 554.321 150.987 554.106 151.443 553.838C151.872 553.57 152.515 552.82 152.836 552.177C153.265 551.346 153.506 550.275 153.613 548.694C153.747 547.086 153.667 545.612 153.319 543.603ZM140.163 542.21C140.297 541.781 140.029 541.727 136.92 541.727C133.812 541.727 133.544 541.781 133.732 542.21C133.839 542.451 134.563 543.415 135.313 544.326C136.09 545.237 136.813 545.988 136.974 545.988C137.108 545.988 137.858 545.237 138.635 544.326C139.386 543.415 140.082 542.451 140.163 542.21Z" fill="#61DAFB"/>
<path d="M133.169 524.954C133.491 524.632 134.134 524.177 134.589 523.963C135.045 523.721 136.063 523.534 136.92 523.507C137.938 523.507 138.823 523.695 139.466 524.016C140.028 524.284 140.752 524.82 141.047 525.168C141.368 525.49 141.824 526.187 142.065 526.642C142.306 527.151 142.493 528.169 142.493 529C142.493 529.831 142.306 530.849 142.065 531.331C141.824 531.813 141.368 532.51 141.047 532.831C140.752 533.18 140.028 533.716 139.493 533.984C138.849 534.305 137.912 534.493 137.001 534.493C136.09 534.493 135.152 534.305 134.509 533.984C133.973 533.716 133.249 533.18 132.955 532.831C132.633 532.51 132.178 531.813 131.937 531.331C131.695 530.849 131.508 529.831 131.508 529C131.508 528.089 131.695 527.151 132.017 526.508C132.285 525.972 132.821 525.249 133.169 524.954Z" fill="#61DAFB"/>
<path d="M64.944 598V581.2H71.736C73.144 581.2 74.312 581.424 75.24 581.872C76.184 582.32 76.896 582.952 77.376 583.768C77.856 584.568 78.096 585.512 78.096 586.6C78.096 587.752 77.8 588.76 77.208 589.624C76.616 590.472 75.712 591.088 74.496 591.472L78.576 598H74.424L70.896 591.856H68.52V598H64.944ZM68.52 589.024H71.04C72.368 589.024 73.28 588.824 73.776 588.424C74.272 588.008 74.52 587.4 74.52 586.6C74.52 585.8 74.272 585.2 73.776 584.8C73.28 584.384 72.368 584.176 71.04 584.176H68.52V589.024ZM86.4188 598.288C85.2668 598.288 84.2028 598.056 83.2268 597.592C82.2668 597.112 81.4988 596.392 80.9228 595.432C80.3468 594.456 80.0588 593.232 80.0588 591.76V591.28C80.0588 589.872 80.3308 588.704 80.8748 587.776C81.4348 586.848 82.1788 586.152 83.1068 585.688C84.0348 585.224 85.0588 584.992 86.1788 584.992C88.1788 584.992 89.6988 585.52 90.7388 586.576C91.7788 587.632 92.2988 589.16 92.2988 591.16V592.504H83.2988C83.3308 593.256 83.4908 593.872 83.7788 594.352C84.0828 594.816 84.4668 595.16 84.9308 595.384C85.3948 595.592 85.8908 595.696 86.4188 595.696C87.2348 595.696 87.8508 595.576 88.2668 595.336C88.6828 595.096 88.9788 594.744 89.1548 594.28H92.0588C91.8028 595.608 91.1708 596.608 90.1628 597.28C89.1548 597.952 87.9068 598.288 86.4188 598.288ZM86.2988 587.584C85.8028 587.584 85.3228 587.664 84.8588 587.824C84.3948 587.984 84.0268 588.272 83.7548 588.688C83.4828 589.088 83.3308 589.624 83.2988 590.296H89.2268C89.2108 589.576 89.0668 589.024 88.7948 588.64C88.5388 588.24 88.1948 587.968 87.7628 587.824C87.3308 587.664 86.8428 587.584 86.2988 587.584ZM98.3966 598.288C97.4846 598.288 96.7086 598.12 96.0686 597.784C95.4286 597.432 94.9406 596.952 94.6046 596.344C94.2686 595.736 94.1006 595.048 94.1006 594.28C94.1006 593 94.4766 592.04 95.2286 591.4C95.9966 590.76 97.1406 590.44 98.6606 590.44H102.453V589.84C102.453 589.008 102.261 588.424 101.877 588.088C101.509 587.752 100.917 587.584 100.101 587.584C99.3806 587.584 98.8606 587.712 98.5406 587.968C98.2206 588.208 98.0366 588.512 97.9886 588.88H94.8206C94.8686 588.144 95.1006 587.488 95.5166 586.912C95.9486 586.32 96.5566 585.856 97.3406 585.52C98.1406 585.168 99.1006 584.992 100.221 584.992C101.309 584.992 102.253 585.152 103.053 585.472C103.869 585.792 104.501 586.312 104.949 587.032C105.397 587.736 105.621 588.688 105.621 589.888V594.76C105.621 595.432 105.629 596.024 105.645 596.536C105.677 597.032 105.725 597.52 105.789 598H102.837C102.773 597.648 102.733 597.384 102.717 597.208C102.717 597.016 102.717 596.736 102.717 596.368C102.381 596.88 101.853 597.328 101.133 597.712C100.413 598.096 99.5006 598.288 98.3966 598.288ZM99.3806 595.84C99.8926 595.84 100.381 595.752 100.845 595.576C101.325 595.384 101.709 595.096 101.997 594.712C102.301 594.312 102.453 593.808 102.453 593.2V592.6H99.2606C98.6526 592.6 98.1726 592.744 97.8206 593.032C97.4846 593.304 97.3166 593.68 97.3166 594.16C97.3166 594.672 97.4926 595.08 97.8446 595.384C98.1966 595.688 98.7086 595.84 99.3806 595.84ZM114.025 598.288C112.857 598.288 111.801 598.048 110.857 597.568C109.913 597.072 109.161 596.344 108.601 595.384C108.057 594.408 107.785 593.2 107.785 591.76V591.28C107.785 589.904 108.073 588.752 108.649 587.824C109.225 586.896 109.985 586.192 110.929 585.712C111.873 585.232 112.905 584.992 114.025 584.992C115.225 584.992 116.241 585.192 117.073 585.592C117.905 585.992 118.545 586.544 118.993 587.248C119.457 587.952 119.721 588.728 119.785 589.576H116.569C116.441 589 116.177 588.544 115.777 588.208C115.393 587.856 114.809 587.68 114.025 587.68C113.481 587.68 112.977 587.808 112.513 588.064C112.065 588.32 111.697 588.712 111.409 589.24C111.137 589.768 111.001 590.448 111.001 591.28V591.76C111.001 592.656 111.129 593.392 111.385 593.968C111.657 594.528 112.017 594.944 112.465 595.216C112.929 595.472 113.449 595.6 114.025 595.6C114.649 595.6 115.185 595.44 115.633 595.12C116.097 594.784 116.409 594.312 116.569 593.704H119.785C119.689 594.616 119.385 595.424 118.873 596.128C118.361 596.832 117.681 597.368 116.833 597.736C116.001 598.104 115.065 598.288 114.025 598.288ZM127.092 598.144C126.1 598.144 125.284 598.008 124.644 597.736C124.004 597.448 123.532 596.992 123.228 596.368C122.94 595.744 122.796 594.936 122.796 593.944V587.92H121.092V585.28H122.796V582.4H125.94V585.28H129.012V587.92H125.94V593.44C125.94 594.16 126.068 594.68 126.324 595C126.596 595.304 127.092 595.456 127.812 595.456C128.292 595.456 128.772 595.432 129.252 595.384V598.024C128.948 598.056 128.628 598.08 128.292 598.096C127.972 598.128 127.572 598.144 127.092 598.144ZM134.478 598.288C134.11 598.288 133.766 598.192 133.446 598C133.142 597.824 132.894 597.576 132.702 597.256C132.526 596.936 132.438 596.6 132.438 596.248C132.438 595.656 132.638 595.168 133.038 594.784C133.438 594.4 133.918 594.208 134.478 594.208C135.038 594.208 135.518 594.4 135.918 594.784C136.318 595.168 136.518 595.656 136.518 596.248C136.518 596.6 136.422 596.936 136.23 597.256C136.054 597.576 135.814 597.824 135.51 598C135.206 598.192 134.862 598.288 134.478 598.288ZM139.652 598V585.28H142.532V587.152C142.852 586.576 143.348 586.072 144.02 585.64C144.692 585.208 145.612 584.992 146.78 584.992C148.332 584.992 149.484 585.408 150.236 586.24C151.004 587.072 151.388 588.272 151.388 589.84V598H148.22V590.56C148.22 589.616 148.02 588.904 147.62 588.424C147.236 587.928 146.572 587.68 145.628 587.68C144.956 587.68 144.412 587.816 143.996 588.088C143.58 588.36 143.276 588.712 143.084 589.144C142.892 589.576 142.796 590.048 142.796 590.56V598H139.652ZM157.975 598.288C157.063 598.288 156.287 598.12 155.647 597.784C155.007 597.432 154.519 596.952 154.183 596.344C153.847 595.736 153.679 595.048 153.679 594.28C153.679 593 154.055 592.04 154.807 591.4C155.575 590.76 156.719 590.44 158.239 590.44H162.031V589.84C162.031 589.008 161.839 588.424 161.455 588.088C161.087 587.752 160.495 587.584 159.679 587.584C158.959 587.584 158.439 587.712 158.119 587.968C157.799 588.208 157.615 588.512 157.567 588.88H154.399C154.447 588.144 154.679 587.488 155.095 586.912C155.527 586.32 156.135 585.856 156.919 585.52C157.719 585.168 158.679 584.992 159.799 584.992C160.887 584.992 161.831 585.152 162.631 585.472C163.447 585.792 164.079 586.312 164.527 587.032C164.975 587.736 165.199 588.688 165.199 589.888V594.76C165.199 595.432 165.207 596.024 165.223 596.536C165.255 597.032 165.303 597.52 165.367 598H162.415C162.351 597.648 162.311 597.384 162.295 597.208C162.295 597.016 162.295 596.736 162.295 596.368C161.959 596.88 161.431 597.328 160.711 597.712C159.991 598.096 159.079 598.288 157.975 598.288ZM158.959 595.84C159.471 595.84 159.959 595.752 160.423 595.576C160.903 595.384 161.287 595.096 161.575 594.712C161.879 594.312 162.031 593.808 162.031 593.2V592.6H158.839C158.231 592.6 157.751 592.744 157.399 593.032C157.063 593.304 156.895 593.68 156.895 594.16C156.895 594.672 157.071 595.08 157.423 595.384C157.775 595.688 158.287 595.84 158.959 595.84ZM173.123 598.144C172.131 598.144 171.315 598.008 170.675 597.736C170.035 597.448 169.563 596.992 169.259 596.368C168.971 595.744 168.827 594.936 168.827 593.944V587.92H167.123V585.28H168.827V582.4H171.971V585.28H175.043V587.92H171.971V593.44C171.971 594.16 172.099 594.68 172.355 595C172.627 595.304 173.123 595.456 173.843 595.456C174.323 595.456 174.803 595.432 175.283 595.384V598.024C174.979 598.056 174.659 598.08 174.323 598.096C174.003 598.128 173.603 598.144 173.123 598.144ZM177.837 598V585.28H180.981V598H177.837ZM179.397 584.056C178.837 584.056 178.373 583.88 178.005 583.528C177.653 583.176 177.477 582.72 177.477 582.16C177.477 581.6 177.653 581.144 178.005 580.792C178.373 580.44 178.829 580.264 179.373 580.264C179.949 580.264 180.413 580.44 180.765 580.792C181.133 581.144 181.317 581.6 181.317 582.16C181.317 582.72 181.133 583.176 180.765 583.528C180.413 583.88 179.957 584.056 179.397 584.056ZM188.264 598L182.888 585.28H186.44L189.896 594.064L193.04 585.28H196.328L191.432 598H188.264ZM203.302 598.288C202.15 598.288 201.086 598.056 200.11 597.592C199.15 597.112 198.382 596.392 197.806 595.432C197.23 594.456 196.942 593.232 196.942 591.76V591.28C196.942 589.872 197.214 588.704 197.758 587.776C198.318 586.848 199.062 586.152 199.99 585.688C200.918 585.224 201.942 584.992 203.062 584.992C205.062 584.992 206.582 585.52 207.622 586.576C208.662 587.632 209.182 589.16 209.182 591.16V592.504H200.182C200.214 593.256 200.374 593.872 200.662 594.352C200.966 594.816 201.35 595.16 201.814 595.384C202.278 595.592 202.774 595.696 203.302 595.696C204.118 595.696 204.734 595.576 205.15 595.336C205.566 595.096 205.862 594.744 206.038 594.28H208.942C208.686 595.608 208.054 596.608 207.046 597.28C206.038 597.952 204.79 598.288 203.302 598.288ZM203.182 587.584C202.686 587.584 202.206 587.664 201.742 587.824C201.278 587.984 200.91 588.272 200.638 588.688C200.366 589.088 200.214 589.624 200.182 590.296H206.11C206.094 589.576 205.95 589.024 205.678 588.64C205.422 588.24 205.078 587.968 204.646 587.824C204.214 587.664 203.726 587.584 203.182 587.584Z" fill="#343434"/>
<path d="M97.128 637.48V636.312C96.04 636.312 95.1013 636.109 94.312 635.704C93.5333 635.288 92.9307 634.712 92.504 633.976C92.088 633.24 91.88 632.381 91.88 631.4V631.08C91.88 630.205 92.088 629.421 92.504 628.728C92.9307 628.035 93.5333 627.491 94.312 627.096C95.1013 626.691 96.04 626.488 97.128 626.488V625.32H98.632V626.488C99.7307 626.488 100.669 626.691 101.448 627.096C102.227 627.491 102.824 628.035 103.24 628.728C103.667 629.421 103.88 630.205 103.88 631.08V631.4C103.88 632.381 103.667 633.24 103.24 633.976C102.824 634.712 102.227 635.288 101.448 635.704C100.669 636.109 99.7307 636.312 98.632 636.312V637.48H97.128ZM102.28 631.4V631.08C102.28 630.461 102.136 629.912 101.848 629.432C101.571 628.941 101.16 628.552 100.616 628.264C100.083 627.976 99.4213 627.832 98.632 627.832V634.968C99.4213 634.968 100.083 634.824 100.616 634.536C101.16 634.237 101.571 633.821 101.848 633.288C102.136 632.744 102.28 632.115 102.28 631.4ZM93.48 631.08V631.4C93.48 632.115 93.6187 632.744 93.896 633.288C94.184 633.821 94.6 634.237 95.144 634.536C95.688 634.824 96.3493 634.968 97.128 634.968V627.832C96.3493 627.832 95.688 627.976 95.144 628.264C94.6 628.552 94.184 628.941 93.896 629.432C93.6187 629.912 93.48 630.461 93.48 631.08ZM106.046 640.2V628.52H107.358V630.12C107.646 629.555 108.046 629.123 108.558 628.824C109.08 628.515 109.683 628.36 110.366 628.36C111.432 628.36 112.286 628.712 112.926 629.416C113.566 630.109 113.886 631.144 113.886 632.52V632.84C113.886 633.8 113.736 634.6 113.438 635.24C113.15 635.88 112.739 636.36 112.206 636.68C111.683 637 111.07 637.16 110.366 637.16C109.64 637.16 109.032 637 108.542 636.68C108.062 636.36 107.699 635.96 107.454 635.48V640.2H106.046ZM110.046 635.912C110.739 635.912 111.315 635.651 111.774 635.128C112.243 634.605 112.478 633.843 112.478 632.84V632.52C112.478 631.592 112.243 630.877 111.774 630.376C111.315 629.864 110.739 629.608 110.046 629.608C109.534 629.608 109.08 629.715 108.686 629.928C108.302 630.141 107.998 630.435 107.774 630.808C107.56 631.171 107.454 631.581 107.454 632.04V633.32C107.454 633.832 107.56 634.285 107.774 634.68C107.998 635.064 108.302 635.368 108.686 635.592C109.08 635.805 109.534 635.912 110.046 635.912ZM119.409 637.16C118.695 637.16 118.023 637.005 117.393 636.696C116.775 636.387 116.273 635.912 115.889 635.272C115.516 634.632 115.329 633.821 115.329 632.84V632.52C115.329 631.581 115.511 630.808 115.873 630.2C116.236 629.581 116.716 629.123 117.313 628.824C117.911 628.515 118.556 628.36 119.249 628.36C120.497 628.36 121.463 628.701 122.145 629.384C122.828 630.067 123.169 631.032 123.169 632.28V633.176H116.737C116.737 633.837 116.871 634.365 117.137 634.76C117.415 635.155 117.756 635.443 118.161 635.624C118.577 635.795 118.993 635.88 119.409 635.88C120.049 635.88 120.54 635.773 120.881 635.56C121.233 635.347 121.484 635.053 121.633 634.68H123.009C122.839 635.491 122.417 636.109 121.745 636.536C121.084 636.952 120.305 637.16 119.409 637.16ZM119.329 629.64C118.892 629.64 118.476 629.725 118.081 629.896C117.687 630.056 117.361 630.312 117.105 630.664C116.86 631.016 116.737 631.469 116.737 632.024H121.841C121.831 631.437 121.708 630.973 121.473 630.632C121.249 630.28 120.951 630.029 120.577 629.88C120.204 629.72 119.788 629.64 119.329 629.64ZM125.171 637V628.52H126.579V634.92L130.963 628.52H132.371V637H130.963V630.6L126.579 637H125.171ZM128.771 627.48C127.939 627.48 127.331 627.304 126.947 626.952C126.563 626.589 126.371 626.072 126.371 625.4H127.747C127.747 625.763 127.832 626.035 128.003 626.216C128.173 626.397 128.429 626.488 128.771 626.488C129.123 626.488 129.384 626.397 129.555 626.216C129.736 626.035 129.827 625.763 129.827 625.4H131.171C131.171 626.072 130.979 626.589 130.595 626.952C130.211 627.304 129.603 627.48 128.771 627.48ZM134.936 637V628.52H136.44L139.464 633.8L142.488 628.52H143.896V637H142.488V630.84L139.976 635.16H138.856L136.344 630.84V637H134.936ZM146.452 637V628.52H150.132C150.836 628.52 151.412 628.621 151.86 628.824C152.308 629.016 152.639 629.288 152.852 629.64C153.065 629.981 153.172 630.381 153.172 630.84C153.172 631.213 153.049 631.571 152.804 631.912C152.569 632.243 152.265 632.472 151.892 632.6C152.415 632.728 152.809 632.973 153.076 633.336C153.353 633.688 153.492 634.104 153.492 634.584C153.492 635.32 153.247 635.907 152.756 636.344C152.265 636.781 151.497 637 150.452 637H146.452ZM147.86 635.752H150.452C151.049 635.752 151.471 635.645 151.716 635.432C151.961 635.219 152.084 634.915 152.084 634.52C152.084 634.115 151.961 633.805 151.716 633.592C151.471 633.368 151.049 633.256 150.452 633.256H147.86V635.752ZM147.86 632.104H150.132C150.74 632.104 151.161 631.997 151.396 631.784C151.641 631.571 151.764 631.277 151.764 630.904C151.764 630.552 151.641 630.275 151.396 630.072C151.161 629.869 150.74 629.768 150.132 629.768H147.86V632.104ZM159.019 637.16C158.304 637.16 157.632 637.005 157.003 636.696C156.384 636.376 155.883 635.896 155.499 635.256C155.125 634.616 154.939 633.811 154.939 632.84V632.52C154.939 631.603 155.125 630.835 155.499 630.216C155.883 629.597 156.384 629.133 157.003 628.824C157.632 628.515 158.304 628.36 159.019 628.36C159.744 628.36 160.416 628.515 161.035 628.824C161.653 629.133 162.149 629.597 162.523 630.216C162.907 630.835 163.099 631.603 163.099 632.52V632.84C163.099 633.811 162.907 634.616 162.523 635.256C162.149 635.896 161.653 636.376 161.035 636.696C160.416 637.005 159.744 637.16 159.019 637.16ZM159.019 635.88C159.456 635.88 159.872 635.784 160.267 635.592C160.672 635.389 161.003 635.064 161.259 634.616C161.525 634.168 161.659 633.576 161.659 632.84V632.52C161.659 631.837 161.525 631.288 161.259 630.872C161.003 630.445 160.672 630.136 160.267 629.944C159.872 629.741 159.456 629.64 159.019 629.64C158.592 629.64 158.176 629.741 157.771 629.944C157.365 630.136 157.029 630.445 156.763 630.872C156.507 631.288 156.379 631.837 156.379 632.52V632.84C156.379 633.576 156.507 634.168 156.763 634.616C157.029 635.064 157.365 635.389 157.771 635.592C158.176 635.784 158.592 635.88 159.019 635.88ZM165.093 640.2V628.52H166.405V630.12C166.693 629.555 167.093 629.123 167.605 628.824C168.127 628.515 168.73 628.36 169.413 628.36C170.479 628.36 171.333 628.712 171.973 629.416C172.613 630.109 172.933 631.144 172.933 632.52V632.84C172.933 633.8 172.783 634.6 172.485 635.24C172.197 635.88 171.786 636.36 171.253 636.68C170.73 637 170.117 637.16 169.413 637.16C168.687 637.16 168.079 637 167.589 636.68C167.109 636.36 166.746 635.96 166.501 635.48V640.2H165.093ZM169.093 635.912C169.786 635.912 170.362 635.651 170.821 635.128C171.29 634.605 171.525 633.843 171.525 632.84V632.52C171.525 631.592 171.29 630.877 170.821 630.376C170.362 629.864 169.786 629.608 169.093 629.608C168.581 629.608 168.127 629.715 167.733 629.928C167.349 630.141 167.045 630.435 166.821 630.808C166.607 631.171 166.501 631.581 166.501 632.04V633.32C166.501 633.832 166.607 634.285 166.821 634.68C167.045 635.064 167.349 635.368 167.733 635.592C168.127 635.805 168.581 635.912 169.093 635.912ZM174.936 637V628.52H176.344V632.072H177.464L180.632 628.52H182.296L178.616 632.584L182.456 637H180.664L177.464 633.288H176.344V637H174.936Z" fill="#7F7F7F"/>
<g filter="url(#filter3_b_2195_64)">
<path d="M57.5037 706.954C63.2268 697.079 73.7764 691 85.1901 691L175.81 691C187.224 691 197.773 697.079 203.496 706.954L248.701 784.954C254.452 794.878 254.452 807.122 248.701 817.046L203.496 895.046C197.773 904.921 187.224 911 175.81 911H85.1901C73.7764 911 63.2268 904.921 57.5037 895.046L12.2991 817.046C6.54775 807.122 6.54774 794.878 12.2991 784.954L57.5037 706.954Z" fill="white"/>
<path d="M85.1901 690.5C73.5981 690.5 62.8836 696.674 57.0711 706.704L11.8665 784.704C6.02528 794.783 6.02528 807.217 11.8665 817.296L57.0711 895.296C62.8836 905.326 73.5981 911.5 85.1901 911.5H175.81C187.402 911.5 198.116 905.326 203.929 895.296L249.133 817.296C254.975 807.217 254.975 794.783 249.133 784.704L203.929 706.704C198.116 696.674 187.402 690.5 175.81 690.5L85.1901 690.5Z" stroke="#1C9272"/>
</g>
<path fill-rule="evenodd" clip-rule="evenodd" d="M158.168 743.669C158.188 743.744 158.198 743.82 158.198 743.897V755.917C158.198 756.072 158.157 756.223 158.08 756.357C158.002 756.491 157.89 756.602 157.756 756.678L147.669 762.487V773.999C147.669 774.153 147.628 774.304 147.551 774.437C147.474 774.571 147.364 774.682 147.23 774.759L126.172 786.883C126.122 786.91 126.07 786.927 126.019 786.945C125.998 786.952 125.98 786.964 125.959 786.971C125.812 787.01 125.658 787.01 125.51 786.971C125.485 786.964 125.465 786.951 125.441 786.942C125.393 786.925 125.342 786.908 125.296 786.883L104.241 774.759C104.107 774.682 103.996 774.571 103.919 774.438C103.842 774.304 103.801 774.153 103.801 773.999V737.939C103.801 737.86 103.811 737.784 103.831 737.709C103.838 737.684 103.853 737.661 103.862 737.636C103.879 737.59 103.894 737.542 103.918 737.5C103.935 737.471 103.959 737.449 103.978 737.422C104.003 737.388 104.027 737.35 104.056 737.32C104.081 737.294 104.114 737.276 104.142 737.253C104.175 737.228 104.202 737.199 104.239 737.179L114.769 731.117C114.902 731.04 115.053 731 115.206 731C115.36 731 115.511 731.04 115.644 731.117L126.173 737.179C126.209 737.201 126.24 737.228 126.27 737.253C126.299 737.276 126.332 737.294 126.355 737.318C126.388 737.352 126.41 737.386 126.435 737.422C126.454 737.449 126.479 737.471 126.495 737.5C126.52 737.542 126.534 737.59 126.552 737.636C126.561 737.661 126.576 737.684 126.581 737.711C126.602 737.785 126.613 737.862 126.614 737.939V760.462L135.385 755.41V743.897C135.386 743.82 135.397 743.743 135.418 743.669C135.424 743.642 135.438 743.618 135.448 743.594C135.465 743.548 135.48 743.501 135.504 743.458C135.521 743.429 135.545 743.407 135.564 743.38C135.589 743.346 135.611 743.309 135.642 743.278C135.667 743.252 135.7 743.235 135.727 743.213C135.761 743.186 135.79 743.157 135.824 743.137L146.355 737.075C146.488 736.998 146.639 736.958 146.793 736.958C146.946 736.958 147.097 736.998 147.23 737.075L157.76 743.137C157.797 743.159 157.824 743.188 157.858 743.212C157.885 743.234 157.916 743.252 157.943 743.278C157.972 743.309 157.994 743.346 158.021 743.38C158.04 743.407 158.064 743.431 158.079 743.458C158.105 743.501 158.12 743.548 158.137 743.594C158.147 743.62 158.161 743.642 158.168 743.669ZM156.444 755.41V745.415L152.758 747.536L147.669 750.467V760.462L156.444 755.41ZM145.915 773.492V763.49L140.908 766.349L126.612 774.509V784.606L145.915 773.492ZM105.555 739.457V773.492L124.858 784.605V774.511L114.774 768.804L114.77 768.801L114.765 768.799C114.731 768.778 114.704 768.751 114.672 768.726C114.645 768.705 114.612 768.687 114.588 768.663L114.587 768.659C114.558 768.632 114.537 768.598 114.514 768.568C114.492 768.539 114.466 768.513 114.449 768.483L114.447 768.479C114.427 768.445 114.415 768.406 114.401 768.369C114.386 768.336 114.367 768.306 114.359 768.27C114.349 768.228 114.347 768.185 114.342 768.141C114.337 768.107 114.328 768.076 114.328 768.042V744.507L109.241 741.576L105.555 739.457ZM115.207 732.89L106.436 737.939L115.206 742.987L123.977 737.939L115.207 732.89ZM119.77 764.401L124.858 761.472V739.457L121.174 741.576L116.084 744.507V766.523L119.77 764.401ZM146.792 738.848L138.02 743.897L146.792 748.946L155.56 743.897L146.792 738.848ZM145.913 750.467L140.823 747.536L137.14 745.415V755.41L142.227 758.339L145.913 760.462V750.467ZM125.731 772.991L138.596 765.647L145.027 761.975L136.262 756.93L126.172 762.74L116.975 768.036L125.731 772.991Z" fill="#FF2D20"/>
<path d="M89.944 828V811.2H93.52V825.024H101.2V828H89.944ZM107.178 828.288C106.266 828.288 105.49 828.12 104.85 827.784C104.21 827.432 103.722 826.952 103.386 826.344C103.05 825.736 102.882 825.048 102.882 824.28C102.882 823 103.258 822.04 104.01 821.4C104.778 820.76 105.922 820.44 107.442 820.44H111.234V819.84C111.234 819.008 111.042 818.424 110.658 818.088C110.29 817.752 109.698 817.584 108.882 817.584C108.162 817.584 107.642 817.712 107.322 817.968C107.002 818.208 106.818 818.512 106.77 818.88H103.602C103.65 818.144 103.882 817.488 104.298 816.912C104.73 816.32 105.338 815.856 106.122 815.52C106.922 815.168 107.882 814.992 109.002 814.992C110.09 814.992 111.034 815.152 111.834 815.472C112.65 815.792 113.282 816.312 113.73 817.032C114.178 817.736 114.402 818.688 114.402 819.888V824.76C114.402 825.432 114.41 826.024 114.426 826.536C114.458 827.032 114.506 827.52 114.57 828H111.618C111.554 827.648 111.514 827.384 111.498 827.208C111.498 827.016 111.498 826.736 111.498 826.368C111.162 826.88 110.634 827.328 109.914 827.712C109.194 828.096 108.282 828.288 107.178 828.288ZM108.162 825.84C108.674 825.84 109.162 825.752 109.626 825.576C110.106 825.384 110.49 825.096 110.778 824.712C111.082 824.312 111.234 823.808 111.234 823.2V822.6H108.042C107.434 822.6 106.954 822.744 106.602 823.032C106.266 823.304 106.098 823.68 106.098 824.16C106.098 824.672 106.274 825.08 106.626 825.384C106.978 825.688 107.49 825.84 108.162 825.84ZM117.191 828V815.28H120.071V817.176C120.247 816.808 120.487 816.464 120.791 816.144C121.095 815.824 121.471 815.552 121.919 815.328C122.367 815.104 122.863 814.992 123.407 814.992C123.711 814.992 123.967 815.008 124.175 815.04C124.399 815.072 124.543 815.104 124.607 815.136V817.944C124.447 817.88 124.239 817.824 123.983 817.776C123.743 817.712 123.415 817.68 122.999 817.68C122.359 817.68 121.839 817.816 121.439 818.088C121.055 818.36 120.775 818.72 120.599 819.168C120.423 819.6 120.335 820.072 120.335 820.584V828H117.191ZM129.983 828.288C129.071 828.288 128.295 828.12 127.655 827.784C127.015 827.432 126.527 826.952 126.191 826.344C125.855 825.736 125.687 825.048 125.687 824.28C125.687 823 126.063 822.04 126.815 821.4C127.583 820.76 128.727 820.44 130.247 820.44H134.039V819.84C134.039 819.008 133.847 818.424 133.463 818.088C133.095 817.752 132.503 817.584 131.687 817.584C130.967 817.584 130.447 817.712 130.127 817.968C129.807 818.208 129.623 818.512 129.575 818.88H126.407C126.455 818.144 126.687 817.488 127.103 816.912C127.535 816.32 128.143 815.856 128.927 815.52C129.727 815.168 130.687 814.992 131.807 814.992C132.895 814.992 133.839 815.152 134.639 815.472C135.455 815.792 136.087 816.312 136.535 817.032C136.983 817.736 137.207 818.688 137.207 819.888V824.76C137.207 825.432 137.215 826.024 137.231 826.536C137.263 827.032 137.311 827.52 137.375 828H134.423C134.359 827.648 134.319 827.384 134.303 827.208C134.303 827.016 134.303 826.736 134.303 826.368C133.967 826.88 133.439 827.328 132.719 827.712C131.999 828.096 131.087 828.288 129.983 828.288ZM130.967 825.84C131.479 825.84 131.967 825.752 132.431 825.576C132.911 825.384 133.295 825.096 133.583 824.712C133.887 824.312 134.039 823.808 134.039 823.2V822.6H130.847C130.239 822.6 129.759 822.744 129.407 823.032C129.071 823.304 128.903 823.68 128.903 824.16C128.903 824.672 129.079 825.08 129.431 825.384C129.783 825.688 130.295 825.84 130.967 825.84ZM143.913 828L138.537 815.28H142.089L145.545 824.064L148.689 815.28H151.977L147.081 828H143.913ZM158.95 828.288C157.798 828.288 156.734 828.056 155.758 827.592C154.798 827.112 154.03 826.392 153.454 825.432C152.878 824.456 152.59 823.232 152.59 821.76V821.28C152.59 819.872 152.862 818.704 153.406 817.776C153.966 816.848 154.71 816.152 155.638 815.688C156.566 815.224 157.59 814.992 158.71 814.992C160.71 814.992 162.23 815.52 163.27 816.576C164.31 817.632 164.83 819.16 164.83 821.16V822.504H155.83C155.862 823.256 156.022 823.872 156.31 824.352C156.614 824.816 156.998 825.16 157.462 825.384C157.926 825.592 158.422 825.696 158.95 825.696C159.766 825.696 160.382 825.576 160.798 825.336C161.214 825.096 161.51 824.744 161.686 824.28H164.59C164.334 825.608 163.702 826.608 162.694 827.28C161.686 827.952 160.438 828.288 158.95 828.288ZM158.83 817.584C158.334 817.584 157.854 817.664 157.39 817.824C156.926 817.984 156.558 818.272 156.286 818.688C156.014 819.088 155.862 819.624 155.83 820.296H161.758C161.742 819.576 161.598 819.024 161.326 818.64C161.07 818.24 160.726 817.968 160.294 817.824C159.862 817.664 159.374 817.584 158.83 817.584ZM171.432 828.144C170.456 828.144 169.656 828.016 169.032 827.76C168.424 827.488 167.976 827.04 167.688 826.416C167.4 825.776 167.256 824.888 167.256 823.752V811.2H170.4V823.368C170.4 824.184 170.512 824.736 170.736 825.024C170.976 825.312 171.44 825.456 172.128 825.456C172.304 825.456 172.456 825.456 172.584 825.456C172.712 825.44 172.84 825.424 172.968 825.408V828.048C172.888 828.08 172.752 828.104 172.56 828.12C172.368 828.136 172.168 828.144 171.96 828.144C171.752 828.144 171.576 828.144 171.432 828.144Z" fill="#343434"/>
<path d="M91.128 867.48V866.312C90.04 866.312 89.1013 866.109 88.312 865.704C87.5333 865.288 86.9307 864.712 86.504 863.976C86.088 863.24 85.88 862.381 85.88 861.4V861.08C85.88 860.205 86.088 859.421 86.504 858.728C86.9307 858.035 87.5333 857.491 88.312 857.096C89.1013 856.691 90.04 856.488 91.128 856.488V855.32H92.632V856.488C93.7307 856.488 94.6693 856.691 95.448 857.096C96.2267 857.491 96.824 858.035 97.24 858.728C97.6667 859.421 97.88 860.205 97.88 861.08V861.4C97.88 862.381 97.6667 863.24 97.24 863.976C96.824 864.712 96.2267 865.288 95.448 865.704C94.6693 866.109 93.7307 866.312 92.632 866.312V867.48H91.128ZM96.28 861.4V861.08C96.28 860.461 96.136 859.912 95.848 859.432C95.5707 858.941 95.16 858.552 94.616 858.264C94.0827 857.976 93.4213 857.832 92.632 857.832V864.968C93.4213 864.968 94.0827 864.824 94.616 864.536C95.16 864.237 95.5707 863.821 95.848 863.288C96.136 862.744 96.28 862.115 96.28 861.4ZM87.48 861.08V861.4C87.48 862.115 87.6187 862.744 87.896 863.288C88.184 863.821 88.6 864.237 89.144 864.536C89.688 864.824 90.3493 864.968 91.128 864.968V857.832C90.3493 857.832 89.688 857.976 89.144 858.264C88.6 858.552 88.184 858.941 87.896 859.432C87.6187 859.912 87.48 860.461 87.48 861.08ZM100.046 870.2V858.52H101.358V860.12C101.646 859.555 102.046 859.123 102.558 858.824C103.08 858.515 103.683 858.36 104.366 858.36C105.432 858.36 106.286 858.712 106.926 859.416C107.566 860.109 107.886 861.144 107.886 862.52V862.84C107.886 863.8 107.736 864.6 107.438 865.24C107.15 865.88 106.739 866.36 106.206 866.68C105.683 867 105.07 867.16 104.366 867.16C103.64 867.16 103.032 867 102.542 866.68C102.062 866.36 101.699 865.96 101.454 865.48V870.2H100.046ZM104.046 865.912C104.739 865.912 105.315 865.651 105.774 865.128C106.243 864.605 106.478 863.843 106.478 862.84V862.52C106.478 861.592 106.243 860.877 105.774 860.376C105.315 859.864 104.739 859.608 104.046 859.608C103.534 859.608 103.08 859.715 102.686 859.928C102.302 860.141 101.998 860.435 101.774 860.808C101.56 861.171 101.454 861.581 101.454 862.04V863.32C101.454 863.832 101.56 864.285 101.774 864.68C101.998 865.064 102.302 865.368 102.686 865.592C103.08 865.805 103.534 865.912 104.046 865.912ZM113.409 867.16C112.695 867.16 112.023 867.005 111.393 866.696C110.775 866.387 110.273 865.912 109.889 865.272C109.516 864.632 109.329 863.821 109.329 862.84V862.52C109.329 861.581 109.511 860.808 109.873 860.2C110.236 859.581 110.716 859.123 111.313 858.824C111.911 858.515 112.556 858.36 113.249 858.36C114.497 858.36 115.463 858.701 116.145 859.384C116.828 860.067 117.169 861.032 117.169 862.28V863.176H110.737C110.737 863.837 110.871 864.365 111.137 864.76C111.415 865.155 111.756 865.443 112.161 865.624C112.577 865.795 112.993 865.88 113.409 865.88C114.049 865.88 114.54 865.773 114.881 865.56C115.233 865.347 115.484 865.053 115.633 864.68H117.009C116.839 865.491 116.417 866.109 115.745 866.536C115.084 866.952 114.305 867.16 113.409 867.16ZM113.329 859.64C112.892 859.64 112.476 859.725 112.081 859.896C111.687 860.056 111.361 860.312 111.105 860.664C110.86 861.016 110.737 861.469 110.737 862.024H115.841C115.831 861.437 115.708 860.973 115.473 860.632C115.249 860.28 114.951 860.029 114.577 859.88C114.204 859.72 113.788 859.64 113.329 859.64ZM119.171 867V858.52H120.579V864.92L124.963 858.52H126.371V867H124.963V860.6L120.579 867H119.171ZM122.771 857.48C121.939 857.48 121.331 857.304 120.947 856.952C120.563 856.589 120.371 856.072 120.371 855.4H121.747C121.747 855.763 121.832 856.035 122.003 856.216C122.173 856.397 122.429 856.488 122.771 856.488C123.123 856.488 123.384 856.397 123.555 856.216C123.736 856.035 123.827 855.763 123.827 855.4H125.171C125.171 856.072 124.979 856.589 124.595 856.952C124.211 857.304 123.603 857.48 122.771 857.48ZM128.936 867V858.52H130.44L133.464 863.8L136.488 858.52H137.896V867H136.488V860.84L133.976 865.16H132.856L130.344 860.84V867H128.936ZM140.452 867V858.52H144.132C144.836 858.52 145.412 858.621 145.86 858.824C146.308 859.016 146.639 859.288 146.852 859.64C147.065 859.981 147.172 860.381 147.172 860.84C147.172 861.213 147.049 861.571 146.804 861.912C146.569 862.243 146.265 862.472 145.892 862.6C146.415 862.728 146.809 862.973 147.076 863.336C147.353 863.688 147.492 864.104 147.492 864.584C147.492 865.32 147.247 865.907 146.756 866.344C146.265 866.781 145.497 867 144.452 867H140.452ZM141.86 865.752H144.452C145.049 865.752 145.471 865.645 145.716 865.432C145.961 865.219 146.084 864.915 146.084 864.52C146.084 864.115 145.961 863.805 145.716 863.592C145.471 863.368 145.049 863.256 144.452 863.256H141.86V865.752ZM141.86 862.104H144.132C144.74 862.104 145.161 861.997 145.396 861.784C145.641 861.571 145.764 861.277 145.764 860.904C145.764 860.552 145.641 860.275 145.396 860.072C145.161 859.869 144.74 859.768 144.132 859.768H141.86V862.104ZM153.019 867.16C152.304 867.16 151.632 867.005 151.003 866.696C150.384 866.376 149.883 865.896 149.499 865.256C149.125 864.616 148.939 863.811 148.939 862.84V862.52C148.939 861.603 149.125 860.835 149.499 860.216C149.883 859.597 150.384 859.133 151.003 858.824C151.632 858.515 152.304 858.36 153.019 858.36C153.744 858.36 154.416 858.515 155.035 858.824C155.653 859.133 156.149 859.597 156.523 860.216C156.907 860.835 157.099 861.603 157.099 862.52V862.84C157.099 863.811 156.907 864.616 156.523 865.256C156.149 865.896 155.653 866.376 155.035 866.696C154.416 867.005 153.744 867.16 153.019 867.16ZM153.019 865.88C153.456 865.88 153.872 865.784 154.267 865.592C154.672 865.389 155.003 865.064 155.259 864.616C155.525 864.168 155.659 863.576 155.659 862.84V862.52C155.659 861.837 155.525 861.288 155.259 860.872C155.003 860.445 154.672 860.136 154.267 859.944C153.872 859.741 153.456 859.64 153.019 859.64C152.592 859.64 152.176 859.741 151.771 859.944C151.365 860.136 151.029 860.445 150.763 860.872C150.507 861.288 150.379 861.837 150.379 862.52V862.84C150.379 863.576 150.507 864.168 150.763 864.616C151.029 865.064 151.365 865.389 151.771 865.592C152.176 865.784 152.592 865.88 153.019 865.88ZM159.093 870.2V858.52H160.405V860.12C160.693 859.555 161.093 859.123 161.605 858.824C162.127 858.515 162.73 858.36 163.413 858.36C164.479 858.36 165.333 858.712 165.973 859.416C166.613 860.109 166.933 861.144 166.933 862.52V862.84C166.933 863.8 166.783 864.6 166.485 865.24C166.197 865.88 165.786 866.36 165.253 866.68C164.73 867 164.117 867.16 163.413 867.16C162.687 867.16 162.079 867 161.589 866.68C161.109 866.36 160.746 865.96 160.501 865.48V870.2H159.093ZM163.093 865.912C163.786 865.912 164.362 865.651 164.821 865.128C165.29 864.605 165.525 863.843 165.525 862.84V862.52C165.525 861.592 165.29 860.877 164.821 860.376C164.362 859.864 163.786 859.608 163.093 859.608C162.581 859.608 162.127 859.715 161.733 859.928C161.349 860.141 161.045 860.435 160.821 860.808C160.607 861.171 160.501 861.581 160.501 862.04V863.32C160.501 863.832 160.607 864.285 160.821 864.68C161.045 865.064 161.349 865.368 161.733 865.592C162.127 865.805 162.581 865.912 163.093 865.912ZM168.936 867V858.52H170.344V862.072H171.464L174.632 858.52H176.296L172.616 862.584L176.456 867H174.664L171.464 863.288H170.344V867H168.936Z" fill="#7F7F7F"/>
<defs>
<filter id="filter0_b_2195_64" x="-31.0137" y="-32" width="311.027" height="286" filterUnits="userSpaceOnUse" color-interpolation-filters="sRGB">
<feFlood flood-opacity="0" result="BackgroundImageFix"/>
<feGaussianBlur in="BackgroundImageFix" stdDeviation="16"/>
<feComposite in2="SourceAlpha" operator="in" result="effect1_backgroundBlur_2195_64"/>
<feBlend mode="normal" in="SourceGraphic" in2="effect1_backgroundBlur_2195_64" result="shape"/>
</filter>
<filter id="filter1_b_2195_64" x="-25.0137" y="198" width="311.027" height="286" filterUnits="userSpaceOnUse" color-interpolation-filters="sRGB">
<feFlood flood-opacity="0" result="BackgroundImageFix"/>
<feGaussianBlur in="BackgroundImageFix" stdDeviation="16"/>
<feComposite in2="SourceAlpha" operator="in" result="effect1_backgroundBlur_2195_64"/>
<feBlend mode="normal" in="SourceGraphic" in2="effect1_backgroundBlur_2195_64" result="shape"/>
</filter>
<filter id="filter2_b_2195_64" x="-18.0137" y="428" width="311.027" height="286" filterUnits="userSpaceOnUse" color-interpolation-filters="sRGB">
<feFlood flood-opacity="0" result="BackgroundImageFix"/>
<feGaussianBlur in="BackgroundImageFix" stdDeviation="16"/>
<feComposite in2="SourceAlpha" operator="in" result="effect1_backgroundBlur_2195_64"/>
<feBlend mode="normal" in="SourceGraphic" in2="effect1_backgroundBlur_2195_64" result="shape"/>
</filter>
<filter id="filter3_b_2195_64" x="-25.0137" y="658" width="311.027" height="286" filterUnits="userSpaceOnUse" color-interpolation-filters="sRGB">
<feFlood flood-opacity="0" result="BackgroundImageFix"/>
<feGaussianBlur in="BackgroundImageFix" stdDeviation="16"/>
<feComposite in2="SourceAlpha" operator="in" result="effect1_backgroundBlur_2195_64"/>
<feBlend mode="normal" in="SourceGraphic" in2="effect1_backgroundBlur_2195_64" result="shape"/>
</filter>
<linearGradient id="paint0_linear_2195_64" x1="95.9405" y1="288.507" x2="156.26" y2="346.193" gradientUnits="userSpaceOnUse">
<stop stop-color="#FB9006"/>
<stop offset="1" stop-color="#FB9006"/>
</linearGradient>
<linearGradient id="paint1_linear_2195_64" x1="108.919" y1="297.978" x2="135.114" y2="318.994" gradientUnits="userSpaceOnUse">
<stop stop-color="#FF6E00"/>
<stop offset="1" stop-color="#F87A0A"/>
</linearGradient>
<linearGradient id="paint2_linear_2195_64" x1="135.072" y1="287.539" x2="135.072" y2="274.312" gradientUnits="userSpaceOnUse">
<stop stop-color="#FD6D47"/>
<stop offset="1" stop-color="#E04922"/>
</linearGradient>
<linearGradient id="paint3_linear_2195_64" x1="152.57" y1="290.2" x2="137.714" y2="325.435" gradientUnits="userSpaceOnUse">
<stop stop-color="#EF4206"/>
<stop offset="0.329" stop-color="#F57C17"/>
<stop offset="1" stop-color="#FCB729"/>
</linearGradient>
<radialGradient id="paint4_radial_2195_64" cx="0" cy="0" r="1" gradientUnits="userSpaceOnUse" gradientTransform="translate(134.932 287.549) scale(13.4942 13.3783)">
<stop stop-color="#F3BC57"/>
<stop offset="0.2" stop-color="#F49451"/>
<stop offset="1" stop-color="#F46D4B"/>
</radialGradient>
<linearGradient id="paint5_linear_2195_64" x1="134.869" y1="286.472" x2="134.869" y2="269.179" gradientUnits="userSpaceOnUse">
<stop stop-color="#FB9006"/>
<stop offset="1" stop-color="#FEFEFE"/>
</linearGradient>
<radialGradient id="paint6_radial_2195_64" cx="0" cy="0" r="1" gradientUnits="userSpaceOnUse" gradientTransform="translate(135.188 292.51) scale(9.53855 10.5965)">
<stop stop-color="#FED337"/>
<stop offset="1" stop-color="#FC2D27"/>
</radialGradient>
</defs>
</svg>
