<svg width="203" height="57" viewBox="0 0 203 57" fill="none" xmlns="http://www.w3.org/2000/svg">
<path d="M203 51.2863C203 54.443 200.387 57 197.154 57H5.85328C2.62246 57 0 54.443 0 51.2863V5.72118C0 2.56595 2.62246 0 5.85328 0H197.153C200.387 0 202.998 2.56595 202.998 5.72118L203 51.2863Z" fill="black"/>
<path d="M44.6718 28.18C44.6277 23.4071 48.6847 21.0851 48.8702 20.977C46.5725 17.7146 43.0113 17.2689 41.7599 17.2333C38.7688 16.9268 35.8675 18.9763 34.3439 18.9763C32.7898 18.9763 30.4436 17.2629 27.9148 17.3133C24.6607 17.3622 21.6165 19.197 19.9469 22.0462C16.5012 27.8557 19.071 36.393 22.3722 41.0888C24.0236 43.3887 25.9532 45.9565 28.4789 45.8662C30.9499 45.7669 31.8729 44.332 34.8548 44.332C37.8093 44.332 38.6761 45.8662 41.252 45.8084C43.9039 45.7669 45.5735 43.4982 47.1671 41.1777C49.0755 38.5417 49.8418 35.9457 49.8723 35.8125C49.8099 35.7917 44.722 33.9006 44.6718 28.18Z" fill="white"/>
<path d="M39.8059 14.1442C41.1349 12.5256 42.0442 10.3235 41.7918 8.08887C39.8682 8.1718 37.4626 9.38464 36.0774 10.9677C34.8518 12.3627 33.7569 14.6492 34.0398 16.7994C36.2005 16.9564 38.4191 15.7376 39.8059 14.1442Z" fill="white"/>
<path d="M80.4316 45.5357H76.9783L75.0867 39.7469H68.5116L66.7097 45.5357H63.3477L69.8619 25.8281H73.8854L80.4316 45.5357ZM74.5165 37.3183L72.8058 32.1722C72.6248 31.6465 72.2857 30.4085 71.7855 28.4597H71.7246C71.5254 29.2978 71.2046 30.5359 70.7636 32.1722L69.0834 37.3183H74.5165Z" fill="white"/>
<path d="M97.1847 38.256C97.1847 40.6728 96.5141 42.5831 95.1729 43.9855C93.9716 45.2339 92.4799 45.8573 90.6993 45.8573C88.7773 45.8573 87.3966 45.185 86.5557 43.8404H86.4949V51.3262H83.2529V36.0035C83.2529 34.4841 83.2119 32.9248 83.1328 31.3254H85.9839L86.1649 33.5778H86.2257C87.3069 31.8808 88.9476 31.0337 91.1494 31.0337C92.8707 31.0337 94.3077 31.6956 95.4573 33.021C96.6099 34.3479 97.1847 36.0924 97.1847 38.256ZM93.8819 38.3715C93.8819 36.9883 93.5626 35.848 92.9209 34.9506C92.2199 34.0147 91.2787 33.5467 90.0987 33.5467C89.2988 33.5467 88.572 33.8074 87.9227 34.3212C87.2719 34.8396 86.8461 35.5163 86.6469 36.3545C86.5466 36.7455 86.4964 37.0653 86.4964 37.3171V39.6865C86.4964 40.7201 86.8218 41.5924 87.4726 42.3047C88.1234 43.017 88.9689 43.3724 90.009 43.3724C91.23 43.3724 92.1804 42.9133 92.8601 41.9981C93.5413 41.0815 93.8819 39.8731 93.8819 38.3715Z" fill="white"/>
<path d="M113.966 38.256C113.966 40.6728 113.296 42.5831 111.953 43.9855C110.753 45.2339 109.262 45.8573 107.481 45.8573C105.559 45.8573 104.178 45.185 103.339 43.8404H103.278V51.3262H100.036V36.0035C100.036 34.4841 99.9951 32.9248 99.916 31.3254H102.767L102.948 33.5778H103.009C104.089 31.8808 105.729 31.0337 107.933 31.0337C109.652 31.0337 111.089 31.6956 112.242 33.021C113.39 34.3479 113.966 36.0924 113.966 38.256ZM110.664 38.3715C110.664 36.9883 110.343 35.848 109.701 34.9506C109 34.0147 108.062 33.5467 106.88 33.5467C106.079 33.5467 105.354 33.8074 104.703 34.3212C104.052 34.8396 103.628 35.5163 103.429 36.3545C103.33 36.7455 103.278 37.0653 103.278 37.3171V39.6865C103.278 40.7201 103.603 41.5924 104.251 42.3047C104.902 43.0155 105.748 43.3724 106.791 43.3724C108.012 43.3724 108.962 42.9133 109.642 41.9981C110.323 41.0815 110.664 39.8731 110.664 38.3715Z" fill="white"/>
<path d="M132.732 40.0093C132.732 41.6856 132.134 43.0495 130.934 44.1024C129.616 45.2531 127.781 45.8276 125.422 45.8276C123.245 45.8276 121.499 45.4189 120.178 44.6L120.929 41.9685C122.352 42.8066 123.914 43.2272 125.615 43.2272C126.836 43.2272 127.787 42.9577 128.47 42.4216C129.149 41.8855 129.488 41.1658 129.488 40.2684C129.488 39.4687 129.209 38.7949 128.647 38.2485C128.089 37.702 127.157 37.1941 125.856 36.7247C122.313 35.4378 120.543 33.5526 120.543 31.0736C120.543 29.4535 121.163 28.1252 122.405 27.0915C123.643 26.0564 125.295 25.5396 127.36 25.5396C129.201 25.5396 130.731 25.852 131.952 26.4755L131.141 29.0492C130.001 28.445 128.711 28.1429 127.268 28.1429C126.128 28.1429 125.237 28.4169 124.598 28.9619C124.058 29.4491 123.788 30.0429 123.788 30.7463C123.788 31.5253 124.096 32.1695 124.717 32.6759C125.257 33.1439 126.237 33.6503 127.661 34.1968C129.402 34.8795 130.681 35.6777 131.503 36.5929C132.323 37.5051 132.732 38.6468 132.732 40.0093Z" fill="white"/>
<path d="M143.449 33.6949H139.875V40.5943C139.875 42.3491 140.505 43.2258 141.767 43.2258C142.346 43.2258 142.827 43.177 143.207 43.0792L143.297 45.4768C142.658 45.7093 141.817 45.8263 140.776 45.8263C139.495 45.8263 138.495 45.4457 137.772 44.686C137.053 43.9248 136.691 42.6483 136.691 40.8549V33.6919H134.562V31.3225H136.691V28.7206L139.875 27.7847V31.3225H143.449V33.6949Z" fill="white"/>
<path d="M159.573 38.3137C159.573 40.498 158.932 42.2913 157.651 43.6937C156.309 45.1376 154.526 45.8573 152.305 45.8573C150.164 45.8573 148.459 45.1657 147.188 43.7826C145.917 42.3994 145.281 40.6535 145.281 38.5492C145.281 36.3471 145.935 34.5434 147.247 33.141C148.557 31.7371 150.324 31.0352 152.545 31.0352C154.686 31.0352 156.409 31.7267 157.709 33.1114C158.953 34.4545 159.573 36.1886 159.573 38.3137ZM156.21 38.4159C156.21 37.1053 155.922 35.9813 155.34 35.0439C154.66 33.9095 153.689 33.3439 152.43 33.3439C151.126 33.3439 150.137 33.911 149.457 35.0439C148.874 35.9828 148.587 37.1245 148.587 38.4751C148.587 39.7857 148.874 40.9097 149.457 41.8456C150.158 42.98 151.137 43.5456 152.401 43.5456C153.638 43.5456 154.61 42.9681 155.311 41.816C155.909 40.8608 156.21 39.725 156.21 38.4159Z" fill="white"/>
<path d="M170.11 34.1021C169.789 34.0443 169.447 34.0147 169.088 34.0147C167.947 34.0147 167.065 34.4338 166.445 35.2735C165.905 36.0139 165.634 36.9498 165.634 38.0797V45.536H162.394L162.424 35.8007C162.424 34.1628 162.383 32.6715 162.303 31.3269H165.127L165.245 34.0458H165.335C165.677 33.1114 166.217 32.3591 166.956 31.7949C167.678 31.2869 168.458 31.0337 169.299 31.0337C169.599 31.0337 169.869 31.0544 170.11 31.0914V34.1021Z" fill="white"/>
<path d="M184.608 37.7582C184.608 38.3239 184.57 38.8007 184.49 39.1902H174.764C174.802 40.5941 175.272 41.6677 176.175 42.4081C176.995 43.0701 178.055 43.4018 179.356 43.4018C180.796 43.4018 182.11 43.1782 183.291 42.7295L183.799 44.9212C182.419 45.5076 180.789 45.7994 178.908 45.7994C176.645 45.7994 174.869 45.1507 173.576 43.855C172.287 42.5592 171.641 40.8192 171.641 38.6363C171.641 36.4935 172.241 34.709 173.444 33.2859C174.703 31.7665 176.405 31.0068 178.546 31.0068C180.649 31.0068 182.241 31.7665 183.322 33.2859C184.178 34.4928 184.608 35.9856 184.608 37.7582ZM181.517 36.9392C181.538 36.0033 181.327 35.1948 180.887 34.5121C180.326 33.6339 179.464 33.1956 178.304 33.1956C177.244 33.1956 176.382 33.6236 175.723 34.4825C175.184 35.1652 174.863 35.9841 174.764 36.9378H181.517V36.9392Z" fill="white"/>
<path d="M73.4451 13.7045C73.4451 15.4475 72.9084 16.7596 71.8364 17.6407C70.8434 18.4537 69.4323 18.861 67.6045 18.861C66.6982 18.861 65.9227 18.8225 65.2734 18.7455V9.22191C66.1204 9.08863 67.0328 9.02051 68.0181 9.02051C69.7592 9.02051 71.0715 9.38925 71.9565 10.1267C72.9479 10.9605 73.4451 12.1526 73.4451 13.7045ZM71.7649 13.7475C71.7649 12.6176 71.4577 11.7513 70.8434 11.1471C70.2291 10.5443 69.3319 10.2422 68.1504 10.2422C67.6486 10.2422 67.2213 10.2748 66.867 10.3429V17.583C67.0632 17.6126 67.422 17.6259 67.9436 17.6259C69.1631 17.6259 70.1044 17.2957 70.7674 16.6352C71.4304 15.9747 71.7649 15.0122 71.7649 13.7475Z" fill="white"/>
<path d="M82.3546 15.2267C82.3546 16.3003 82.0398 17.18 81.4103 17.8701C80.7504 18.5794 79.876 18.9334 78.7842 18.9334C77.732 18.9334 76.8941 18.5942 76.2692 17.913C75.6457 17.2333 75.334 16.3759 75.334 15.3422C75.334 14.2612 75.6548 13.3741 76.2996 12.6855C76.9443 11.9969 77.811 11.6519 78.9028 11.6519C79.9551 11.6519 80.8005 11.991 81.4407 12.6707C82.049 13.3312 82.3546 14.1842 82.3546 15.2267ZM80.7017 15.2771C80.7017 14.6329 80.5588 14.0805 80.2744 13.6199C79.9399 13.0631 79.4639 12.7847 78.8451 12.7847C78.2049 12.7847 77.7183 13.0631 77.3838 13.6199C77.0979 14.0805 76.9565 14.6418 76.9565 15.3052C76.9565 15.9494 77.0994 16.5017 77.3838 16.9623C77.7289 17.5191 78.2094 17.7975 78.8298 17.7975C79.4381 17.7975 79.9156 17.5147 80.2592 16.9475C80.5542 16.4781 80.7017 15.9212 80.7017 15.2771Z" fill="white"/>
<path d="M94.2997 11.7939L92.0569 18.7748H90.5971L89.668 15.7435C89.4323 14.9867 89.2407 14.2344 89.0917 13.4881H89.0628C88.9244 14.2552 88.7328 15.006 88.4865 15.7435L87.4996 18.7748H86.0231L83.9141 11.7939H85.5517L86.3622 15.1126C86.5584 15.8975 86.7196 16.6453 86.8488 17.3532H86.8777C86.9963 16.7697 87.1925 16.0263 87.4692 15.1274L88.4865 11.7954H89.7851L90.7598 15.0563C90.9955 15.8516 91.1871 16.6172 91.3346 17.3547H91.3787C91.4866 16.6364 91.6493 15.8708 91.8653 15.0563L92.7351 11.7954H94.2997V11.7939Z" fill="white"/>
<path d="M102.562 18.7749H100.969V14.7766C100.969 13.5445 100.488 12.9284 99.5242 12.9284C99.0513 12.9284 98.6697 13.0972 98.3732 13.4364C98.0797 13.7755 97.9307 14.1753 97.9307 14.6329V18.7735H96.3371V13.7888C96.3371 13.1757 96.3173 12.5108 96.2793 11.7911H97.6798L97.7543 12.8825H97.7984C97.9839 12.5434 98.2606 12.2635 98.6241 12.0399C99.0559 11.7793 99.5394 11.6475 100.069 11.6475C100.738 11.6475 101.294 11.8577 101.737 12.2798C102.287 12.7966 102.562 13.5682 102.562 14.5929V18.7749Z" fill="white"/>
<path d="M106.955 18.7748H105.363V8.59082H106.955V18.7748Z" fill="white"/>
<path d="M116.339 15.2267C116.339 16.3003 116.024 17.18 115.395 17.8701C114.735 18.5794 113.859 18.9334 112.769 18.9334C111.715 18.9334 110.877 18.5942 110.254 17.913C109.63 17.2333 109.318 16.3759 109.318 15.3422C109.318 14.2612 109.639 13.3741 110.284 12.6855C110.929 11.9969 111.795 11.6519 112.886 11.6519C113.939 11.6519 114.783 11.991 115.425 12.6707C116.033 13.3312 116.339 14.1842 116.339 15.2267ZM114.685 15.2771C114.685 14.6329 114.542 14.0805 114.257 13.6199C113.924 13.0631 113.447 12.7847 112.829 12.7847C112.188 12.7847 111.701 13.0631 111.368 13.6199C111.082 14.0805 110.941 14.6418 110.941 15.3052C110.941 15.9494 111.084 16.5017 111.368 16.9623C111.713 17.5191 112.194 17.7975 112.814 17.7975C113.422 17.7975 113.898 17.5147 114.242 16.9475C114.539 16.4781 114.685 15.9212 114.685 15.2771Z" fill="white"/>
<path d="M124.051 18.7749H122.62L122.501 17.9708H122.457C121.968 18.612 121.27 18.9334 120.363 18.9334C119.687 18.9334 119.139 18.7216 118.727 18.301C118.353 17.9189 118.166 17.4436 118.166 16.8794C118.166 16.0264 118.531 15.3763 119.265 14.9261C119.998 14.4759 121.029 14.2552 122.357 14.2656V14.1353C122.357 13.2157 121.861 12.7566 120.868 12.7566C120.161 12.7566 119.538 12.9299 118.999 13.2734L118.675 12.2546C119.341 11.8533 120.164 11.6519 121.134 11.6519C123.008 11.6519 123.947 12.6144 123.947 14.5396V17.1104C123.947 17.8079 123.982 18.3632 124.051 18.7749ZM122.396 16.3759V15.2993C120.639 15.2697 119.76 15.7391 119.76 16.7061C119.76 17.0704 119.86 17.3429 120.065 17.525C120.271 17.7072 120.532 17.7975 120.844 17.7975C121.194 17.7975 121.52 17.6894 121.818 17.4747C122.118 17.2585 122.302 16.9845 122.37 16.6484C122.387 16.5728 122.396 16.481 122.396 16.3759Z" fill="white"/>
<path d="M133.106 18.7748H131.692L131.618 17.6538H131.574C131.122 18.5068 130.353 18.9333 129.271 18.9333C128.408 18.9333 127.688 18.6031 127.118 17.9426C126.548 17.2821 126.264 16.4247 126.264 15.3718C126.264 14.2419 126.572 13.3267 127.193 12.6277C127.793 11.9761 128.529 11.6503 129.405 11.6503C130.368 11.6503 131.041 11.9658 131.425 12.5981H131.455V8.59082H133.05V16.8941C133.05 17.5739 133.068 18.2003 133.106 18.7748ZM131.455 15.8309V14.6669C131.455 14.4655 131.44 14.3026 131.411 14.1782C131.321 13.805 131.128 13.4911 130.835 13.2378C130.538 12.9846 130.181 12.8572 129.769 12.8572C129.174 12.8572 128.709 13.0868 128.367 13.5473C128.028 14.0079 127.856 14.5958 127.856 15.314C127.856 16.0041 128.018 16.5639 128.345 16.9948C128.691 17.4539 129.156 17.6834 129.738 17.6834C130.261 17.6834 130.679 17.4924 130.997 17.1089C131.304 16.7549 131.455 16.3284 131.455 15.8309Z" fill="white"/>
<path d="M146.735 15.2267C146.735 16.3003 146.421 17.18 145.791 17.8701C145.131 18.5794 144.258 18.9334 143.165 18.9334C142.114 18.9334 141.277 18.5942 140.65 17.913C140.027 17.2333 139.715 16.3759 139.715 15.3422C139.715 14.2612 140.036 13.3741 140.68 12.6855C141.325 11.9969 142.192 11.6519 143.285 11.6519C144.336 11.6519 145.183 11.991 145.822 12.6707C146.43 13.3312 146.735 14.1842 146.735 15.2267ZM145.084 15.2771C145.084 14.6329 144.941 14.0805 144.657 13.6199C144.321 13.0631 143.846 12.7847 143.226 12.7847C142.587 12.7847 142.101 13.0631 141.765 13.6199C141.479 14.0805 141.337 14.6418 141.337 15.3052C141.337 15.9494 141.48 16.5017 141.765 16.9623C142.11 17.5191 142.59 17.7975 143.211 17.7975C143.819 17.7975 144.298 17.5147 144.642 16.9475C144.935 16.4781 145.084 15.9212 145.084 15.2771Z" fill="white"/>
<path d="M155.303 18.7749H153.711V14.7766C153.711 13.5445 153.231 12.9284 152.265 12.9284C151.792 12.9284 151.41 13.0972 151.115 13.4364C150.82 13.7755 150.673 14.1753 150.673 14.6329V18.7735H149.078V13.7888C149.078 13.1757 149.059 12.5108 149.021 11.7911H150.42L150.495 12.8825H150.539C150.726 12.5434 151.003 12.2635 151.365 12.0399C151.798 11.7793 152.28 11.6475 152.811 11.6475C153.478 11.6475 154.035 11.8577 154.477 12.2798C155.029 12.7966 155.303 13.5682 155.303 14.5929V18.7749Z" fill="white"/>
<path d="M166.028 12.9567H164.273V16.3479C164.273 17.2098 164.585 17.6407 165.202 17.6407C165.488 17.6407 165.725 17.617 165.912 17.5682L165.953 18.7455C165.638 18.861 165.225 18.9187 164.715 18.9187C164.086 18.9187 163.596 18.7322 163.242 18.359C162.886 17.9858 162.71 17.3579 162.71 16.4768V12.9567H161.662V11.7942H162.71V10.5147L164.271 10.0557V11.7927H166.026V12.9567H166.028Z" fill="white"/>
<path d="M174.464 18.7748H172.869V14.8061C172.869 13.5547 172.388 12.9283 171.425 12.9283C170.686 12.9283 170.182 13.2911 169.905 14.0168C169.858 14.1693 169.83 14.3559 169.83 14.5751V18.7734H168.238V8.59082H169.83V12.798H169.861C170.363 12.0324 171.082 11.6503 172.014 11.6503C172.674 11.6503 173.22 11.8606 173.653 12.2827C174.193 12.8084 174.464 13.5903 174.464 14.6239V18.7748Z" fill="white"/>
<path d="M183.168 14.9544C183.168 15.2328 183.146 15.4668 183.108 15.6578H178.329C178.35 16.3479 178.579 16.8736 179.021 17.2379C179.426 17.5637 179.947 17.7266 180.586 17.7266C181.293 17.7266 181.938 17.617 182.518 17.3963L182.768 18.4744C182.088 18.7617 181.288 18.9054 180.362 18.9054C179.252 18.9054 178.378 18.587 177.745 17.9502C177.11 17.3134 176.795 16.4589 176.795 15.3868C176.795 14.3339 177.088 13.4572 177.68 12.7582C178.297 12.0119 179.132 11.6387 180.186 11.6387C181.217 11.6387 182 12.0119 182.529 12.7582C182.956 13.3506 183.168 14.0836 183.168 14.9544ZM181.647 14.553C181.659 14.0925 181.554 13.6956 181.338 13.3609C181.062 12.93 180.641 12.7138 180.07 12.7138C179.55 12.7138 179.126 12.9241 178.802 13.3461C178.538 13.6823 178.381 14.0836 178.329 14.553H181.647Z" fill="white"/>
</svg>
