<svg width="203" height="57" viewBox="0 0 203 57" fill="none" xmlns="http://www.w3.org/2000/svg">
<path d="M195.481 57H7.51852C3.38521 57 0 53.792 0 49.875V7.12501C0 3.20804 3.38521 1.00987e-05 7.51852 1.00987e-05H195.481C199.615 1.00987e-05 203 3.20804 203 7.12501V49.875C203 53.792 199.615 57 195.481 57Z" fill="black"/>
<path d="M71.3016 14.5974C71.3016 15.7873 70.9257 16.7403 70.1851 17.451C69.3336 18.2935 68.2247 18.7175 66.8657 18.7175C65.5669 18.7175 64.4579 18.2864 63.5481 17.4367C62.6365 16.5746 62.1816 15.5166 62.1816 14.2501C62.1816 12.9836 62.6365 11.9256 63.5481 11.0706C64.4579 10.2138 65.5669 9.78271 66.8657 9.78271C67.5123 9.78271 68.1288 9.90918 68.7171 10.1443C69.3036 10.3812 69.781 10.7018 70.1268 11.0973L69.3411 11.849C68.7378 11.1739 67.9164 10.8408 66.8657 10.8408C65.9183 10.8408 65.0969 11.1543 64.3996 11.7866C63.7098 12.4207 63.3639 13.2419 63.3639 14.2501C63.3639 15.2583 63.7098 16.0866 64.3996 16.7207C65.0969 17.3459 65.9183 17.6665 66.8657 17.6665C67.8713 17.6665 68.7171 17.3459 69.3844 16.7136C69.8242 16.295 70.0742 15.7178 70.14 14.9804H66.8657V13.9508H71.2339C71.2866 14.1735 71.3016 14.389 71.3016 14.5974Z" fill="white" stroke="white" stroke-width="0.16" stroke-miterlimit="10"/>
<path d="M78.2316 11.0277H74.1284V13.7352H77.8275V14.7647H74.1284V17.4722H78.2316V18.5214H72.9668V9.97852H78.2316V11.0277Z" fill="white" stroke="white" stroke-width="0.16" stroke-miterlimit="10"/>
<path d="M83.1237 18.5214H81.9621V11.0277H79.4453V9.97852H85.6424V11.0277H83.1237V18.5214Z" fill="white" stroke="white" stroke-width="0.16" stroke-miterlimit="10"/>
<path d="M90.127 18.5214V9.97852H91.2867V18.5214H90.127Z" fill="white" stroke="white" stroke-width="0.16" stroke-miterlimit="10"/>
<path d="M96.4265 18.5214H95.2743V11.0277H92.748V9.97852H98.9527V11.0277H96.4265V18.5214Z" fill="white" stroke="white" stroke-width="0.16" stroke-miterlimit="10"/>
<path d="M110.685 17.4225C109.796 18.2864 108.695 18.7175 107.381 18.7175C106.06 18.7175 104.958 18.2864 104.069 17.4225C103.182 16.5604 102.74 15.5023 102.74 14.2501C102.74 12.9979 103.182 11.9398 104.069 11.0777C104.958 10.2138 106.06 9.78271 107.381 9.78271C108.687 9.78271 109.789 10.2138 110.678 11.0848C111.573 11.9541 112.014 13.005 112.014 14.2501C112.014 15.5023 111.573 16.5604 110.685 17.4225ZM104.928 16.7064C105.597 17.3459 106.411 17.6665 107.381 17.6665C108.343 17.6665 109.165 17.3459 109.826 16.7064C110.494 16.067 110.832 15.2458 110.832 14.2501C110.832 13.2544 110.494 12.4332 109.826 11.7937C109.165 11.1543 108.343 10.8337 107.381 10.8337C106.411 10.8337 105.597 11.1543 104.928 11.7937C104.261 12.4332 103.923 13.2544 103.923 14.2501C103.923 15.2458 104.261 16.067 104.928 16.7064Z" fill="white" stroke="white" stroke-width="0.16" stroke-miterlimit="10"/>
<path d="M113.645 18.5214V9.97852H115.054L119.438 16.6226H119.488L119.438 14.9803V9.97852H120.597V18.5214H119.387L114.797 11.5496H114.746L114.797 13.199V18.5214H113.645Z" fill="white" stroke="white" stroke-width="0.16" stroke-miterlimit="10"/>
<path d="M102.456 30.9974C98.9239 30.9974 96.0387 33.5446 96.0387 37.059C96.0387 40.5449 98.9239 43.1188 102.456 43.1188C105.995 43.1188 108.88 40.5449 108.88 37.059C108.88 33.5446 105.995 30.9974 102.456 30.9974ZM102.456 40.732C100.518 40.732 98.8506 39.2161 98.8506 37.059C98.8506 34.8734 100.518 33.3843 102.456 33.3843C104.394 33.3843 106.068 34.8734 106.068 37.059C106.068 39.2161 104.394 40.732 102.456 40.732ZM88.4544 30.9974C84.915 30.9974 82.0373 33.5446 82.0373 37.059C82.0373 40.5449 84.915 43.1188 88.4544 43.1188C91.9918 43.1188 94.8714 40.5449 94.8714 37.059C94.8714 33.5446 91.9918 30.9974 88.4544 30.9974ZM88.4544 40.732C86.5146 40.732 84.8417 39.2161 84.8417 37.059C84.8417 34.8734 86.5146 33.3843 88.4544 33.3843C90.3923 33.3843 92.0595 34.8734 92.0595 37.059C92.0595 39.2161 90.3923 40.732 88.4544 40.732ZM71.7933 32.8553V35.431H78.2837C78.0939 36.8702 77.5864 37.9283 76.8082 38.6657C75.8609 39.5563 74.3853 40.5449 71.7933 40.5449C67.7991 40.5449 64.6714 37.4901 64.6714 33.7049C64.6714 29.9198 67.7991 26.8649 71.7933 26.8649C73.953 26.8649 75.5244 27.6647 76.6841 28.7014L78.5995 26.8863C76.9774 25.4186 74.8195 24.291 71.7933 24.291C66.3161 24.291 61.7129 28.5144 61.7129 33.7049C61.7129 38.8955 66.3161 43.1188 71.7933 43.1188C74.7538 43.1188 76.9774 42.1997 78.7254 40.4755C80.5167 38.7779 81.0749 36.3911 81.0749 34.4637C81.0749 33.8652 81.0223 33.3148 80.9283 32.8553H71.7933ZM139.922 34.8521C139.394 33.4965 137.765 30.9974 134.445 30.9974C131.156 30.9974 128.417 33.4538 128.417 37.059C128.417 40.4541 131.128 43.1188 134.761 43.1188C137.699 43.1188 139.394 41.4213 140.092 40.4327L137.911 39.0558C137.184 40.064 136.193 40.732 134.761 40.732C133.338 40.732 132.317 40.1139 131.663 38.8955L140.217 35.5414L139.922 34.8521ZM131.201 36.8702C131.128 34.5332 133.116 33.3362 134.541 33.3362C135.658 33.3362 136.605 33.8652 136.921 34.6223L131.201 36.8702ZM124.248 42.7501H127.06V24.9376H124.248V42.7501ZM119.643 32.3476H119.549C118.918 31.6387 117.713 30.9974 116.186 30.9974C112.984 30.9974 110.055 33.6622 110.055 37.0786C110.055 40.4755 112.984 43.1188 116.186 43.1188C117.713 43.1188 118.918 42.4722 119.549 41.7419H119.643V42.6112C119.643 44.9286 118.337 46.1737 116.23 46.1737C114.512 46.1737 113.446 44.998 113.006 44.0095L110.561 44.9767C111.266 46.5834 113.132 48.5605 116.23 48.5605C119.527 48.5605 122.308 46.7223 122.308 42.2496V31.3661H119.643V32.3476ZM116.427 40.732C114.489 40.732 112.867 39.1947 112.867 37.0786C112.867 34.9429 114.489 33.3843 116.427 33.3843C118.337 33.3843 119.842 34.9429 119.842 37.0786C119.842 39.1947 118.337 40.732 116.427 40.732ZM153.087 24.9376H146.362V42.7501H149.166V36.001H153.087C156.202 36.001 159.256 33.8652 159.256 30.4684C159.256 27.0733 156.194 24.9376 153.087 24.9376ZM153.161 33.5232H149.166V27.4153H153.161C155.255 27.4153 156.45 29.063 156.45 30.4684C156.45 31.8471 155.255 33.5232 153.161 33.5232ZM170.496 30.9636C168.47 30.9636 166.363 31.8115 165.497 33.6907L167.985 34.6793C168.521 33.6907 169.506 33.3701 170.547 33.3701C172.002 33.3701 173.478 34.1983 173.5 35.6607V35.8478C172.993 35.5699 171.906 35.1584 170.57 35.1584C167.889 35.1584 165.158 36.5567 165.158 39.1662C165.158 41.5531 167.354 43.0903 169.822 43.0903C171.709 43.0903 172.75 42.2834 173.404 41.3447H173.5V42.7216H176.209V35.8887C176.209 32.7306 173.72 30.9636 170.496 30.9636ZM170.158 40.7248C169.241 40.7248 167.963 40.2938 167.963 39.2161C167.963 37.8374 169.557 37.3084 170.936 37.3084C172.171 37.3084 172.75 37.5667 173.5 37.9069C173.28 39.5563 171.782 40.7248 170.158 40.7248ZM186.077 31.3537L182.853 39.0754H182.757L179.425 31.3537H176.4L181.408 42.1445L178.551 48.1491H181.481L189.197 31.3537H186.077ZM160.798 42.7501H163.609V24.9376H160.798V42.7501Z" fill="white"/>
<path d="M15.6915 10.7425C15.2498 11.1807 14.9941 11.8629 14.9941 12.7464V44.2603C14.9941 45.1438 15.2498 45.826 15.6915 46.2642L15.8005 46.3604L34.4351 28.7082V28.2914L15.8005 10.6392L15.6915 10.7425Z" fill="url(#paint0_linear_2124_3301)"/>
<path d="M40.6402 34.5952L34.4355 28.7082V28.2914L40.6477 22.4043L40.7868 22.4809L48.1437 26.4478C50.2432 27.5735 50.2432 29.426 48.1437 30.5589L40.7868 34.5186L40.6402 34.5952Z" fill="url(#paint1_linear_2124_3301)"/>
<path d="M40.7863 34.5188L34.4351 28.4999L15.6914 46.2643C16.3887 46.959 17.5259 47.0427 18.8191 46.3481L40.7863 34.5188Z" fill="url(#paint2_linear_2124_3301)"/>
<path d="M40.7863 22.4812L18.8191 10.6519C17.5259 9.96432 16.3887 10.048 15.6914 10.7427L34.4351 28.5L40.7863 22.4812Z" fill="url(#paint3_linear_2124_3301)"/>
<defs>
<linearGradient id="paint0_linear_2124_3301" x1="32.7806" y1="44.5884" x2="8.90021" y2="19.3891" gradientUnits="userSpaceOnUse">
<stop stop-color="#00A0FF"/>
<stop offset="0.0066" stop-color="#00A1FF"/>
<stop offset="0.2601" stop-color="#00BEFF"/>
<stop offset="0.5122" stop-color="#00D2FF"/>
<stop offset="0.7604" stop-color="#00DFFF"/>
<stop offset="1" stop-color="#00E3FF"/>
</linearGradient>
<linearGradient id="paint1_linear_2124_3301" x1="50.8776" y1="28.4978" x2="14.4927" y2="28.4978" gradientUnits="userSpaceOnUse">
<stop stop-color="#FFE000"/>
<stop offset="0.4087" stop-color="#FFBD00"/>
<stop offset="0.7754" stop-color="#FFA500"/>
<stop offset="1" stop-color="#FF9C00"/>
</linearGradient>
<linearGradient id="paint2_linear_2124_3301" x1="37.3327" y1="25.228" x2="4.94894" y2="-8.94435" gradientUnits="userSpaceOnUse">
<stop stop-color="#FF3A44"/>
<stop offset="1" stop-color="#C31162"/>
</linearGradient>
<linearGradient id="paint3_linear_2124_3301" x1="10.9732" y1="56.7489" x2="25.434" y2="41.4896" gradientUnits="userSpaceOnUse">
<stop stop-color="#32A071"/>
<stop offset="0.0685" stop-color="#2DA771"/>
<stop offset="0.4762" stop-color="#15CF74"/>
<stop offset="0.8009" stop-color="#06E775"/>
<stop offset="1" stop-color="#00F076"/>
</linearGradient>
</defs>
</svg>
