<svg width="330" height="228" viewBox="0 0 330 228" fill="none" xmlns="http://www.w3.org/2000/svg">
<path d="M195.392 219.278C192.828 214.809 191.546 206.51 191.546 194.381V145.547C191.546 68.9432 230.967 20.4276 309.809 -3.05176e-05C319.424 12.1289 325.193 19.7892 327.116 22.981C329.039 25.5345 330 30.3222 330 37.3442C310.129 45.6429 292.502 57.1335 277.118 71.8158C261.734 86.4981 253.722 100.861 253.081 114.905L283.849 112.99C290.9 112.352 295.707 114.267 298.271 118.735C300.194 123.204 301.155 131.503 301.155 143.632V192.466C301.155 203.319 300.194 210.66 298.271 214.49C295.707 218.32 290.259 220.874 281.926 222.15L208.853 225.023C201.802 225.661 197.315 223.746 195.392 219.278Z" fill="url(#paint0_linear_4012_83)"/>
<path d="M3.84508 222.135C1.28111 217.667 -0.00088501 209.368 -0.00088501 197.239V148.404C-0.00088501 71.8006 39.4201 23.285 118.262 2.85739C127.877 14.9863 133.646 22.6466 135.569 25.8385C137.492 28.3919 138.453 33.1796 138.453 40.2016C118.582 48.5004 100.955 59.9909 85.5714 74.6732C70.1876 89.3556 62.1752 103.719 61.5342 117.763L92.3018 115.848C99.3527 115.209 104.16 117.124 106.724 121.593C108.647 126.061 109.609 134.36 109.609 146.489V195.324C109.609 206.176 108.647 213.517 106.724 217.347C104.16 221.177 98.7117 223.731 90.3788 225.008L17.3059 227.88C10.255 228.519 5.76804 226.604 3.84508 222.135Z" fill="url(#paint1_linear_4012_83)"/>
<defs>
<linearGradient id="paint0_linear_4012_83" x1="260.773" y1="-3.05176e-05" x2="260.773" y2="225.143" gradientUnits="userSpaceOnUse">
<stop stop-color="white" stop-opacity="0.3"/>
<stop offset="1" stop-color="white" stop-opacity="0"/>
</linearGradient>
<linearGradient id="paint1_linear_4012_83" x1="69.2261" y1="2.85739" x2="69.2261" y2="228" gradientUnits="userSpaceOnUse">
<stop stop-color="white" stop-opacity="0.3"/>
<stop offset="1" stop-color="white" stop-opacity="0"/>
</linearGradient>
</defs>
</svg>
