<svg width="323" height="231" viewBox="0 0 323 231" fill="none" xmlns="http://www.w3.org/2000/svg">
<path d="M134.608 5.86496C137.172 10.3335 138.454 18.6322 138.454 30.7611V79.5959C138.454 156.199 99.0331 204.715 20.1912 225.143C10.5763 213.014 4.80743 205.353 2.88446 202.162C0.961486 199.608 0 194.82 0 187.798C19.8707 179.5 37.498 168.009 52.8817 153.327C68.2655 138.644 76.2779 124.281 76.9189 110.237L46.1513 112.152C39.1004 112.791 34.293 110.876 31.729 106.407C29.8061 101.939 28.8446 93.6399 28.8446 81.511V32.6762C28.8446 21.824 29.8061 14.4829 31.729 10.6527C34.293 6.8225 39.7414 4.26905 48.0743 2.99232L121.147 0.119693C128.198 -0.518671 132.685 1.39642 134.608 5.86496Z" fill="url(#paint0_linear_4012_84)"/>
<path d="M318.608 11.0075C321.172 15.4761 322.454 23.7748 322.454 35.9037V84.7384C322.454 161.342 283.033 209.858 204.191 230.285C194.576 218.156 188.807 210.496 186.884 207.304C184.961 204.751 184 199.963 184 192.941C203.871 184.642 221.498 173.152 236.882 158.469C252.266 143.787 260.278 129.424 260.919 115.38L230.151 117.295C223.1 117.933 218.293 116.018 215.729 111.55C213.806 107.081 212.845 98.7824 212.845 86.6535V37.8188C212.845 26.9666 213.806 19.6254 215.729 15.7953C218.293 11.9651 223.741 9.41163 232.074 8.1349L305.147 5.26227C312.198 4.62391 316.685 6.539 318.608 11.0075Z" fill="url(#paint1_linear_4012_84)"/>
<defs>
<linearGradient id="paint0_linear_4012_84" x1="69.227" y1="0" x2="69.227" y2="225.143" gradientUnits="userSpaceOnUse">
<stop stop-color="white" stop-opacity="0"/>
<stop offset="1" stop-color="white" stop-opacity="0.3"/>
</linearGradient>
<linearGradient id="paint1_linear_4012_84" x1="253.227" y1="5.14258" x2="253.227" y2="230.285" gradientUnits="userSpaceOnUse">
<stop stop-color="white" stop-opacity="0"/>
<stop offset="1" stop-color="white" stop-opacity="0.3"/>
</linearGradient>
</defs>
</svg>
