<svg width="254" height="298" viewBox="0 0 254 298" fill="none" xmlns="http://www.w3.org/2000/svg">
<path d="M0 20C0 8.95431 8.95431 0 20 0H234C245.046 0 254 8.9543 254 20V278C254 289.046 245.046 298 234 298H20C8.95431 298 0 289.046 0 278V20Z" fill="white"/>
<path d="M96.7422 111.093C96.7422 107.328 98.4044 103.754 101.287 101.322L138.81 69.6543C144.796 64.6022 153.568 64.6022 159.554 69.6543L197.077 101.322C199.959 103.754 201.622 107.328 201.622 111.093L201.622 176.125C201.622 183.196 195.872 188.928 188.779 188.928L109.585 188.928C102.492 188.928 96.7422 183.196 96.7422 176.125L96.7422 111.093Z" fill="#F7754E"/>
<path d="M150.634 115.139C150.598 120.272 154.729 124.461 159.862 124.498C164.994 124.534 169.184 120.402 169.22 115.27C169.256 110.138 165.125 105.948 159.992 105.912C154.86 105.876 150.67 110.007 150.634 115.139Z" fill="white"/>
<path d="M128.638 115.498C128.602 120.63 132.733 124.82 137.866 124.856C142.998 124.892 147.188 120.761 147.224 115.629C147.26 110.496 143.129 106.306 137.996 106.27C132.864 106.234 128.674 110.366 128.638 115.498Z" fill="white"/>
<path fill-rule="evenodd" clip-rule="evenodd" d="M136.552 185.341C135.672 185.341 134.958 186.054 134.958 186.935L134.958 263.064H124.595C123.714 263.064 123 263.778 123 264.659C123 265.539 123.714 266.253 124.595 266.253H136.552C136.975 266.253 137.381 266.085 137.68 265.786C137.979 265.487 138.146 265.081 138.146 264.659L138.146 186.935C138.146 186.054 137.433 185.341 136.552 185.341Z" fill="#353435"/>
<path fill-rule="evenodd" clip-rule="evenodd" d="M160.462 185.341C161.342 185.341 162.056 186.054 162.056 186.935L162.056 263.064H172.419C173.3 263.064 174.013 263.778 174.013 264.659C174.013 265.539 173.3 266.253 172.419 266.253H160.462C160.039 266.253 159.633 266.085 159.334 265.786C159.035 265.487 158.867 265.081 158.867 264.659L158.867 186.935C158.867 186.054 159.581 185.341 160.462 185.341Z" fill="#353435"/>
<path fill-rule="evenodd" clip-rule="evenodd" d="M160.497 110.402C159.397 110.395 158.499 111.282 158.492 112.383L158.467 116.369C158.461 117.469 159.347 118.367 160.448 118.374C161.549 118.381 162.446 117.494 162.453 116.393L162.478 112.407C162.485 111.307 161.598 110.409 160.497 110.402Z" fill="#353435"/>
<path fill-rule="evenodd" clip-rule="evenodd" d="M138.509 110.779C137.408 110.772 136.511 111.659 136.504 112.759L136.479 116.745C136.472 117.846 137.359 118.743 138.46 118.75C139.56 118.757 140.458 117.87 140.465 116.77L140.49 112.784C140.496 111.683 139.61 110.785 138.509 110.779Z" fill="#353435"/>
<path fill-rule="evenodd" clip-rule="evenodd" d="M138.322 101.072C136.304 101.004 134.763 101.693 134.178 102.641C133.716 103.391 132.734 103.624 131.985 103.162C131.235 102.7 131.002 101.718 131.464 100.968C132.921 98.6034 135.904 97.7998 138.43 97.8849C140.972 97.9706 143.871 98.9744 145.332 101.221C145.812 101.959 145.603 102.947 144.864 103.427C144.126 103.907 143.139 103.697 142.659 102.959C141.992 101.935 140.325 101.139 138.322 101.072Z" fill="#373335"/>
<path fill-rule="evenodd" clip-rule="evenodd" d="M145.552 142.705C149.76 146.205 155.431 144.412 156.993 140.506C157.32 139.688 158.248 139.291 159.066 139.618C159.883 139.945 160.281 140.873 159.954 141.69C157.53 147.749 149.266 149.941 143.513 145.157C142.836 144.594 142.743 143.588 143.306 142.911C143.869 142.234 144.875 142.142 145.552 142.705Z" fill="#373335"/>
<path fill-rule="evenodd" clip-rule="evenodd" d="M164.906 94.5434C162.84 94.0765 159.451 94.8071 155.729 99.4431C155.178 100.13 154.174 100.239 153.488 99.6881C152.801 99.1369 152.691 98.1334 153.243 97.4468C157.436 92.2237 161.96 90.6083 165.609 91.4332C169.121 92.2271 171.629 95.3777 171.001 98.7382C170.839 99.6037 170.006 100.174 169.14 100.012C168.275 99.8502 167.704 99.0173 167.866 98.1518C168.115 96.8203 167.108 95.0413 164.906 94.5434Z" fill="#373335"/>
<path fill-rule="evenodd" clip-rule="evenodd" d="M194.865 66.2453C195.205 65.4333 196.14 65.051 196.952 65.3916C212.82 72.0461 227.008 87.0521 235.596 102.586C239.898 110.368 242.845 118.369 243.875 125.631C244.902 132.869 244.049 139.574 240.475 144.523C235.661 151.188 226.412 153.193 217.746 150.977C208.999 148.74 200.488 142.158 196.815 131.139C196.537 130.304 196.988 129.401 197.824 129.123C198.659 128.844 199.562 129.296 199.84 130.131C203.143 140.038 210.752 145.897 218.536 147.887C226.399 149.898 234.09 147.917 237.89 142.656C240.793 138.636 241.684 132.885 240.718 126.079C239.756 119.297 236.973 111.667 232.805 104.128C224.453 89.021 210.74 74.6316 195.718 68.3321C194.906 67.9916 194.524 67.0573 194.865 66.2453Z" fill="#373335"/>
<path fill-rule="evenodd" clip-rule="evenodd" d="M108.786 179.833C107.05 160.561 102.591 141.311 99.2032 133.246C98.8621 132.434 99.2438 131.499 100.056 131.158C100.867 130.817 101.802 131.199 102.143 132.011C105.708 140.497 110.211 160.109 111.962 179.547C112.839 189.284 113.034 199.062 112.052 207.447C111.079 215.759 108.917 223.01 104.816 227.386C98.9687 233.625 91.6102 237.339 83.5579 237.604C75.506 237.869 66.9645 234.679 58.7508 227.495C58.088 226.916 58.0206 225.909 58.6003 225.246C59.18 224.583 60.1872 224.516 60.85 225.095C68.5867 231.862 76.3681 234.65 83.453 234.417C90.5377 234.184 97.1301 230.923 102.489 225.205C105.86 221.609 107.93 215.234 108.885 207.076C109.832 198.989 109.652 189.45 108.786 179.833Z" fill="#373335"/>
<path fill-rule="evenodd" clip-rule="evenodd" d="M23.14 260.342C21.6634 261.271 21.602 263.409 23.1968 264.164C28.1921 266.529 34.2037 266.391 39.1731 263.266C45.2282 259.457 47.9543 252.333 46.5316 245.629L80.3441 224.363C83.9388 226.289 88.4002 226.3 92.0559 224.001C97.5105 220.57 99.1058 213.295 95.6191 207.751C92.1324 202.208 84.8841 200.495 79.4294 203.926C75.7739 206.225 73.8517 210.251 74.0308 214.325L40.2181 235.592C34.7923 231.407 27.1902 230.779 21.1353 234.587C16.1659 237.713 13.4388 243.072 13.4069 248.599C13.3967 250.363 15.3502 251.234 16.8268 250.305L26.2921 244.351C27.461 243.616 29.0142 243.983 29.7613 245.171L33.3689 250.907C34.116 252.095 33.7742 253.654 32.6053 254.389L23.14 260.342ZM83.9389 211.096C85.4973 210.115 87.5683 210.605 88.5645 212.189C89.5607 213.772 89.1049 215.851 87.5464 216.831C85.988 217.811 83.917 217.322 82.9208 215.738C81.9246 214.154 82.3804 212.076 83.9389 211.096Z" fill="#1C9272"/>
<path fill-rule="evenodd" clip-rule="evenodd" d="M63.9557 221.554C63.6317 222.093 63.5153 222.612 63.5475 222.988C63.6227 223.865 62.9724 224.637 62.0951 224.713C61.2177 224.788 60.4456 224.137 60.3705 223.26C60.2682 222.066 60.6385 220.883 61.2229 219.911C61.8113 218.932 62.684 218.053 63.7502 217.5C64.8336 216.938 66.1509 216.702 67.5105 217.116C68.861 217.528 70.0475 218.519 71.0137 220.019C71.4906 220.759 71.2772 221.745 70.537 222.222C69.7968 222.699 68.8101 222.486 68.3332 221.746C67.6581 220.698 67.0259 220.302 66.5802 220.166C66.1436 220.033 65.687 220.087 65.2184 220.33C64.7328 220.582 64.2756 221.022 63.9557 221.554Z" fill="#353435"/>
<path d="M151.939 52.4053L190.61 62.0619L189.704 65.6899L151.034 56.0332L151.939 52.4053Z" fill="#274596"/>
<path d="M143.295 37.6677C144.628 32.3284 150.037 29.0809 155.377 30.4142L170.845 34.2768C176.184 35.6101 179.432 41.0194 178.099 46.3587L174.236 61.827L139.432 53.136L143.295 37.6677Z" fill="#274596"/>
</svg>
